<?xml version="1.0" encoding="UTF-8" standalone="no"?>
<svg
   xmlns:dc="http://purl.org/dc/elements/1.1/"
   xmlns:cc="http://creativecommons.org/ns#"
   xmlns:rdf="http://www.w3.org/1999/02/22-rdf-syntax-ns#"
   xmlns:svg="http://www.w3.org/2000/svg"
   xmlns="http://www.w3.org/2000/svg"
   xmlns:sodipodi="http://sodipodi.sourceforge.net/DTD/sodipodi-0.dtd"
   xmlns:inkscape="http://www.inkscape.org/namespaces/inkscape"
   inkscape:version="1.0 (4035a4fb49, 2020-05-01)"
   sodipodi:docname="2ZG01dx101.svg"
   id="svg30363"
   preserveAspectRatio="xMidYMid meet"
   viewBox="-150 0 360 50"
   height="150pt"
   width="150pt"
   version="1.0">
  <defs
     id="defs30367" />
  <sodipodi:namedview
     inkscape:current-layer="svg30363"
     inkscape:window-maximized="1"
     inkscape:window-y="-8"
     inkscape:window-x="-8"
     inkscape:cy="14.918603"
     inkscape:cx="29.48892"
     inkscape:zoom="1.4410714"
     showgrid="false"
     id="namedview30365"
     inkscape:window-height="705"
     inkscape:window-width="1366"
     inkscape:pageshadow="2"
     inkscape:pageopacity="0"
     guidetolerance="10"
     gridtolerance="10"
     objecttolerance="10"
     borderopacity="1"
     bordercolor="#666666"
     pagecolor="#ffffff" />
  <metadata
     id="metadata30347">
Created by potrace 1.10, written by Peter Selinger 2001-2011
<rdf:RDF>
  <cc:Work
     rdf:about="">
    <dc:format>image/svg+xml</dc:format>
    <dc:type
       rdf:resource="http://purl.org/dc/dcmitype/StillImage" />
    <dc:title></dc:title>
  </cc:Work>
</rdf:RDF>
</metadata>
  <g
     id="g30361"
     stroke="none"
     fill="#000000"
     transform="matrix(0.1,0,0,-0.1,-127.88331,151.18895)">
    <path
       id="path30349"
       d="m 1232,2560 c -51,-27 -92,-90 -92,-142 0,-22 63,-203 160,-461 88,-234 160,-430 160,-436 0,-15 9,-14 60,4 55,19 105,19 163,-1 50,-17 132,-83 142,-114 11,-34 20,-23 43,49 112,347 121,652 26,849 -74,152 -267,251 -521,267 -88,6 -102,4 -141,-15 z m 258,-25 c 36,-3 75,-13 88,-21 13,-9 30,-13 38,-10 8,3 14,2 14,-3 0,-5 12,-12 28,-16 15,-3 36,-14 46,-23 11,-10 16,-11 11,-3 -5,9 1,7 19,-4 25,-17 38,-34 14,-19 -7,4 -8,3 -4,-5 4,-6 12,-9 17,-5 11,6 40,-26 33,-37 -2,-4 4,-13 14,-20 16,-13 16,-12 3,6 -7,11 1,4 18,-15 31,-34 41,-58 19,-44 -7,4 -8,3 -4,-5 4,-6 11,-9 15,-7 11,7 46,-81 57,-144 20,-109 21,-262 3,-365 -6,-33 -13,-78 -15,-100 -3,-22 -9,-53 -14,-70 -4,-16 -11,-43 -15,-60 -7,-27 -8,-28 -15,-10 -6,14 -8,7 -6,-23 2,-23 -1,-45 -7,-49 -6,-4 -7,-1 -2,7 5,8 4,11 -3,7 -5,-4 -8,-17 -4,-30 5,-19 4,-20 -11,-8 -9,7 -14,17 -11,22 3,5 1,8 -5,7 -5,-2 -17,6 -26,17 -9,11 -13,14 -9,6 5,-10 -2,-9 -24,4 -17,10 -29,21 -27,24 5,9 -50,14 -151,13 -88,0 -92,1 -103,25 -6,14 -9,35 -6,47 4,14 3,17 -3,8 -10,-14 -23,8 -43,73 -6,22 -16,46 -22,53 -8,10 -7,16 4,23 9,6 10,9 2,9 -11,0 -25,25 -54,98 -5,14 -5,21 0,18 5,-4 7,3 4,14 -3,11 -9,20 -13,20 -4,0 -15,25 -25,55 -11,30 -23,55 -28,55 -5,0 -7,9 -4,20 3,11 2,20 -3,20 -8,0 -36,89 -32,103 1,4 -2,7 -8,7 -5,0 -17,27 -27,60 -9,33 -20,60 -25,60 -5,0 -6,5 -3,10 4,6 1,17 -5,25 -7,8 -10,22 -6,30 3,8 0,15 -6,15 -7,0 -3,7 8,15 18,15 18,15 0,8 -15,-5 -17,-3 -11,8 5,7 10,21 10,31 2,19 52,73 75,80 18,6 148,3 240,-7 z" />
    <path
       id="path30351"
       d="m 1385,1495 c -22,-13 -37,-25 -33,-25 5,0 -7,-20 -26,-45 -38,-50 -59,-125 -50,-183 11,-73 78,-166 132,-183 9,-3 0,-20 -28,-51 l -41,-47 38,-24 c 33,-21 50,-24 123,-23 73,1 91,5 130,27 25,15 52,35 62,45 31,36 57,99 60,147 l 3,48 35,-6 c 19,-4 44,-9 56,-11 54,-13 26,125 -42,205 -80,93 -211,110 -324,44 -3,-2 -14,22 -25,52 -10,30 -21,55 -24,55 -3,0 -24,-11 -46,-25 z m 45,-34 c 0,-11 5,-23 10,-26 6,-4 8,-11 5,-16 -4,-5 -2,-9 3,-9 5,0 12,-9 15,-19 6,-25 -20,-36 -42,-19 -14,11 -14,11 -4,-3 11,-13 10,-19 -5,-32 -9,-8 -21,-16 -27,-17 -5,-1 -9,-10 -8,-21 2,-10 -1,-19 -5,-19 -4,0 -8,-29 -8,-65 -1,-36 2,-65 6,-65 4,0 10,-8 14,-17 3,-10 9,-25 13,-33 3,-8 -5,-2 -19,13 -14,15 -29,23 -33,19 -5,-4 -5,-1 -1,6 4,6 2,12 -4,12 -6,0 -8,5 -5,10 3,6 2,10 -4,10 -18,0 -34,72 -27,131 4,44 14,71 43,113 34,49 47,60 76,65 4,0 7,-8 7,-18 z m 274,-47 c 9,-3 13,-11 9,-17 -3,-6 -1,-7 6,-3 12,8 82,-38 80,-52 -3,-19 2,-33 10,-28 5,3 16,-15 26,-40 15,-39 15,-48 4,-55 -12,-7 -12,-9 1,-9 11,0 11,-3 2,-12 -10,-10 -19,-10 -44,0 -25,9 -35,9 -47,-1 -12,-10 -14,-9 -8,6 3,9 2,17 -4,17 -6,0 -7,5 -4,10 4,6 1,18 -7,27 -8,11 -9,14 -1,10 8,-5 11,-1 8,14 -2,12 -7,24 -11,28 -4,3 -4,-3 0,-14 10,-26 -2,-14 -23,25 -9,18 -21,31 -26,30 -5,-1 -12,7 -16,17 -3,10 -12,18 -20,18 -41,2 -109,19 -109,27 0,6 6,8 13,5 8,-3 20,-1 28,4 14,10 102,5 133,-7 z m -63,-67 c 63,-42 89,-139 55,-205 -17,-32 -80,-75 -130,-86 -56,-13 -131,27 -162,86 -21,41 -18,115 7,155 44,71 161,96 230,50 z m 82,-259 c -3,-15 -8,-26 -12,-24 -3,2 -11,-7 -18,-20 -7,-16 -8,-22 -1,-17 7,3 8,1 4,-5 -4,-7 -13,-12 -21,-12 -7,0 -22,-10 -32,-23 -10,-12 -37,-29 -59,-36 -50,-16 -176,-11 -182,7 -2,7 -8,10 -13,7 -5,-4 -6,1 -3,9 3,9 10,16 14,16 4,0 11,11 14,25 4,14 11,23 16,20 15,-9 12,7 -6,35 l -16,25 22,-25 c 12,-13 29,-26 38,-28 31,-7 151,-8 146,-1 -2,4 10,12 26,19 17,7 30,17 30,22 0,5 4,7 9,4 5,-3 14,8 21,25 16,37 31,20 23,-23 z" />
    <path
       id="path30353"
       d="m 1519,1341 c -71,-22 -99,-61 -99,-135 0,-36 6,-52 30,-80 42,-47 94,-56 154,-26 76,36 99,93 68,163 -29,65 -91,97 -153,78 z m 88,-35 c -1,-6 3,-10 9,-9 6,1 18,-14 28,-33 9,-21 11,-32 5,-28 -8,5 -9,3 -3,-7 18,-30 -6,-93 -40,-104 -11,-4 -27,-6 -35,-5 -7,1 -11,-2 -8,-7 3,-4 -6,-8 -19,-8 -13,0 -24,3 -24,6 0,4 -11,10 -25,13 -14,4 -25,13 -25,22 0,8 -4,13 -8,10 -10,-6 -11,1 -16,62 -4,38 -1,45 33,72 30,26 44,30 83,29 27,-2 46,-7 45,-13 z" />
    <path
       id="path30355"
       d="M 1130,1365 C 751,1278 468,1105 378,904 345,830 341,690 369,579 401,456 480,298 524,270 c 51,-31 98,-36 151,-16 37,15 64,42 182,184 75,92 210,255 299,363 l 162,197 -47,49 c -82,85 -102,192 -56,291 13,28 23,52 22,51 -1,0 -49,-11 -107,-24 z m 53,-34 c -10,-7 -14,-31 -17,-91 -1,-25 -5,-51 -9,-58 -6,-8 -4,-12 5,-10 8,2 13,-6 12,-19 0,-12 3,-20 8,-17 7,4 9,-4 8,-31 0,-7 17,-28 58,-70 21,-21 31,-39 26,-47 -15,-27 -47,-57 -55,-52 -5,3 -6,-1 -4,-9 3,-7 -5,-25 -19,-40 -13,-14 -21,-29 -17,-33 3,-4 -2,-4 -12,-1 -10,4 -16,3 -12,-2 3,-5 -9,-23 -25,-40 -17,-17 -31,-34 -31,-38 -1,-4 -5,-7 -11,-5 -5,1 -7,-2 -4,-6 7,-12 -28,-44 -39,-35 -4,5 -5,2 -1,-4 10,-18 -29,-57 -46,-47 -10,6 -11,5 -1,-7 11,-13 9,-20 -10,-37 -13,-12 -27,-19 -31,-15 -4,4 -4,-1 0,-11 5,-13 4,-17 -4,-12 -6,3 -13,-3 -17,-14 -4,-12 -20,-35 -36,-53 -16,-18 -42,-45 -57,-62 -15,-16 -20,-26 -12,-21 8,4 4,-2 -10,-13 -14,-11 -29,-21 -33,-21 -5,0 -6,-4 -2,-9 8,-14 -55,-82 -68,-74 -5,3 -7,1 -4,-4 9,-15 -29,-47 -47,-40 -9,4 -19,0 -23,-7 -10,-18 -94,2 -124,30 -18,16 -50,78 -89,169 -52,122 -68,261 -44,368 21,90 23,95 35,77 9,-12 10,-12 5,3 -3,10 3,26 14,37 11,11 18,20 15,20 -3,0 0,6 7,14 7,8 16,12 21,9 4,-2 7,-1 6,4 -4,20 4,30 40,53 22,13 37,28 34,34 -4,5 3,7 15,4 13,-4 19,-2 17,6 -3,6 7,20 22,30 14,11 23,14 19,8 -4,-7 -2,-12 4,-12 6,0 8,-5 4,-12 -4,-7 -3,-8 5,-4 6,4 9,12 6,17 -8,12 25,45 55,54 14,4 36,16 49,26 13,10 27,16 32,13 5,-3 9,0 9,7 0,7 10,9 25,6 14,-2 23,-2 21,1 -10,9 29,31 56,32 14,0 28,4 30,10 2,5 17,11 33,12 17,1 35,5 40,9 13,9 73,27 109,33 16,3 30,7 33,9 2,3 13,2 24,0 12,-3 17,-9 12,-12 z" />
    <path
       id="path30357"
       d="m 1820,1100 c 0,-39 -33,-105 -74,-148 -41,-44 -96,-72 -157,-79 -27,-3 -49,-8 -49,-10 0,-7 97,-109 173,-182 223,-214 477,-336 660,-317 133,14 275,113 398,278 68,92 94,153 85,201 -8,45 -44,97 -81,118 -20,12 -185,44 -485,94 -250,41 -458,75 -462,75 -4,0 -8,-14 -8,-30 z m 144,-16 c 15,-2 35,-6 45,-8 9,-3 39,-8 66,-12 28,-3 53,-8 56,-10 10,-6 80,-16 117,-17 17,-1 32,-4 32,-8 0,-5 9,-6 20,-4 11,2 22,0 25,-5 3,-5 12,-7 21,-3 14,5 59,-2 206,-33 37,-8 81,-14 97,-14 17,0 31,-4 31,-9 0,-6 9,-8 19,-6 31,6 77,-16 95,-45 8,-15 12,-31 8,-35 -4,-5 -1,-5 6,-1 6,4 12,4 13,-1 11,-83 3,-123 -30,-149 -8,-7 -11,-16 -6,-24 5,-8 4,-11 -2,-7 -5,3 -17,-10 -26,-29 -10,-19 -21,-33 -26,-30 -5,3 -12,-5 -15,-18 -6,-26 -115,-131 -152,-148 -13,-6 -24,-15 -24,-19 0,-5 -7,-5 -17,-2 -11,4 -14,3 -9,-5 6,-10 -7,-17 -17,-9 -2,1 -11,-4 -20,-12 -10,-7 -17,-10 -17,-5 0,5 -4,3 -9,-5 -13,-20 -121,-29 -191,-16 -19,4 -42,8 -50,9 -33,5 -96,29 -111,43 -9,7 -20,13 -25,12 -13,-4 -84,33 -84,43 0,5 -4,6 -10,3 -5,-3 -10,-1 -10,4 0,6 -3,10 -7,9 -15,-5 -124,84 -120,96 3,7 -5,13 -21,14 -31,3 -54,20 -45,36 3,6 2,8 -2,3 -11,-10 -46,23 -38,36 3,6 1,7 -5,3 -7,-4 -12,-2 -12,3 0,6 -4,11 -10,11 -10,0 -83,76 -109,113 -13,19 -13,20 13,13 18,-4 25,-3 21,4 -3,5 -1,10 6,10 22,0 101,44 110,62 6,10 14,16 18,14 4,-3 21,19 36,50 15,30 31,57 36,60 4,2 5,12 2,20 -9,23 17,35 57,28 19,-3 48,-8 64,-10 z" />
    <path
       id="path30359"
       d="m 1056,628 c 3,-5 10,-6 15,-3 13,9 11,12 -6,12 -8,0 -12,-4 -9,-9 z" />
  </g>
  <path
     id="path30369"
     d=""
     style="fill:#ff0000;stroke-width:0.520446" />
  <path
     id="path30371"
     d="m -71.345107,125.73822 c -1.454176,-0.52371 -3.2414,-1.34366 -3.971611,-1.82211 -5.052521,-3.31054 -14.943798,-25.122567 -16.501776,-36.389351 -0.824319,-5.96121 -0.698965,-15.86736 0.259941,-20.541908 4.398508,-21.442147 33.343369,-41.380154 74.638816,-51.413234 11.9213172,-2.896387 11.9732322,-2.907412 11.9732322,-2.542492 0,0.164265 -0.710895,1.969245 -1.57977,4.011059 -4.6673922,10.968218 -2.7519075,20.523105 6.03236991,30.090923 2.56816499,2.797245 3.74621999,4.45344 3.44434499,4.842307 -2.03655751,2.62344 -48.0710771,58.419906 -51.3704091,62.263866 -6.358391,7.40798 -10.173185,10.74657 -13.361236,11.69333 -3.497842,1.03874 -6.302114,0.98233 -9.563902,-0.19239 z m 7.879053,-1.85614 c 0.55564,-0.42026 1.739823,-0.77156 2.631517,-0.78067 1.763814,-0.018 4.363868,-1.74097 4.363868,-2.89177 0,-0.39484 1.007928,-1.41137 2.239839,-2.25894 2.338953,-1.60925 5.046408,-5.02873 5.046408,-6.37355 0,-0.43044 1.0539,-1.52548 2.342003,-2.43342 1.28811,-0.90794 2.34201,-1.9747 2.34201,-2.37056 0,-0.39587 1.769595,-2.64152 3.93243,-4.99034 2.162835,-2.348802 4.750545,-5.549464 5.750445,-7.112569 0.999915,-1.563113 2.040727,-2.70438 2.312925,-2.536155 0.272205,0.168225 0.494902,-0.293453 0.494902,-1.025962 0,-0.73251 0.226058,-1.331835 0.502335,-1.331835 0.276293,0 1.349603,-0.743903 2.385142,-1.653113 1.40142,-1.230465 1.823685,-1.962315 1.65162,-2.862457 -0.155242,-0.812085 0.0147,-1.209338 0.51735,-1.209338 1.130408,0 3.791138,-2.89401 3.791138,-4.12353 0,-0.59451 0.279937,-1.08093 0.62208,-1.08093 0.831795,0 3.541492,-2.629665 3.541492,-3.436897 0,-0.35196 0.213998,-0.71799 0.475545,-0.813413 0.793268,-0.28938 6.29025,-7.237747 6.29025,-7.951065 0,-0.429157 0.461993,-0.577117 1.301115,-0.416707 0.9805877,0.187447 1.3011152,0.02783 1.3011152,-0.647835 0,-0.49311 0.6869475,-1.763895 1.5265425,-2.823968 0.8395875,-1.060072 1.67715,-2.527507 1.8612375,-3.26097 0.1840875,-0.733462 0.916935,-1.645162 1.6285425,-2.026012 1.7123699,-0.916433 4.35170991,-4.554232 4.35170991,-5.99796 0,-0.707535 -1.59630001,-2.89503 -4.16356491,-5.705565 -3.47991,-3.80964 -4.1635725,-4.846215 -4.1635725,-6.312802 0,-1.07964 -0.3003375,-1.86996 -0.7806675,-2.05428 -0.4293675,-0.164768 -0.7806677,-0.723765 -0.7806677,-1.242218 0,-1.491127 -0.569925,-2.589112 -1.343917,-2.589112 -0.52197,0 -0.594548,-0.312675 -0.271845,-1.171005 0.242152,-0.644055 0.607575,-3.513015 0.812047,-6.375465 0.20448,-2.862458 0.712568,-5.903333 1.1290802,-6.757515 0.6836625,-1.40205 0.66969,-1.617105 -0.14373,-2.211893 -1.0670402,-0.780232 -2.0902422,-0.826762 -4.1374352,-0.18816 -0.82989,0.258878 -3.265395,0.870293 -5.412232,1.358693 -2.146838,0.488407 -5.242943,1.447597 -6.88023,2.131545 -1.63728,0.683947 -3.63702,1.243537 -4.443862,1.243537 -0.806835,0 -2.38161,0.466305 -3.4995,1.036245 -1.117898,0.569933 -2.865368,1.186733 -3.883283,1.37067 -2.374417,0.429053 -4.686442,1.601805 -5.055877,2.564535 -0.191655,0.499425 -1.059975,0.753458 -2.575455,0.753458 -1.25748,0 -2.28633,0.234202 -2.28633,0.520447 0,0.286245 -0.41403,0.52044 -0.920078,0.52044 -0.50604,0 -1.75479,0.56721 -2.775,1.260458 -1.020202,0.693247 -3.410742,1.99554 -5.312303,2.893987 -3.768372,1.78047 -5.531659,3.558998 -5.62548,5.67411 -0.03911,0.881738 -0.14419,1.040303 -0.298385,0.450263 -0.130906,-0.500933 -0.468861,-0.910785 -0.751011,-0.910785 -0.28215,0 -0.368257,-0.234203 -0.191347,-0.520448 0.176909,-0.286245 -0.0255,-0.520447 -0.4498,-0.520447 -1.21761,0 -3.973991,2.587665 -3.973991,3.73074 0,0.880537 -0.234483,0.98448 -1.562702,0.69276 -1.268788,-0.278678 -1.635859,-0.146865 -1.951673,0.70083 -0.213935,0.57423 -1.911276,2.17737 -3.771871,3.562537 -2.475597,1.843028 -3.426237,2.891633 -3.544486,3.909765 -0.1097,0.944528 -0.510422,1.443345 -1.247963,1.553453 -0.597508,0.08921 -1.344496,0.618247 -1.659975,1.175655 -0.315479,0.5574 -1.21765,1.939192 -2.004825,3.070649 -0.787175,1.13145 -1.431227,2.347328 -1.431227,2.701943 0,0.354615 -0.409851,0.612225 -0.91078,0.572467 -1.91595,-0.152062 -4.637493,15.103673 -4.025856,22.567125 0.817531,9.975848 2.862604,17.395237 7.746582,28.104079 5.045567,11.06316 6.88902,13.18515 12.845785,14.78667 3.664823,0.98532 5.253666,1.00065 6.493866,0.0626 z"
     style="fill:#ff0000;stroke-width:0.520446" />
  <path
     id="path30373"
     d="M 54.915944,10.174977 C 53.485417,6.7213771 46.281337,0.85338471 40.764045,-1.3522753 c -1.732058,-0.69243 -4.45881,-1.2100199 -7.260645,-1.3782149 -3.811733,-0.22881 -5.205293,-0.0633 -9.26115,1.1001449 -2.62584,0.75321753 -4.978913,1.36948502 -5.229038,1.36948502 -0.250132,0 -0.974137,-1.58085752 -1.608915,-3.51301492 C 16.769527,-5.7060327 11.385262,-20.402125 5.4392625,-36.431867 -6.5777023,-68.828255 -11.738887,-83.297663 -12.963975,-88.025432 c -0.728347,-2.810778 -0.734497,-3.446554 -0.0555,-5.733093 1.67814,-5.650901 6.3137777,-10.420225 11.6304076,-11.965805 5.6088225,-1.63053 22.6754244,0.39619 33.4633574,3.9739 10.310302,3.419306 16.499039,7.0606 22.623434,13.311049 13.722518,14.00497 16.79601,43.282104 8.21883,78.290041 -2.09952,8.5692222 -5.568997,19.6047371 -6.61203,21.031177 -0.65373,0.89403 -0.744682,0.847725 -1.38861,-0.70686 z m 1.401758,-5.0812723 c -0.181688,-0.950415 0.01095,-1.6165275 0.58989,-2.0399325 0.657622,-0.4809525 0.850665,-1.440945 0.821385,-4.0848675 -0.02505,-2.2600724 0.121132,-3.1713374 0.422325,-2.6331374 0.25332,0.45267 0.6603,0.6996 0.904395,0.548745 1.032367,-0.6380325 3.864292,-15.0160953 5.741985,-29.1528073 0.759165,-5.715547 0.60912,-21.875979 -0.26502,-28.5443 -1.183298,-9.026699 -4.471815,-18.546322 -6.412875,-18.564042 -0.70641,-0.0065 -0.734513,-0.09565 -0.147263,-0.467505 0.602018,-0.381205 0.541335,-0.756881 -0.355995,-2.203927 -1.308907,-2.110743 -4.346767,-5.119866 -5.020657,-4.973164 -0.26805,0.05835 -0.670043,-0.598893 -0.893318,-1.460547 -0.51186,-1.975298 -7.220602,-7.700729 -8.050664,-6.870663 -0.16008,0.160079 -1.358655,-0.276598 -2.663505,-0.970393 -1.30485,-0.693795 -2.657288,-1.261444 -3.005415,-1.261444 -0.348135,0 -1.191503,-0.438651 -1.87416,-0.97478 -0.682658,-0.536128 -2.177993,-1.099109 -3.322973,-1.251067 -1.144987,-0.151958 -3.369892,-0.746933 -4.94424,-1.322173 -3.725055,-1.36107 -12.171562,-2.17689 -22.538257,-2.17689 -7.5676874,0 -8.4648524,0.0985 -10.1002423,1.10926 -2.1787125,1.34652 -5.8745097,5.901458 -5.8745097,7.240126 0,0.533318 -0.289995,1.606142 -0.644438,2.384054 -0.517635,1.136078 -0.51336,1.458078 0.02175,1.636438 0.511335,0.170445 0.525345,0.391728 0.0603,0.952111 -0.41106,0.495291 -0.43788,0.939259 -0.0834,1.380615 0.28737,0.357807 0.656235,1.470261 0.819698,2.47212 0.6483222,3.973638 1.0477797,5.508729 1.6928622,6.505575 0.37047,0.572491 1.3780125,3.142989 2.2389825,5.712219 0.8609775,2.569229 1.8702675,4.911237 2.2428675,5.204461 0.3726,0.293224 1.0955399,2.17254 1.6065299,4.176257 0.5109975,2.003717 1.3892475,4.595318 1.95167252,5.759113 0.56243249,1.163795 1.02260248,2.761378 1.02260248,3.550186 0,0.788807 0.32847,1.762663 0.72992999,2.16413 0.40146751,0.40146 1.45655251,2.632755 2.34465001,4.958438 0.88809,2.325682 2.0857124,4.827285 2.6613749,5.559127 0.76635,0.97425 0.963345,1.77474 0.7355625,2.988923 -0.242325,1.291717 0.20817,2.76951 2.0378475,6.684915 1.29192,2.764642 2.60112,5.02662 2.909332,5.02662 0.375135,0 0.350895,0.335437 -0.07335,1.014742 -0.517125,0.828053 -0.457942,1.378628 0.321683,2.992568 0.525465,1.0878 1.626292,3.947804 2.446282,6.355559 1.48728,4.367168 2.797515,6.515918 3.651398,5.988188 0.247987,-0.153263 0.450885,0.683595 0.450885,1.8596848 0,2.4063825 1.10013,4.9209825 2.365327,5.4064875 0.463365,0.17781 4.160693,0.33777 8.216273,0.3554625 9.968827,0.0435 14.891145,0.5656425 15.4944,1.6435874 0.660225,1.1797575 3.749249,3.00825001 5.082082,3.00825001 0.610275,0 1.10958,0.1946325 1.10958,0.43250249 0,0.2378775 0.585502,0.7458525 1.301115,1.12884 0.715612,0.3829875 1.301115,0.9344175 1.301115,1.2254025 0,0.6830775 2.113447,2.9381624 2.753625,2.9381624 0.269715,0 0.369,-0.6350475 0.22062,-1.4112299 z"
     style="fill:#ff0000;stroke-width:0.520446" />
  <path
     id="path30375"
     d=""
     style="fill:#ff0000;stroke-width:0.520446" />
  <path
     id="path30377"
     d="M 100.44382,114.44116 C 85.797561,112.29219 69.293219,104.23491 53.343457,91.447188 48.284069,87.390821 26.800702,66.268706 26.800702,65.350759 c 0,-0.27978 0.878258,-0.645675 1.951673,-0.81309 8.054835,-1.256303 12.90444,-3.333375 17.023499,-7.29114 4.52745,-4.35015 8.60847,-11.863537 8.60847,-15.848662 0,-3.063263 0.01958,-3.069825 6.138983,-2.058765 3.06408,0.50625 16.46139,2.707732 29.771797,4.892182 26.926376,4.419045 47.319656,8.064158 54.347836,9.714172 4.1002,0.962618 4.93967,1.365525 7.14702,3.430238 4.94397,4.624507 6.78062,10.82007 4.8414,16.331467 -2.02908,5.76678 -8.45832,14.85282 -16.10521,22.760475 -11.48724,11.878964 -22.18258,17.621064 -33.57676,18.026624 -2.71934,0.0968 -5.64685,0.0729 -6.50559,-0.0531 z m 11.02182,-2.32297 c 2.23912,-0.30676 4.58984,-0.89226 5.22382,-1.30111 0.63398,-0.40886 1.41674,-0.74337 1.73947,-0.74337 0.32273,0 1.15345,-0.44575 1.84606,-0.99055 0.71034,-0.55876 1.70757,-0.87332 2.28766,-0.72163 0.64967,0.1699 1.14704,-0.0403 1.35061,-0.57078 0.17722,-0.46185 0.75175,-0.83972 1.27672,-0.83972 0.52497,0 1.10092,-0.23692 1.27989,-0.52649 0.17896,-0.28957 1.562,-1.31755 3.07342,-2.28439 3.94916,-2.52624 12.41857,-10.801514 13.88606,-13.567746 0.68783,-1.296585 1.53732,-2.35743 1.88775,-2.35743 0.35043,0 1.54218,-1.346655 2.64834,-2.992568 1.10617,-1.645905 2.30369,-2.927317 2.66116,-2.847577 0.45598,0.101715 0.55406,-0.29166 0.32862,-1.31805 -0.25971,-1.182465 -0.0181,-1.753545 1.25979,-2.977853 1.945,-1.863427 2.61089,-4.127902 2.60543,-8.860237 -0.004,-4.268453 -0.37648,-5.985128 -1.29539,-5.985128 -0.36495,0 -0.80597,-0.56745 -0.98004,-1.261005 -0.84988,-3.38616 -5.44012,-6.513157 -9.59189,-6.534255 -1.29149,-0.0068 -2.58146,-0.343815 -3.02974,-0.792097 -0.46271,-0.462713 -1.73492,-0.780675 -3.12359,-0.780675 -1.28861,0 -7.18545,-0.961455 -13.10409,-2.136577 -5.91864,-1.175115 -12.86897,-2.355765 -15.44518,-2.623658 -2.57621,-0.267892 -5.26952,-0.547807 -5.98513,-0.622027 -0.71562,-0.07425 -1.96041,-0.415875 -2.766229,-0.75924 -0.8058,-0.343365 -2.562307,-0.633593 -3.903345,-0.644955 -1.341022,-0.01132 -4.194742,-0.359378 -6.34158,-0.773378 -13.571429,-2.617125 -27.533872,-4.930605 -29.758364,-4.930747 -2.32746,-1.5e-4 -3.733868,1.235107 -3.399248,2.98557 0.164288,0.859432 -0.505852,2.529442 -2.10768,5.25243 -3.914722,6.654704 -4.791562,7.895707 -5.5788,7.895707 -0.415237,0 -1.012312,0.48084 -1.326832,1.068532 -0.749295,1.40007 -5.707245,4.54965 -8.97141,5.699168 -1.420267,0.500167 -2.764155,1.20363 -2.986417,1.563247 -0.274485,0.444128 -1.00668,0.540818 -2.282655,0.30144 -1.09299,-0.205042 -1.878555,-0.144457 -1.878555,0.144878 0,1.662562 12.406545,14.642812 13.995622,14.642812 0.255218,0 0.609907,0.581243 0.788212,1.291643 0.178298,0.710407 1.02339,1.653225 1.877978,2.095155 0.854587,0.441922 1.553797,1.022565 1.553797,1.290307 0,0.99675 2.266463,2.548845 4.198673,2.87529 1.433257,0.242145 2.269582,0.767775 2.962252,1.861778 1.375245,2.172044 7.234245,7.043842 10.122578,8.416979 1.34793,0.640823 2.460382,1.473657 2.47212,1.850757 0.01342,0.43161 0.384135,0.57048 1.00059,0.37482 0.611497,-0.19408 1.091182,-0.0191 1.277287,0.46587 0.312135,0.81339 6.076028,3.94609 7.226753,3.92777 0.36597,-0.006 2.773207,1.05593 5.349412,2.35947 7.772917,3.93304 18.521041,5.63388 27.676091,4.37962 z"
     style="fill:#ff0000;stroke-width:0.520446" />
  <path
     id="path30381"
     d="m 20.24031,40.724269 c -5.017583,-3.37527 -6.71769,-7.834567 -5.41494,-14.203095 0.537232,-2.626282 1.012582,-3.468945 3.101055,-5.497275 3.826635,-3.716445 9.574545,-5.136157 13.74297,-3.394477 4.451032,1.85976 8.661645,8.05107 8.6625,12.737377 7.5e-4,4.376678 -3.225248,8.39868 -8.666828,10.805205 -4.26735,1.887225 -8.18172,1.73382 -11.424757,-0.447735 z m 8.45397,-0.650557 c 0.178102,-0.464123 0.96285,-0.781463 1.935337,-0.782618 5.68161,-0.0068 8.854103,-8.314695 5.713013,-14.96088 -0.710235,-1.50279 -1.499198,-2.73234 -1.753238,-2.73234 -0.25404,0 -0.92655,-0.49875 -1.494465,-1.108335 -0.79794,-0.856492 -1.843717,-1.166377 -4.602255,-1.363747 -4.154362,-0.29724 -6.251647,0.53073 -9.88899,3.904005 -2.436757,2.25984 -2.560432,2.887492 -1.870215,9.491122 0.250125,2.393108 0.569393,3.328598 1.191495,3.49128 0.4674,0.122228 1.074795,0.718455 1.349768,1.324943 0.274972,0.606487 1.250782,1.353225 2.16846,1.659412 0.917685,0.306195 1.959877,0.849458 2.315985,1.207268 0.930517,0.934942 4.563157,0.839167 4.935105,-0.13011 z"
     style="fill:#ff0000;stroke-width:0.520446" />
  <path
     id="path30383"
     d="M 13.529332,58.891106 C 12.384345,58.508959 10.349677,57.494404 9.007845,56.636539 L 6.56814,55.076779 9.9186225,51.062854 c 1.8427645,-2.207655 3.3504825,-4.417635 3.3504825,-4.91106 0,-0.495577 -0.835328,-1.347 -1.866218,-1.902172 C 8.4548025,42.661977 4.6345725,38.059909 2.2203601,33.187819 0.12734261,28.963932 -1.3489316e-4,28.450324 1.0684087e-7,24.241489 1.8010684e-4,18.602734 1.4645851,14.115065 4.9950975,8.9339971 6.393105,6.8824021 7.538565,4.9215272 7.54056,4.5765047 c 0.00525,-0.8832075 7.24743,-5.09681247 7.774147,-4.52303248 0.235448,0.25648499 0.929258,1.83206248 1.541805,3.50129248 0.911025,2.4825974 2.441198,5.9021324 2.887703,6.4532703 0.05355,0.06607 1.72869,-0.5652079 3.722512,-1.4029279 5.086688,-2.1372 9.919028,-2.83293 14.412428,-2.075025 4.641847,0.7829475 9.903029,3.455925 12.961109,6.5849699 4.719803,4.829317 8.2281,12.43677 8.2281,17.841945 0,3.591502 -0.623437,3.92214 -5.49561,2.914552 -6.532882,-1.351027 -6.474652,-1.37205 -6.474652,2.337165 0,3.787193 -1.952407,10.024485 -4.275202,13.657845 -1.885703,2.94963 -5.027198,5.470792 -9.656925,7.749997 -3.181905,1.56645 -3.6834,1.653195 -10.448595,1.807395 -4.93104,0.112388 -7.743503,-0.0507 -9.188048,-0.532845 z m 17.245545,-2.715345 c 1.76061,-0.489712 3.550935,-1.53279 5.244855,-3.055769 1.414493,-1.271753 3.20385,-2.470905 3.976358,-2.664795 1.392457,-0.349485 3.019042,-2.314575 1.91586,-2.314575 -0.953258,0 -0.577785,-1.009523 0.982852,-2.64258 1.587255,-1.660913 2.46693,-4.817258 1.868258,-6.7035 -0.53436,-1.683623 -1.714583,-1.244715 -2.899733,1.078365 -0.600795,1.177657 -1.54236,2.258872 -2.092357,2.402707 -0.550005,0.143828 -1.000005,0.463628 -1.000005,0.71067 0,0.247043 -0.995355,0.94962 -2.211893,1.561275 -1.216545,0.611663 -2.602095,1.45464 -3.079005,1.873283 -0.69207,0.607515 -2.29086,0.726592 -7.920307,0.589912 l -7.05321,-0.171247 -2.878943,-2.844675 c -1.583422,-1.564568 -2.87895,-2.673473 -2.87895,-2.46423 0,0.209242 0.724965,1.664992 1.611023,3.235005 1.502767,2.662762 1.54116,2.854575 0.571357,2.854575 -0.69288,0 -1.225732,0.533767 -1.597522,1.600275 -0.306818,0.880155 -1.149435,2.303325 -1.872473,3.162607 -1.42851,1.697692 -1.6592095,2.52336 -0.705037,2.52336 0.335272,0 1.037055,0.386865 1.559535,0.859695 1.930342,1.746937 12.785347,1.98783 18.459337,0.409642 z m 3.135398,-12.402172 c 3.89427,-2.046382 7.015845,-4.760137 8.40402,-7.306065 0.61992,-1.13694 0.87276,-2.875177 0.875962,-6.022065 0.0037,-3.683827 -0.22194,-4.906567 -1.349242,-7.309995 C 39.97287,19.152537 37.694587,16.730217 34.540425,15.373332 30.793912,13.761627 27.19929,13.496037 23.146335,14.53148 14.89113,16.640509 10.98201,21.801064 11.02824,30.528972 c 0.0264,4.981755 1.27749,7.801455 4.911022,11.068312 5.48865,4.934768 11.366955,5.64663 17.971013,2.176305 z M 12.228217,41.678194 c 0,-0.721687 -2.2531495,-5.29218 -2.7651445,-5.609077 C 8.60898,35.540479 8.6619,24.435559 9.5226225,23.574852 c 0.343095,-0.343103 0.6238125,-1.27626 0.6238125,-2.073683 0,-1.11597 0.481485,-1.768492 2.090715,-2.833432 1.149885,-0.760958 2.22918,-1.935285 2.398425,-2.60961 0.232905,-0.927975 0.667312,-1.226055 1.786777,-1.226055 0.81348,0 1.688145,-0.373627 1.943708,-0.83028 0.611542,-1.092765 0.158625,-3.346342 -0.741998,-3.691942 -0.391507,-0.150233 -0.711825,-0.8049229 -0.711825,-1.4548579 0,-0.6499425 -0.3513,-1.4732625 -0.780667,-1.82961 -0.429368,-0.35634 -0.780675,-1.308 -0.780675,-2.1147974 0,-1.9283625 -0.624803,-2.23659 -2.741243,-1.3522875 -2.38737,0.9975075 -5.7526345,5.0321549 -8.0699545,9.6751498 -1.7997749,3.606037 -1.9423724,4.240582 -2.1201524,9.43461 -0.1988025,5.808232 0.7471275,10.924552 2.1797324,11.789692 0.77469,0.467828 1.592895,2.201078 1.4563575,3.08508 -0.05025,0.325493 0.4462275,0.726735 1.10334,0.89166 0.657105,0.164925 1.876125,1.011068 2.7089175,1.880325 1.3442025,1.40304 2.3603325,1.989983 2.3603325,1.36338 z m 39.603802,-9.959272 c 2.290395,0.642652 3.313943,0.715875 4.103108,0.293527 1.116472,-0.597517 1.449997,-2.087437 0.46728,-2.087437 -0.405518,0 -0.38748,-0.237 0.05895,-0.774968 0.393607,-0.474255 0.517462,-1.433497 0.319215,-2.472112 -0.523283,-2.74149 -2.790563,-7.16184 -3.67344,-7.16184 -0.534878,0 -0.804608,-0.490065 -0.804608,-1.46187 0,-0.804023 -0.292747,-1.830757 -0.650557,-2.281635 -1.223003,-1.5411 -5.22882,-4.063192 -6.453547,-4.063192 -0.748995,0 -1.223033,-0.307568 -1.223033,-0.793545 0,-1.0921054 -2.15322,-1.8219304 -6.765795,-2.2932454 -4.24941,-0.434205 -12.270225,0.40242 -12.172095,1.26963 0.09953,0.8795854 2.345625,1.7364454 6.165825,2.3522024 5.87517,0.946988 6.021098,0.997545 6.497655,2.250998 0.25002,0.657592 1.045155,1.582582 1.766978,2.055539 0.721815,0.47295 2.08797,2.156588 3.035895,3.741413 1.006747,1.683172 1.995765,2.777025 2.37819,2.630272 0.360075,-0.138172 0.654689,0.09272 0.654689,0.513113 0,0.420382 -0.351307,0.764332 -0.780674,0.764332 -0.98436,0 -0.978285,0.255465 0.04312,1.814393 0.482715,0.73671 0.683685,1.698862 0.485377,2.323695 -0.196852,0.620227 -0.106042,1.066372 0.217058,1.066372 0.305534,0 0.555517,0.72954 0.555517,1.621193 v 1.6212 l 1.36158,-0.892148 c 1.274895,-0.835335 1.555882,-0.837622 4.413232,-0.03585 z"
     style="fill:#ff0000;stroke-width:0.520446" />
</svg>
