<?xml version="1.0" encoding="UTF-8" standalone="no"?>
<svg
   xmlns:dc="http://purl.org/dc/elements/1.1/"
   xmlns:cc="http://creativecommons.org/ns#"
   xmlns:rdf="http://www.w3.org/1999/02/22-rdf-syntax-ns#"
   xmlns:svg="http://www.w3.org/2000/svg"
   xmlns="http://www.w3.org/2000/svg"
   xmlns:sodipodi="http://sodipodi.sourceforge.net/DTD/sodipodi-0.dtd"
   xmlns:inkscape="http://www.inkscape.org/namespaces/inkscape"
   height="212.70547"
   width="287"
   version="1.0"
   viewBox="0 -20 287 212.70547"
   preserveAspectRatio="xMidYMid meet"
   id="svg654"
   sodipodi:docname="FfRZvZFh01.svg"
   inkscape:version="1.0 (4035a4fb49, 2020-05-01)">
  <defs
     id="defs658" />
  <sodipodi:namedview
     inkscape:document-rotation="0"
     pagecolor="#ffffff"
     bordercolor="#666666"
     borderopacity="1"
     objecttolerance="10"
     gridtolerance="10"
     guidetolerance="10"
     inkscape:pageopacity="0"
     inkscape:pageshadow="2"
     inkscape:window-width="1366"
     inkscape:window-height="705"
     id="namedview656"
     showgrid="false"
     inkscape:zoom="3.091954"
     inkscape:cx="56.590075"
     inkscape:cy="147.95272"
     inkscape:window-x="-8"
     inkscape:window-y="-8"
     inkscape:window-maximized="1"
     inkscape:current-layer="svg654" />
  <metadata
     id="metadata2">
Created by potrace 1.10, written by Peter Selinger 2001-2011
<rdf:RDF>
  <cc:Work
     rdf:about="">
    <dc:format>image/svg+xml</dc:format>
    <dc:type
       rdf:resource="http://purl.org/dc/dcmitype/StillImage" />
    <dc:title></dc:title>
  </cc:Work>
</rdf:RDF>
</metadata>
  <g
     transform="matrix(0.1,0,0,-0.1,0,222.82433)"
     fill="#000000"
     stroke="none"
     id="g652">
    <path
       d="m 1,2114 c 0,-11 3,-14 6,-6 3,7 2,16 -1,19 -3,4 -6,-2 -5,-13 z"
       id="path4" />
    <path
       d="m 0,2080 c 0,-5 5,-10 10,-10 6,0 10,5 10,10 0,6 -4,10 -10,10 -5,0 -10,-4 -10,-10 z"
       id="path6" />
    <path
       d="m 72,2050 c 0,-14 2,-19 5,-12 2,6 2,18 0,25 -3,6 -5,1 -5,-13 z"
       id="path8" />
    <path
       d="m 5,1858 c 0,-139 3,-202 11,-205 8,-3 11,22 9,79 -1,46 -3,138 -3,206 -1,67 -5,122 -9,122 -5,0 -8,-91 -8,-202 z"
       id="path10" />
    <path
       d="m 2706,1531 c -9,-16 -28,-43 -43,-62 -26,-30 -26,-32 -7,-27 12,3 28,2 35,-3 12,-7 11,-9 -1,-9 -8,-1 -31,-3 -50,-5 -19,-3 -109,-11 -200,-20 -91,-9 -183,-17 -205,-20 -73,-7 -240,-19 -247,-17 -22,6 -4,-17 21,-28 24,-9 45,-9 103,1 40,6 192,26 338,44 222,26 265,34 262,47 -1,8 5,34 13,58 8,23 15,49 15,56 0,24 -19,15 -34,-15 z"
       id="path12" />
    <path
       d="m 476,1524 c -139,-24 -175,-34 -120,-34 29,0 309,46 329,54 31,13 -89,1 -209,-20 z"
       id="path14" />
    <path
       d="m 698,1523 c 7,-3 16,-2 19,1 4,3 -2,6 -13,5 -11,0 -14,-3 -6,-6 z"
       id="path16" />
    <path
       d="m 260,1500 c 0,-5 5,-10 10,-10 6,0 10,5 10,10 0,6 -4,10 -10,10 -5,0 -10,-4 -10,-10 z"
       id="path18" />
    <path
       d="m 368,1453 c 6,-2 18,-2 25,0 6,3 1,5 -13,5 -14,0 -19,-2 -12,-5 z"
       id="path20" />
    <path
       d="m 1608,1453 c 7,-3 16,-2 19,1 4,3 -2,6 -13,5 -11,0 -14,-3 -6,-6 z"
       id="path22" />
    <path
       d="m 380,1426 c 0,-2 7,-6 15,-10 8,-3 15,-1 15,4 0,6 -7,10 -15,10 -8,0 -15,-2 -15,-4 z"
       id="path24" />
    <path
       d="m 485,1410 c -3,-6 1,-7 9,-4 18,7 21,14 7,14 -6,0 -13,-4 -16,-10 z"
       id="path26" />
    <path
       d="m 157,1393 c 11,-31 13,-33 34,-20 16,10 21,9 29,-3 5,-8 12,-11 16,-7 11,11 -18,39 -36,34 -10,-2 -24,0 -33,5 -13,7 -15,5 -10,-9 z"
       id="path28" />
    <path
       d="m 284,1403 c 4,-6 0,-14 -6,-16 -8,-3 -6,-6 5,-6 20,-1 23,-17 5,-24 -8,-4 -7,-6 3,-6 9,-1 23,7 30,17 7,9 10,14 5,10 -5,-4 -17,3 -28,15 -11,12 -17,17 -14,10 z"
       id="path30" />
    <path
       d="m 1418,1403 c 7,-3 16,-2 19,1 4,3 -2,6 -13,5 -11,0 -14,-3 -6,-6 z"
       id="path32" />
    <path
       d="m 1958,1403 c 7,-3 16,-2 19,1 4,3 -2,6 -13,5 -11,0 -14,-3 -6,-6 z"
       id="path34" />
    <path
       d="m 1995,1390 c -3,-6 1,-7 9,-4 18,7 21,14 7,14 -6,0 -13,-4 -16,-10 z"
       id="path36" />
    <path
       d="m 73,1383 -63,-4 v -44 c 0,-40 2,-44 28,-47 20,-2 114,10 129,17 5,2 -20,85 -26,83 -3,-1 -34,-3 -68,-5 z m 22,-43 c 11,0 27,-4 34,-9 10,-7 0,-9 -32,-8 -26,1 -47,7 -48,12 0,6 -4,1 -9,-10 -8,-19 -9,-19 -9,2 -1,23 18,36 34,22 5,-5 18,-9 30,-9 z m 35,11 c 0,-4 -11,-6 -25,-3 -14,2 -25,6 -25,8 0,2 11,4 25,4 14,0 25,-4 25,-9 z"
       id="path38" />
    <path
       d="m 1585,1380 c -3,-5 -1,-10 4,-10 6,0 11,5 11,10 0,6 -2,10 -4,10 -3,0 -8,-4 -11,-10 z"
       id="path40" />
    <path
       d="m 2618,1373 c 7,-3 16,-2 19,1 4,3 -2,6 -13,5 -11,0 -14,-3 -6,-6 z"
       id="path42" />
    <path
       d="m 183,1354 c -10,-10 -10,-19 -1,-39 10,-22 17,-25 60,-25 28,0 48,3 46,8 -24,48 -32,62 -40,62 -11,0 -10,-17 2,-25 6,-3 10,-11 10,-17 0,-5 -9,0 -21,13 l -20,24 11,-23 c 14,-29 8,-38 -13,-18 -8,8 -18,12 -23,8 -5,-4 -3,0 3,8 16,21 3,43 -14,24 z"
       id="path44" />
    <path
       d="m 435,1360 c 3,-5 8,-10 11,-10 2,0 4,5 4,10 0,6 -5,10 -11,10 -5,0 -7,-4 -4,-10 z"
       id="path46" />
    <path
       d="m 1508,1363 c 12,-2 30,-2 40,0 9,3 -1,5 -23,4 -22,0 -30,-2 -17,-4 z"
       id="path48" />
    <path
       d="m 1618,1363 c 7,-3 16,-2 19,1 4,3 -2,6 -13,5 -11,0 -14,-3 -6,-6 z"
       id="path50" />
    <path
       d="m 2745,1360 c -3,-5 -1,-10 4,-10 6,0 11,5 11,10 0,6 -2,10 -4,10 -3,0 -8,-4 -11,-10 z"
       id="path52" />
    <path
       d="m 1383,1353 c 9,-2 23,-2 30,0 6,3 -1,5 -18,5 -16,0 -22,-2 -12,-5 z"
       id="path54" />
    <path
       d="m 1875,1353 c -16,-2 -61,-7 -100,-13 -38,-5 -101,-12 -140,-15 -92,-7 -147,-15 -159,-23 -5,-3 -32,-7 -60,-8 -123,-6 -216,-17 -216,-27 0,-5 -13,-7 -30,-3 -17,3 -30,1 -30,-4 0,-6 -14,-10 -31,-10 -17,0 -28,4 -24,10 3,6 -1,10 -9,10 -9,0 -16,-4 -16,-10 0,-5 -9,-10 -21,-10 -11,0 -17,-5 -14,-10 4,-6 10,-8 15,-5 5,3 24,-3 42,-13 35,-19 68,-18 68,1 0,18 218,46 225,30 7,-20 63,-15 84,6 19,19 46,25 154,37 42,4 57,3 57,-6 0,-18 88,-5 111,16 14,13 29,15 63,10 36,-6 46,-12 56,-36 7,-18 20,-30 30,-30 21,0 21,-27 -1,-42 -10,-7 -5,-8 19,-4 27,5 32,3 32,-14 0,-31 17,-23 37,17 14,29 28,40 68,54 28,10 42,18 33,18 -26,1 -70,-18 -97,-42 -20,-18 -23,-19 -18,-4 4,9 2,17 -3,17 -6,0 -10,-8 -10,-17 0,-16 -1,-16 -16,-1 -22,22 -12,33 32,36 48,4 54,10 30,28 -26,18 -33,18 -40,-3 -3,-11 -4,-7 -3,7 4,48 -26,61 -118,53 z m 82,-40 c 4,-10 11,-21 17,-25 7,-5 4,-8 -6,-8 -27,0 -33,4 -30,18 2,6 -2,12 -8,12 -5,0 -10,-5 -10,-12 0,-6 -2,-9 -5,-6 -10,9 7,38 21,38 8,0 18,-8 21,-17 z m -514,-40 c -7,-2 -19,-2 -25,0 -7,3 -2,5 12,5 14,0 19,-2 13,-5 z m -303,-37 c 0,-2 -7,-7 -16,-10 -8,-3 -12,-2 -9,4 6,10 25,14 25,6 z"
       id="path56" />
    <path
       d="m 2528,1353 c 7,-3 16,-2 19,1 4,3 -2,6 -13,5 -11,0 -14,-3 -6,-6 z"
       id="path58" />
    <path
       d="m 320,1324 c 0,-8 5,-12 10,-9 6,3 10,10 10,16 0,5 -4,9 -10,9 -5,0 -10,-7 -10,-16 z"
       id="path60" />
    <path
       d="m 865,1304 c -232,-32 -290,-38 -360,-39 -54,0 -88,-11 -80,-26 5,-7 255,18 325,33 71,15 58,13 183,28 59,8 107,17 107,22 0,4 -1,7 -2,7 -2,-1 -79,-12 -173,-25 z"
       id="path62" />
    <path
       d="m 1060,1319 c 0,-5 5,-7 10,-4 6,3 10,8 10,11 0,2 -4,4 -10,4 -5,0 -10,-5 -10,-11 z"
       id="path64" />
    <path
       d="m 1118,1323 c 7,-3 16,-2 19,1 4,3 -2,6 -13,5 -11,0 -14,-3 -6,-6 z"
       id="path66" />
    <path
       d="m 2813,1313 c 9,-2 23,-2 30,0 6,3 -1,5 -18,5 -16,0 -22,-2 -12,-5 z"
       id="path68" />
    <path
       d="m 2118,1303 c 7,-3 16,-2 19,1 4,3 -2,6 -13,5 -11,0 -14,-3 -6,-6 z"
       id="path70" />
    <path
       d="m 2835,1290 c 3,-5 8,-10 11,-10 2,0 4,5 4,10 0,6 -5,10 -11,10 -5,0 -7,-4 -4,-10 z"
       id="path72" />
    <path
       d="m 2154,1268 c -4,-7 -3,-8 5,-4 6,4 18,2 26,-4 9,-7 15,-8 15,-2 0,5 -7,13 -16,16 -21,8 -22,8 -30,-6 z"
       id="path74" />
    <path
       d="m 1810,1266 c 0,-2 7,-7 16,-10 8,-3 12,-2 9,4 -6,10 -25,14 -25,6 z"
       id="path76" />
    <path
       d="m 296,1248 c 3,-4 11,-5 19,-1 21,7 19,12 -4,10 -11,0 -18,-5 -15,-9 z"
       id="path78" />
    <path
       d="m 990,1240 c -8,-5 -85,-16 -170,-25 -233,-25 -314,-37 -327,-47 -7,-6 -13,-4 -17,4 -3,7 -3,2 0,-12 6,-24 6,-24 -10,-5 -8,11 -16,28 -16,38 0,22 -10,22 -63,-5 -24,-13 -42,-28 -40,-35 3,-8 -4,-13 -17,-13 -16,0 -20,-4 -16,-16 3,-9 6,-18 6,-22 0,-3 16,12 35,34 19,21 35,35 35,31 0,-5 8,-1 17,8 16,16 17,16 30,-1 14,-19 15,-35 4,-73 -5,-20 2,-34 44,-78 35,-37 50,-62 51,-83 1,-17 -3,-30 -10,-30 -7,0 -6,-4 2,-9 9,-6 12,-20 8,-45 -5,-28 -3,-37 6,-33 7,2 14,10 14,18 1,8 3,23 4,34 1,20 1,20 10,0 7,-16 9,-17 9,-3 1,9 4,24 7,32 4,12 2,15 -9,10 -8,-3 -18,-1 -22,5 -4,7 0,8 11,4 13,-5 16,-3 11,9 -9,24 4,30 20,10 13,-16 13,-16 12,3 -1,11 1,27 4,35 3,8 7,43 9,77 l 3,61 -43,5 c -24,2 -58,1 -77,-3 -43,-10 -51,-2 -21,21 18,14 30,16 55,9 22,-6 31,-5 31,3 0,8 3,8 12,-1 9,-9 16,-8 31,6 19,16 19,16 13,-5 -8,-25 0,-25 119,2 39,9 88,20 110,25 22,5 56,14 75,20 51,15 70,13 68,-7 -1,-10 0,-30 0,-46 2,-24 5,-27 30,-22 24,5 25,5 8,-7 -43,-30 -70,-59 -59,-66 6,-4 12,-16 15,-27 3,-16 8,-10 26,25 13,25 33,52 44,61 l 20,16 -21,41 c -12,23 -28,42 -36,42 -7,0 -15,8 -17,19 -2,13 -8,16 -18,11 z m 33,-80 c 3,-11 1,-18 -4,-14 -5,3 -9,12 -9,20 0,20 7,17 13,-6 z M 590,1041 c 0,-39 -4,-61 -9,-53 -4,7 -6,25 -3,39 3,18 1,24 -7,19 -8,-6 -10,0 -5,18 3,15 1,32 -5,40 -10,12 -8,13 8,9 19,-5 21,-13 21,-72 z m -100,49 c 0,-5 -8,-10 -17,-10 -15,0 -16,2 -3,10 19,12 20,12 20,0 z m 55,-45 c 0,-30 -2,-55 -5,-55 -3,0 -18,16 -33,36 -28,34 -28,36 -11,55 33,36 49,25 49,-36 z"
       id="path80" />
    <path
       d="m 2090,1243 c -63,-23 -83,-113 -35,-157 32,-30 69,-40 95,-26 29,15 15,31 -16,20 -35,-14 -57,-13 -48,2 4,7 3,8 -5,4 -9,-6 -11,0 -9,21 2,18 -1,27 -9,26 -16,-4 -17,21 -3,47 7,14 19,18 38,16 15,-2 19,-1 10,1 -22,5 -23,19 -2,27 24,9 31,7 14,-5 -11,-7 -6,-9 20,-5 33,5 34,4 15,-11 -20,-15 -20,-15 0,-11 22,5 51,-17 35,-27 -5,-3 -7,-12 -4,-19 3,-7 -2,-21 -12,-30 -12,-12 -14,-20 -6,-28 13,-13 32,-2 32,18 0,8 4,14 9,14 16,0 18,34 5,67 -22,52 -72,75 -124,56 z"
       id="path82" />
    <path
       d="m 2575,1240 c -3,-5 1,-10 10,-10 9,0 13,5 10,10 -3,6 -8,10 -10,10 -2,0 -7,-4 -10,-10 z"
       id="path84" />
    <path
       d="m 1882,1217 c -26,-27 -28,-37 -7,-37 8,0 22,-17 32,-37 19,-42 25,-48 68,-79 72,-50 168,-56 217,-13 l 23,20 -34,-17 c -52,-25 -118,-14 -153,25 -15,17 -28,42 -28,56 0,20 -7,26 -42,36 -24,7 -48,12 -55,10 -21,-3 -23,16 -2,37 11,12 16,22 11,22 -5,0 -18,-10 -30,-23 z m 105,-83 c -3,-4 0,-22 8,-40 l 14,-34 -24,17 c -13,10 -25,24 -25,31 0,6 -4,12 -10,12 -5,0 -10,5 -10,10 0,6 12,10 27,10 14,0 24,-3 20,-6 z"
       id="path86" />
    <path
       d="m 1260,1209 c -52,-5 -53,-6 -15,-9 27,-3 12,-6 -45,-10 l -85,-6 123,-2 c 96,-2 122,1 116,11 -6,10 -4,10 7,0 7,-7 27,-13 44,-12 29,1 29,1 5,8 -24,7 -24,8 8,13 19,3 40,-1 50,-8 23,-18 362,-20 380,-2 7,7 12,14 12,18 0,7 -530,7 -600,-1 z m 73,-16 c -7,-2 -21,-2 -30,0 -10,3 -4,5 12,5 17,0 24,-2 18,-5 z m 380,0 c -23,-2 -64,-2 -90,0 -26,2 -7,3 42,3 50,0 71,-1 48,-3 z m 110,0 c -13,-2 -33,-2 -45,0 -13,2 -3,4 22,4 25,0 35,-2 23,-4 z"
       id="path88" />
    <path
       d="m 1178,1203 c 7,-3 16,-2 19,1 4,3 -2,6 -13,5 -11,0 -14,-3 -6,-6 z"
       id="path90" />
    <path
       d="m 2265,1189 c -18,-4 5,-7 57,-8 48,0 89,3 92,7 6,10 -104,10 -149,1 z"
       id="path92" />
    <path
       d="m 2460,1190 c 0,-5 7,-10 16,-10 8,0 12,5 9,10 -3,6 -10,10 -16,10 -5,0 -9,-4 -9,-10 z"
       id="path94" />
    <path
       d="m 268,1184 c -17,-17 -7,-34 20,-33 15,1 20,3 10,6 -9,2 -18,11 -20,20 -2,8 -6,11 -10,7 z"
       id="path96" />
    <path
       d="m 294,1178 c -3,-4 4,-8 15,-8 12,0 21,4 21,8 0,5 -7,9 -15,9 -9,0 -18,-4 -21,-9 z"
       id="path98" />
    <path
       d="m 1088,1183 c 7,-3 16,-2 19,1 4,3 -2,6 -13,5 -11,0 -14,-3 -6,-6 z"
       id="path100" />
    <path
       d="m 1448,1183 c 7,-3 16,-2 19,1 4,3 -2,6 -13,5 -11,0 -14,-3 -6,-6 z"
       id="path102" />
    <path
       d="m 2573,1183 c 9,-2 23,-2 30,0 6,3 -1,5 -18,5 -16,0 -22,-2 -12,-5 z"
       id="path104" />
    <path
       d="m 2643,1183 c 15,-2 39,-2 55,0 15,2 2,4 -28,4 -30,0 -43,-2 -27,-4 z"
       id="path106" />
    <path
       d="m 2081,1158 c 0,-16 2,-18 6,-8 3,8 11,18 17,22 7,5 4,8 -6,8 -12,0 -18,-7 -17,-22 z"
       id="path108" />
    <path
       d="m 2131,1171 c -10,-6 -11,-16 -5,-34 8,-21 11,-23 22,-11 11,12 10,14 -3,14 -18,0 -19,12 -3,28 14,14 9,15 -11,3 z"
       id="path110" />
    <path
       d="m 2818,1175 c -2,-1 -130,-5 -286,-8 -156,-3 -286,-8 -289,-11 -4,-3 136,-6 310,-6 177,0 317,4 317,9 0,8 -45,22 -52,16 z"
       id="path112" />
    <path
       d="m 885,1159 -50,-6 63,-1 c 34,-1 62,0 62,2 0,9 -28,11 -75,5 z"
       id="path114"
       style="stroke:#ff0000" />
    <path
       d="m 1107,1158 c 2,-5 177,-8 389,-8 211,0 384,3 384,8 0,4 -175,7 -389,7 -214,0 -387,-3 -384,-7 z"
       id="path116" />
    <path
       d="m 410,1150 c 0,-5 5,-10 10,-10 6,0 10,5 10,10 0,6 -4,10 -10,10 -5,0 -10,-4 -10,-10 z"
       id="path118" />
    <path
       d="m 265,1130 c 3,-5 13,-10 21,-10 8,0 12,5 9,10 -3,6 -13,10 -21,10 -8,0 -12,-4 -9,-10 z"
       id="path120" />
    <path
       d="m 393,1110 c -18,-29 -16,-54 7,-75 19,-18 20,-17 20,3 0,11 -5,24 -11,28 -7,4 -7,9 -2,13 5,3 7,16 4,29 -6,22 -6,22 -18,2 z"
       id="path122" />
    <path
       d="m 712,1121 c -11,-7 -10,-9 3,-14 9,-4 13,-3 10,2 -3,5 3,12 12,14 13,3 14,5 3,6 -8,0 -21,-3 -28,-8 z"
       id="path124" />
    <path
       d="m 841,1125 c 3,-2 33,-9 68,-13 34,-5 58,-6 54,-2 -9,8 -130,23 -122,15 z"
       id="path126" />
    <path
       d="m 1805,1120 c -29,-5 -33,-8 -14,-9 15,0 41,-4 58,-7 24,-5 31,-3 31,10 0,17 -9,18 -75,6 z m 62,-6 c -3,-3 -12,-4 -19,-1 -8,3 -5,6 6,6 11,1 17,-2 13,-5 z"
       id="path128" />
    <path
       d="m 2090,1120 c 0,-5 5,-10 10,-10 6,0 10,5 10,10 0,6 -4,10 -10,10 -5,0 -10,-4 -10,-10 z"
       id="path130" />
    <path
       d="m 240,1116 c 0,-2 7,-7 16,-10 8,-3 12,-2 9,4 -6,10 -25,14 -25,6 z"
       id="path132" />
    <path
       d="m 780,1116 c 0,-2 7,-7 16,-10 8,-3 12,-2 9,4 -6,10 -25,14 -25,6 z"
       id="path134" />
    <path
       d="m 1135,1113 c 22,-3 48,-12 58,-20 21,-20 23,-10 1,11 -10,10 -31,15 -57,14 l -42,-1 z"
       id="path136" />
    <path
       d="m 1478,1113 c 23,-2 61,-2 85,0 23,2 4,4 -43,4 -47,0 -66,-2 -42,-4 z"
       id="path138" />
    <path
       d="m 1728,1113 c 6,-2 18,-2 25,0 6,3 1,5 -13,5 -14,0 -19,-2 -12,-5 z"
       id="path140" />
    <path
       d="m 2273,1113 c 9,-2 25,-2 35,0 9,3 1,5 -18,5 -19,0 -27,-2 -17,-5 z"
       id="path142" />
    <path
       d="m 2400,1109 c 0,-5 5,-7 10,-4 6,3 10,8 10,11 0,2 -4,4 -10,4 -5,0 -10,-5 -10,-11 z"
       id="path144" />
    <path
       d="m 2508,1113 c 12,-2 30,-2 40,0 9,3 -1,5 -23,4 -22,0 -30,-2 -17,-4 z"
       id="path146" />
    <path
       d="m 748,1103 c 7,-3 16,-2 19,1 4,3 -2,6 -13,5 -11,0 -14,-3 -6,-6 z"
       id="path148" />
    <path
       d="m 2708,1103 c 6,-2 18,-2 25,0 6,3 1,5 -13,5 -14,0 -19,-2 -12,-5 z"
       id="path150" />
    <path
       d="m 1093,1079 c -86,-25 -99,-141 -21,-189 23,-15 43,-19 67,-16 36,5 81,40 81,63 0,7 5,13 10,13 24,0 9,61 -22,94 -37,38 -68,48 -115,35 z m -3,-33 c 0,-3 -4,-8 -10,-11 -5,-3 -10,-1 -10,4 0,6 5,11 10,11 6,0 10,-2 10,-4 z m 96,-23 c -3,-7 0,-12 7,-10 7,1 13,-12 15,-31 3,-25 -3,-39 -27,-62 -68,-69 -158,-10 -136,88 4,17 10,22 24,17 11,-3 22,-1 26,5 10,16 97,10 91,-7 z"
       id="path152" />
    <path
       d="m 1110,1026 c 0,-2 9,-6 20,-9 11,-3 20,-1 20,4 0,5 -9,9 -20,9 -11,0 -20,-2 -20,-4 z"
       id="path154" />
    <path
       d="m 1050,992 c 0,-21 30,-52 50,-52 7,0 1,11 -14,25 -15,14 -24,30 -21,35 3,6 1,10 -4,10 -6,0 -11,-8 -11,-18 z"
       id="path156" />
    <path
       d="m 1151,974 c 0,-11 3,-14 6,-6 3,7 2,16 -1,19 -3,4 -6,-2 -5,-13 z"
       id="path158" />
    <path
       d="m 1120,958 c 0,-6 -7,-19 -16,-29 -15,-16 -14,-17 5,-12 11,3 18,10 15,15 -4,6 2,7 15,3 22,-7 22,-6 4,14 -20,24 -23,25 -23,9 z"
       id="path160" />
    <path
       d="m 1060,930 c 0,-5 5,-10 11,-10 5,0 7,5 4,10 -3,6 -8,10 -11,10 -2,0 -4,-4 -4,-10 z"
       id="path162" />
    <path
       d="m 2818,1083 c 12,-2 30,-2 40,0 9,3 -1,5 -23,4 -22,0 -30,-2 -17,-4 z"
       id="path164" />
    <path
       d="m 1240,1052 c 0,-5 7,-15 15,-22 8,-7 15,-8 15,-2 0,5 -7,15 -15,22 -8,7 -15,8 -15,2 z"
       id="path166" />
    <path
       d="m 1520,1052 c 0,-4 38,-8 84,-8 46,1 82,4 79,9 -6,10 -163,9 -163,-1 z"
       id="path168" />
    <path
       d="m 1771,1051 c -10,-6 14,-11 72,-13 48,-2 87,0 87,5 0,4 -6,7 -12,8 -7,0 -40,2 -73,5 -33,2 -66,0 -74,-5 z"
       id="path170" />
    <path
       d="m 2222,1051 c -11,-7 -11,-9 2,-14 10,-4 16,-1 16,8 0,17 -1,17 -18,6 z"
       id="path172" />
    <path
       d="m 2300,1049 c -18,-5 -6,-7 39,-8 35,-1 62,1 60,3 -10,8 -76,12 -99,5 z"
       id="path174" />
    <path
       d="m 808,1043 c 7,-3 16,-2 19,1 4,3 -2,6 -13,5 -11,0 -14,-3 -6,-6 z"
       id="path176" />
    <path
       d="m 950,1019 c 0,-39 34,-110 70,-144 45,-43 143,-46 189,-6 34,30 24,33 -16,5 -65,-44 -147,-18 -185,57 -10,19 -16,42 -14,52 3,10 -2,21 -10,24 -8,3 -12,8 -10,12 2,3 -2,12 -10,19 -12,11 -14,8 -14,-19 z"
       id="path178" />
    <path
       d="m 2563,1043 c 15,-2 39,-2 55,0 15,2 2,4 -28,4 -30,0 -43,-2 -27,-4 z"
       id="path180" />
    <path
       d="m 365,1030 c 3,-5 8,-10 11,-10 2,0 4,5 4,10 0,6 -5,10 -11,10 -5,0 -7,-4 -4,-10 z"
       id="path182" />
    <path
       d="m 860,1010 c -12,-8 -10,-10 8,-10 13,0 20,4 17,10 -7,12 -6,12 -25,0 z"
       id="path184" />
    <path
       d="m 355,1000 c 3,-5 10,-10 16,-10 5,0 9,5 9,10 0,6 -7,10 -16,10 -8,0 -12,-4 -9,-10 z"
       id="path186" />
    <path
       d="m 2510,1001 c 0,-4 -273,-9 -611,-9 -337,-1 -614,-4 -617,-7 -3,-2 355,-4 794,-3 439,2 721,4 627,6 -104,1 -173,6 -173,12 0,6 -4,10 -10,10 -5,0 -10,-4 -10,-9 z"
       id="path188" />
    <path
       d="m 668,993 c 6,-2 18,-2 25,0 6,3 1,5 -13,5 -14,0 -19,-2 -12,-5 z"
       id="path190" />
    <path
       d="m 760,989 c -33,-4 -21,-6 45,-7 89,0 103,3 35,10 -19,2 -55,0 -80,-3 z"
       id="path192" />
    <path
       d="m 428,983 c 12,-2 30,-2 40,0 9,3 -1,5 -23,4 -22,0 -30,-2 -17,-4 z"
       id="path194" />
    <path
       d="m 900,975 c 0,-8 2,-15 4,-15 2,0 6,7 10,15 3,8 1,15 -4,15 -6,0 -10,-7 -10,-15 z"
       id="path196" />
    <path
       d="m 360,969 c 0,-7 -8,-21 -17,-32 -13,-14 -14,-19 -4,-15 22,6 44,45 32,53 -6,3 -11,1 -11,-6 z"
       id="path198" />
    <path
       d="m 2360,950 -45,-7 40,-1 c 22,0 49,3 60,8 23,10 9,10 -55,0 z"
       id="path200" />
    <path
       d="m 2440,946 c 0,-2 7,-6 15,-10 8,-3 15,-1 15,4 0,6 -7,10 -15,10 -8,0 -15,-2 -15,-4 z"
       id="path202" />
    <path
       d="m 2656,938 c 3,-4 33,-8 67,-7 72,1 66,6 -15,12 -31,2 -55,0 -52,-5 z"
       id="path204" />
    <path
       d="m 231,924 c 0,-11 3,-14 6,-6 3,7 2,16 -1,19 -3,4 -6,-2 -5,-13 z"
       id="path206" />
    <path
       d="m 427,925 c 3,-8 9,-12 14,-9 12,7 11,11 -5,17 -10,4 -13,1 -9,-8 z"
       id="path208" />
    <path
       d="m 2498,933 c 12,-2 30,-2 40,0 9,3 -1,5 -23,4 -22,0 -30,-2 -17,-4 z"
       id="path210" />
    <path
       d="m 2578,933 c 12,-2 32,-2 45,0 12,2 2,4 -23,4 -25,0 -35,-2 -22,-4 z"
       id="path212" />
    <path
       d="m 875,920 c 3,-5 12,-7 20,-3 21,7 19,13 -6,13 -11,0 -18,-4 -14,-10 z"
       id="path214" />
    <path
       d="m 2178,923 c 12,-2 32,-2 45,0 12,2 2,4 -23,4 -25,0 -35,-2 -22,-4 z"
       id="path216" />
    <path
       d="m 1262,899 c -7,-10 -8,-19 -3,-19 5,0 12,6 14,13 4,10 6,10 6,0 1,-8 13,-12 29,-12 20,1 22,2 7,6 -11,3 -25,11 -31,18 -8,11 -12,10 -22,-6 z"
       id="path218" />
    <path
       d="m 2065,910 c -3,-5 -1,-10 4,-10 6,0 11,5 11,10 0,6 -2,10 -4,10 -3,0 -8,-4 -11,-10 z"
       id="path220" />
    <path
       d="m 1463,903 c 9,-2 23,-2 30,0 6,3 -1,5 -18,5 -16,0 -22,-2 -12,-5 z"
       id="path222" />
    <path
       d="m 1578,903 c 34,-2 90,-2 125,0 34,2 6,3 -63,3 -69,0 -97,-1 -62,-3 z"
       id="path224" />
    <path
       d="m 449,878 c -5,-124 3,-136 96,-136 42,0 78,-2 81,-5 3,-3 14,-3 25,0 16,5 19,14 19,68 0,61 -1,64 -31,79 -17,9 -35,13 -40,10 -14,-8 -11,-32 5,-41 7,-4 16,-15 19,-23 4,-12 6,-11 6,3 1,9 6,17 12,17 17,0 7,-93 -11,-98 -12,-4 -13,-2 -4,9 19,23 2,44 -34,45 h -33 l 23,-17 c 14,-11 25,-14 29,-7 4,7 9,7 13,-1 7,-10 -3,-14 -71,-25 -37,-6 -58,22 -23,31 25,7 27,26 3,21 -10,-2 -22,-13 -28,-26 -15,-34 -24,-26 -22,18 1,36 15,57 18,28 1,-7 4,1 8,17 6,26 3,32 -22,43 -38,16 -37,16 -38,-10 z m 168,-10 c -3,-8 -6,-5 -6,6 -1,11 2,17 5,13 3,-3 4,-12 1,-19 z M 467,793 c -2,-16 -4,-3 -4,27 0,30 2,43 4,28 2,-16 2,-40 0,-55 z"
       id="path226" />
    <path
       d="m 1345,880 c 3,-5 11,-10 16,-10 6,0 7,5 4,10 -3,6 -11,10 -16,10 -6,0 -7,-4 -4,-10 z"
       id="path228" />
    <path
       d="m 2408,883 c 7,-3 16,-2 19,1 4,3 -2,6 -13,5 -11,0 -14,-3 -6,-6 z"
       id="path230" />
    <path
       d="m 1458,873 c 12,-2 32,-2 45,0 12,2 2,4 -23,4 -25,0 -35,-2 -22,-4 z"
       id="path232" />
    <path
       d="m 1573,873 c 9,-2 25,-2 35,0 9,3 1,5 -18,5 -19,0 -27,-2 -17,-5 z"
       id="path234" />
    <path
       d="m 1648,873 c 7,-3 16,-2 19,1 4,3 -2,6 -13,5 -11,0 -14,-3 -6,-6 z"
       id="path236" />
    <path
       d="m 2150,860 c 8,-5 22,-9 30,-9 10,0 8,3 -5,9 -27,12 -43,12 -25,0 z"
       id="path238" />
    <path
       d="m 180,850 c -9,-6 -10,-10 -3,-10 6,0 15,5 18,10 8,12 4,12 -15,0 z"
       id="path240" />
    <path
       d="m 576,853 c -12,-12 -6,-33 9,-33 8,0 15,6 15,14 0,17 -14,28 -24,19 z"
       id="path242" />
    <path
       d="m 748,853 c 7,-3 16,-2 19,1 4,3 -2,6 -13,5 -11,0 -14,-3 -6,-6 z"
       id="path244" />
    <path
       d="m 913,853 c 15,-2 37,-2 50,0 12,2 0,4 -28,4 -27,0 -38,-2 -22,-4 z"
       id="path246" />
    <path
       d="m 1458,853 c 12,-2 30,-2 40,0 9,3 -1,5 -23,4 -22,0 -30,-2 -17,-4 z"
       id="path248" />
    <path
       d="m 1548,853 c 18,-2 45,-2 60,0 15,2 0,4 -33,4 -33,0 -45,-2 -27,-4 z"
       id="path250" />
    <path
       d="m 1707,853 c 18,-2 50,-2 70,0 21,2 7,4 -32,4 -38,0 -55,-2 -38,-4 z"
       id="path252" />
    <path
       d="m 2568,853 c 7,-3 16,-2 19,1 4,3 -2,6 -13,5 -11,0 -14,-3 -6,-6 z"
       id="path254" />
    <path
       d="m 1350,830 c 8,-5 20,-10 25,-10 6,0 3,5 -5,10 -8,5 -19,10 -25,10 -5,0 -3,-5 5,-10 z"
       id="path256" />
    <path
       d="m 898,823 c 7,-3 16,-2 19,1 4,3 -2,6 -13,5 -11,0 -14,-3 -6,-6 z"
       id="path258" />
    <path
       d="m 1200,820 c 0,-5 19,-10 43,-9 36,1 38,2 17,9 -36,12 -60,12 -60,0 z"
       id="path260" />
    <path
       d="m 255,810 c -8,-13 5,-13 25,0 13,8 13,10 -2,10 -9,0 -20,-4 -23,-10 z"
       id="path262" />
    <path
       d="m 1853,813 c 9,-2 25,-2 35,0 9,3 1,5 -18,5 -19,0 -27,-2 -17,-5 z"
       id="path264" />
    <path
       d="m 2083,813 c 26,-2 67,-2 90,0 23,2 2,3 -48,3 -49,0 -68,-1 -42,-3 z"
       id="path266" />
    <path
       d="m 2638,813 c 7,-3 16,-2 19,1 4,3 -2,6 -13,5 -11,0 -14,-3 -6,-6 z"
       id="path268" />
    <path
       d="m 2778,813 c 7,-3 16,-2 19,1 4,3 -2,6 -13,5 -11,0 -14,-3 -6,-6 z"
       id="path270" />
    <path
       d="m 863,783 c 9,-2 23,-2 30,0 6,3 -1,5 -18,5 -16,0 -22,-2 -12,-5 z"
       id="path272" />
    <path
       d="m 1165,780 c 3,-5 12,-7 20,-3 21,7 19,13 -6,13 -11,0 -18,-4 -14,-10 z"
       id="path274" />
    <path
       d="m 1375,780 c -3,-5 1,-10 9,-10 9,0 16,5 16,10 0,6 -4,10 -9,10 -6,0 -13,-4 -16,-10 z"
       id="path276" />
    <path
       d="m 1528,783 c 7,-3 16,-2 19,1 4,3 -2,6 -13,5 -11,0 -14,-3 -6,-6 z"
       id="path278" />
    <path
       d="m 1560,786 c 0,-2 11,-6 25,-8 13,-3 22,-1 19,3 -5,9 -44,13 -44,5 z"
       id="path280" />
    <path
       d="m 1728,783 c 12,-2 30,-2 40,0 9,3 -1,5 -23,4 -22,0 -30,-2 -17,-4 z"
       id="path282" />
    <path
       d="m 1792,785 c 7,-7 118,-9 125,-1 3,3 -24,6 -62,6 -38,0 -66,-2 -63,-5 z"
       id="path284" />
    <path
       d="m 2008,783 c 6,-2 18,-2 25,0 6,3 1,5 -13,5 -14,0 -19,-2 -12,-5 z"
       id="path286" />
    <path
       d="m 2548,783 c 7,-3 16,-2 19,1 4,3 -2,6 -13,5 -11,0 -14,-3 -6,-6 z"
       id="path288" />
    <path
       d="m 181,771 c -14,-4 -26,-12 -27,-19 -1,-7 0,-8 3,-2 2,5 12,10 21,10 10,0 24,5 32,10 17,11 7,11 -29,1 z"
       id="path290" />
    <path
       d="m 101,761 c -8,-5 -29,-9 -47,-9 -40,0 -54,-8 -53,-30 1,-14 2,-14 5,-2 4,12 19,16 60,17 31,1 59,4 62,7 11,11 -13,25 -27,17 z"
       id="path292" />
    <path
       d="m 353,763 c 9,-2 25,-2 35,0 9,3 1,5 -18,5 -19,0 -27,-2 -17,-5 z"
       id="path294" />
    <path
       d="m 425,760 c 3,-5 8,-10 11,-10 2,0 4,5 4,10 0,6 -5,10 -11,10 -5,0 -7,-4 -4,-10 z"
       id="path296" />
    <path
       d="m 1275,761 c -6,-5 -19,-11 -30,-14 -16,-4 -14,-5 6,-6 16,-1 29,5 33,14 6,17 4,19 -9,6 z"
       id="path298" />
    <path
       d="m 1990,751 c 11,-8 -6,-11 -70,-12 -100,-2 -89,-6 30,-12 51,-2 77,-1 65,4 -28,12 458,0 528,-13 51,-9 79,-7 66,6 -13,13 -171,24 -372,25 -125,1 -235,4 -245,7 -14,5 -15,4 -2,-5 z"
       id="path300" />
    <path
       d="m 958,745 c -3,-3 -67,-6 -142,-7 -75,0 -136,-4 -136,-8 0,-4 60,-7 133,-5 164,4 207,8 207,18 0,8 -54,10 -62,2 z"
       id="path302" />
    <path
       d="m 1175,740 c 3,-5 10,-10 16,-10 5,0 9,5 9,10 0,6 -7,10 -16,10 -8,0 -12,-4 -9,-10 z"
       id="path304" />
    <path
       d="m 1385,740 c 3,-5 13,-10 21,-10 8,0 12,5 9,10 -3,6 -13,10 -21,10 -8,0 -12,-4 -9,-10 z"
       id="path306" />
    <path
       d="m 1503,736 c 53,-12 113,-13 125,-1 3,3 -12,5 -34,5 -21,0 -64,2 -94,5 l -55,5 z"
       id="path308" />
    <path
       d="m 1660,739 c -18,-5 -6,-7 39,-8 35,-1 62,1 60,3 -10,8 -76,12 -99,5 z"
       id="path310" />
    <path
       d="m 298,733 c 7,-3 16,-2 19,1 4,3 -2,6 -13,5 -11,0 -14,-3 -6,-6 z"
       id="path312" />
    <path
       d="m 378,723 c 7,-3 16,-2 19,1 4,3 -2,6 -13,5 -11,0 -14,-3 -6,-6 z"
       id="path314" />
    <path
       d="m 1868,713 c 17,-2 47,-2 65,0 17,2 3,4 -33,4 -36,0 -50,-2 -32,-4 z"
       id="path316" />
    <path
       d="m 2088,713 c 6,-2 18,-2 25,0 6,3 1,5 -13,5 -14,0 -19,-2 -12,-5 z"
       id="path318" />
    <path
       d="m 2210,709 c 60,-10 108,-9 55,2 -22,4 -53,8 -70,7 -22,0 -19,-3 15,-9 z"
       id="path320" />
    <path
       d="m 2630,710 c 8,-5 22,-9 30,-9 10,0 8,3 -5,9 -27,12 -43,12 -25,0 z"
       id="path322" />
    <path
       d="m 918,703 c 7,-3 16,-2 19,1 4,3 -2,6 -13,5 -11,0 -14,-3 -6,-6 z"
       id="path324" />
    <path
       d="m 2488,703 c 7,-3 16,-2 19,1 4,3 -2,6 -13,5 -11,0 -14,-3 -6,-6 z"
       id="path326" />
    <path
       d="m 305,690 c 11,-5 29,-8 40,-8 16,0 15,2 -5,8 -34,11 -60,11 -35,0 z"
       id="path328" />
    <path
       d="m 395,690 c 3,-5 8,-10 11,-10 2,0 4,5 4,10 0,6 -5,10 -11,10 -5,0 -7,-4 -4,-10 z"
       id="path330" />
    <path
       d="m 703,685 c 0,-8 4,-15 9,-15 4,0 8,4 8,9 0,6 -4,12 -8,15 -5,3 -9,-1 -9,-9 z"
       id="path332" />
    <path
       d="m 998,693 c 7,-3 16,-2 19,1 4,3 -2,6 -13,5 -11,0 -14,-3 -6,-6 z"
       id="path334" />
    <path
       d="m 1040,691 c 0,-5 25,-9 56,-8 34,1 49,4 37,8 -27,11 -93,11 -93,0 z"
       id="path336" />
    <path
       d="m 1207,689 c 7,-7 15,-10 18,-7 3,3 -2,9 -12,12 -14,6 -15,5 -6,-5 z"
       id="path338" />
    <path
       d="m 1338,693 c 7,-3 16,-2 19,1 4,3 -2,6 -13,5 -11,0 -14,-3 -6,-6 z"
       id="path340" />
    <path
       d="M 31,673 C 30,660 24,650 15,650 7,650 0,646 0,640 c 0,-5 4,-10 9,-10 16,0 33,29 28,47 -4,14 -5,13 -6,-4 z"
       id="path342" />
    <path
       d="m 808,683 c 6,-2 18,-2 25,0 6,3 1,5 -13,5 -14,0 -19,-2 -12,-5 z"
       id="path344" />
    <path
       d="m 958,683 c 7,-3 16,-2 19,1 4,3 -2,6 -13,5 -11,0 -14,-3 -6,-6 z"
       id="path346" />
    <path
       d="m 1500,680 c -17,-6 -9,-7 25,-3 28,3 52,7 54,9 8,7 -54,2 -79,-6 z"
       id="path348" />
    <path
       d="m 1618,683 c 6,-2 18,-2 25,0 6,3 1,5 -13,5 -14,0 -19,-2 -12,-5 z"
       id="path350" />
    <path
       d="m 1860,680 c -14,-4 29,-7 95,-8 66,-1 127,2 135,8 17,10 -188,10 -230,0 z"
       id="path352" />
    <path
       d="m 2135,680 c 28,-12 45,-12 45,0 0,6 -15,10 -32,9 -28,0 -30,-2 -13,-9 z"
       id="path354" />
    <path
       d="m 2460,680 c 14,-4 34,-8 45,-8 16,0 15,2 -5,8 -14,4 -34,8 -45,8 -16,0 -15,-2 5,-8 z"
       id="path356" />
    <path
       d="m 2698,683 c 7,-3 16,-2 19,1 4,3 -2,6 -13,5 -11,0 -14,-3 -6,-6 z"
       id="path358" />
    <path
       d="m 2790,681 c 11,-8 4,-11 -29,-11 -24,0 -42,-3 -38,-6 3,-4 36,-3 72,1 37,4 65,8 63,10 -2,1 -21,5 -43,9 -29,5 -36,4 -25,-3 z"
       id="path360" />
    <path
       d="m 168,673 c 7,-3 16,-2 19,1 4,3 -2,6 -13,5 -11,0 -14,-3 -6,-6 z"
       id="path362" />
    <path
       d="m 2203,673 c 9,-2 23,-2 30,0 6,3 -1,5 -18,5 -16,0 -22,-2 -12,-5 z"
       id="path364" />
    <path
       d="m 2300,670 c 0,-5 5,-10 10,-10 6,0 10,5 10,10 0,6 -4,10 -10,10 -5,0 -10,-4 -10,-10 z"
       id="path366" />
    <path
       d="m 2573,673 c 9,-2 23,-2 30,0 6,3 -1,5 -18,5 -16,0 -22,-2 -12,-5 z"
       id="path368" />
    <path
       d="m 1098,663 c 6,-2 18,-2 25,0 6,3 1,5 -13,5 -14,0 -19,-2 -12,-5 z"
       id="path370" />
    <path
       d="m 1423,653 c 9,-2 17,-11 17,-19 0,-10 12,-14 43,-13 l 42,2 -40,7 c -22,4 -31,8 -20,10 17,2 17,3 -5,10 -14,4 -32,8 -40,8 -10,0 -9,-2 3,-5 z"
       id="path372" />
    <path
       d="m 1590,651 c 0,-6 4,-13 10,-16 6,-3 7,1 4,9 -7,18 -14,21 -14,7 z"
       id="path374" />
    <path
       d="m 1768,653 c 7,-3 16,-2 19,1 4,3 -2,6 -13,5 -11,0 -14,-3 -6,-6 z"
       id="path376" />
    <path
       d="m 2618,653 c 7,-3 16,-2 19,1 4,3 -2,6 -13,5 -11,0 -14,-3 -6,-6 z"
       id="path378" />
    <path
       d="m 2833,653 c 9,-2 23,-2 30,0 6,3 -1,5 -18,5 -16,0 -22,-2 -12,-5 z"
       id="path380" />
    <path
       d="m 465,630 c -3,-5 -1,-10 4,-10 6,0 11,5 11,10 0,6 -2,10 -4,10 -3,0 -8,-4 -11,-10 z"
       id="path382" />
    <path
       d="m 540,631 c -14,-5 18,-6 70,-4 52,3 100,6 105,8 21,7 -151,3 -175,-4 z"
       id="path384" />
    <path
       d="m 763,633 c 15,-2 37,-2 50,0 12,2 0,4 -28,4 -27,0 -38,-2 -22,-4 z"
       id="path386" />
    <path
       d="m 888,633 c 6,-2 18,-2 25,0 6,3 1,5 -13,5 -14,0 -19,-2 -12,-5 z"
       id="path388" />
    <path
       d="m 1538,633 c 7,-3 16,-2 19,1 4,3 -2,6 -13,5 -11,0 -14,-3 -6,-6 z"
       id="path390" />
    <path
       d="m 1737,628 c -7,-4 18,-8 54,-8 36,0 88,-3 115,-6 27,-4 45,-3 41,2 -10,11 -195,21 -210,12 z"
       id="path392" />
    <path
       d="m 40,612 c 0,-15 4,-20 16,-15 9,3 12,9 7,12 -4,3 -11,10 -15,15 -5,5 -8,0 -8,-12 z"
       id="path394" />
    <path
       d="m 1373,623 c 9,-2 25,-2 35,0 9,3 1,5 -18,5 -19,0 -27,-2 -17,-5 z"
       id="path396" />
    <path
       d="m 2073,620 c 2,-8 14,-16 28,-17 19,-1 20,-1 4,4 -11,3 -24,10 -28,17 -6,7 -7,6 -4,-4 z"
       id="path398" />
    <path
       d="m 2578,623 c 12,-2 32,-2 45,0 12,2 2,4 -23,4 -25,0 -35,-2 -22,-4 z"
       id="path400" />
    <path
       d="m 2818,623 c 12,-2 30,-2 40,0 9,3 -1,5 -23,4 -22,0 -30,-2 -17,-4 z"
       id="path402" />
    <path
       d="m 10,610 c 11,-7 11,-10 2,-10 -7,0 -10,-4 -7,-10 10,-17 25,-11 25,10 0,12 -7,20 -17,20 -15,0 -16,-2 -3,-10 z"
       id="path404" />
    <path
       d="m 2158,613 c 12,-2 32,-2 45,0 12,2 2,4 -23,4 -25,0 -35,-2 -22,-4 z"
       id="path406" />
    <path
       d="m 1195,600 c 3,-5 8,-10 11,-10 2,0 4,5 4,10 0,6 -5,10 -11,10 -5,0 -7,-4 -4,-10 z"
       id="path408" />
    <path
       d="m 938,593 c 7,-3 16,-2 19,1 4,3 -2,6 -13,5 -11,0 -14,-3 -6,-6 z"
       id="path410" />
    <path
       d="m 150,556 c 0,-8 4,-17 9,-20 5,-4 7,3 4,14 -6,23 -13,26 -13,6 z"
       id="path412" />
    <path
       d="m 183,556 c 2,-6 135,-11 313,-13 170,-2 315,-5 322,-8 6,-2 12,0 12,6 0,5 -6,12 -13,15 -25,9 -637,9 -634,0 z"
       id="path414" />
    <path
       d="m 2465,560 c 28,-12 37,-12 30,0 -3,6 -16,10 -28,9 -21,0 -21,-1 -2,-9 z"
       id="path416" />
    <path
       d="m 2605,560 c -3,-5 -1,-10 4,-10 6,0 11,5 11,10 0,6 -2,10 -4,10 -3,0 -8,-4 -11,-10 z"
       id="path418" />
    <path
       d="m 13,545 c 0,-8 4,-15 9,-15 4,0 8,7 8,15 0,8 -4,15 -8,15 -5,0 -9,-7 -9,-15 z"
       id="path420" />
    <path
       d="m 40,535 c 0,-29 3,-30 24,-9 14,13 16,13 16,0 0,-8 -9,-18 -20,-21 -17,-5 -20,-15 -20,-61 0,-30 -4,-54 -10,-54 -5,0 -10,13 -10,29 0,17 -3,32 -7,34 -5,3 -9,-39 -9,-93 l -2,-98 32,-5 c 17,-3 54,-2 81,3 49,7 49,7 -25,9 l -76,1 6,53 5,52 73,1 c 79,0 98,9 77,37 -8,12 -15,14 -20,8 -3,-6 -1,-11 4,-11 6,0 11,-6 11,-13 0,-9 -11,-12 -35,-9 l -35,4 v 65 c 0,73 -12,103 -40,103 -15,0 -20,-7 -20,-25 z m 38,-63 c 0,-15 1,-32 2,-37 4,-19 0,-35 -9,-35 -14,0 -22,72 -9,87 14,18 15,17 16,-15 z"
       id="path422" />
    <path
       d="m 1355,549 c -4,-6 -5,-12 -2,-15 2,-3 7,2 10,11 7,17 1,20 -8,4 z"
       id="path424" />
    <path
       d="m 2091,556 c 11,-10 109,-16 109,-6 0,6 -24,10 -57,10 -31,0 -54,-2 -52,-4 z"
       id="path426" />
    <path
       d="m 2648,553 c 7,-3 16,-2 19,1 4,3 -2,6 -13,5 -11,0 -14,-3 -6,-6 z"
       id="path428" />
    <path
       d="m 1160,540 c 0,-5 7,-10 16,-10 8,0 12,5 9,10 -3,6 -10,10 -16,10 -5,0 -9,-4 -9,-10 z"
       id="path430" />
    <path
       d="m 1670,538 c 0,-12 7,-18 23,-17 15,0 17,2 7,6 -8,3 -18,11 -22,17 -5,7 -8,4 -8,-6 z"
       id="path432" />
    <path
       d="m 848,533 c 7,-3 16,-2 19,1 4,3 -2,6 -13,5 -11,0 -14,-3 -6,-6 z"
       id="path434" />
    <path
       d="m 920,536 c 0,-2 7,-7 16,-10 8,-3 12,-2 9,4 -6,10 -25,14 -25,6 z"
       id="path436" />
    <path
       d="m 1047,504 c 3,-7 14,-16 25,-20 32,-10 32,3 -1,19 -23,12 -28,12 -24,1 z"
       id="path438" />
    <path
       d="m 1155,510 c -3,-5 1,-10 9,-10 9,0 16,5 16,10 0,6 -4,10 -9,10 -6,0 -13,-4 -16,-10 z"
       id="path440" />
    <path
       d="m 2268,513 c 7,-3 16,-2 19,1 4,3 -2,6 -13,5 -11,0 -14,-3 -6,-6 z"
       id="path442" />
    <path
       d="m 2008,503 c 6,-2 18,-2 25,0 6,3 1,5 -13,5 -14,0 -19,-2 -12,-5 z"
       id="path444" />
    <path
       d="m 1730,496 c 0,-2 9,-6 20,-9 11,-3 18,-1 14,4 -5,9 -34,13 -34,5 z"
       id="path446" />
    <path
       d="m 201,469 c -1,-24 1,-25 59,-26 33,0 57,3 54,8 -3,5 2,9 11,9 9,0 13,-4 10,-10 -9,-14 18,-13 33,2 7,7 16,8 24,2 7,-6 25,-11 41,-13 20,-2 27,2 27,16 1,16 2,16 10,2 6,-11 24,-16 55,-17 32,0 43,3 38,11 -4,7 2,5 12,-3 11,-9 16,-10 11,-2 -4,6 -3,12 3,12 5,0 13,-5 16,-10 5,-8 11,-7 21,1 8,6 14,7 14,2 0,-5 20,-10 45,-12 43,-2 45,-1 33,18 -11,17 -22,20 -95,18 -46,-1 -83,-5 -83,-9 0,-5 -9,-3 -20,4 -17,11 -22,10 -30,-2 -6,-10 -10,-11 -10,-3 0,10 -33,12 -135,10 -87,-2 -136,1 -139,8 -2,5 -5,-2 -5,-16 z"
       id="path448" />
    <path
       d="m 1598,483 c 7,-3 16,-2 19,1 4,3 -2,6 -13,5 -11,0 -14,-3 -6,-6 z"
       id="path450" />
    <path
       d="m 164,469 c -3,-6 -1,-16 5,-22 8,-8 11,-5 11,11 0,24 -5,28 -16,11 z"
       id="path452" />
    <path
       d="m 720,471 c 0,-18 26,-31 38,-19 9,9 12,9 12,-2 0,-7 3,-10 7,-7 3,4 12,2 20,-4 7,-7 13,-7 13,-2 0,6 18,9 40,8 26,-2 38,1 34,9 -3,6 0,4 8,-5 7,-9 19,-14 27,-11 8,3 11,0 7,-7 -4,-7 -1,-9 8,-5 12,5 10,10 -12,28 -31,25 -82,32 -94,14 -6,-10 -8,-10 -8,0 0,8 -17,12 -50,12 -27,0 -50,-4 -50,-9 z"
       id="path454" />
    <path
       d="m 946,461 c 5,-5 23,-12 39,-16 30,-6 30,-6 -4,10 -38,17 -49,19 -35,6 z"
       id="path456" />
    <path
       d="m 1105,461 c -3,-5 4,-13 16,-16 28,-9 33,-2 9,13 -11,6 -21,8 -25,3 z"
       id="path458" />
    <path
       d="m 1211,461 c -8,-5 -21,-7 -30,-4 -13,4 -13,3 -2,-5 13,-9 71,2 71,14 0,7 -25,4 -39,-5 z"
       id="path460" />
    <path
       d="m 1290,460 c -14,-4 -18,-9 -10,-10 43,-6 149,-5 175,1 25,6 22,7 -20,8 -27,1 -66,3 -85,6 -19,2 -46,0 -60,-5 z"
       id="path462" />
    <path
       d="m 1640,463 c 0,-4 -24,-6 -54,-5 -30,2 -62,-1 -72,-6 -21,-12 121,-8 150,4 11,4 17,4 14,-2 -6,-9 198,-12 206,-3 3,2 -34,5 -82,7 -48,1 -104,5 -124,8 -21,3 -38,2 -38,-3 z"
       id="path464" />
    <path
       d="m 1014,433 c -26,-26 -21,-39 5,-15 10,10 26,22 37,29 18,11 18,11 -1,10 -11,-1 -30,-12 -41,-24 z"
       id="path466" />
    <path
       d="m 1948,453 c 12,-2 30,-2 40,0 9,3 -1,5 -23,4 -22,0 -30,-2 -17,-4 z"
       id="path468" />
    <path
       d="m 2020,450 c 0,-5 14,-10 30,-10 17,0 30,5 30,10 0,6 -13,10 -30,10 -16,0 -30,-4 -30,-10 z"
       id="path470" />
    <path
       d="m 2258,453 c 7,-3 16,-2 19,1 4,3 -2,6 -13,5 -11,0 -14,-3 -6,-6 z"
       id="path472" />
    <path
       d="m 2338,453 c 12,-2 32,-2 45,0 12,2 2,4 -23,4 -25,0 -35,-2 -22,-4 z"
       id="path474" />
    <path
       d="m 2544,449 c 16,-4 35,-5 43,-1 7,5 -5,8 -30,9 -38,1 -39,0 -13,-8 z"
       id="path476" />
    <path
       d="m 2758,443 c 6,-2 18,-2 25,0 6,3 1,5 -13,5 -14,0 -19,-2 -12,-5 z"
       id="path478" />
    <path
       d="m 1155,420 c 3,-5 11,-10 16,-10 6,0 7,5 4,10 -3,6 -11,10 -16,10 -6,0 -7,-4 -4,-10 z"
       id="path480" />
    <path
       d="m 2847,409 c 7,-7 15,-10 18,-7 3,3 -2,9 -12,12 -14,6 -15,5 -6,-5 z"
       id="path482" />
    <path
       d="m 200,398 c 0,-11 -3,-11 153,-13 109,-2 137,0 137,11 0,10 -29,13 -145,12 -80,-1 -145,-5 -145,-10 z"
       id="path484" />
    <path
       d="m 518,402 c -28,-6 -21,-19 12,-24 17,-3 30,-2 30,2 0,3 18,5 40,3 29,-1 39,1 33,10 -5,9 -4,9 8,0 8,-6 29,-11 47,-11 18,1 35,-2 38,-5 3,-3 17,-2 30,3 13,5 24,6 24,1 0,-4 7,-8 15,-8 8,0 12,3 10,7 -5,9 67,6 81,-3 6,-3 16,-2 23,3 8,4 28,4 45,-1 40,-12 39,-12 27,9 -9,15 -31,17 -228,17 -120,1 -226,-1 -235,-3 z"
       id="path486" />
    <path
       d="m 1315,400 c -3,-5 1,-10 10,-10 9,0 13,5 10,10 -3,6 -8,10 -10,10 -2,0 -7,-4 -10,-10 z"
       id="path488" />
    <path
       d="m 2465,400 c 3,-5 8,-10 11,-10 2,0 4,5 4,10 0,6 -5,10 -11,10 -5,0 -7,-4 -4,-10 z"
       id="path490" />
    <path
       d="m 2040,380 c 0,-5 5,-10 11,-10 5,0 7,5 4,10 -3,6 -8,10 -11,10 -2,0 -4,-4 -4,-10 z"
       id="path492" />
    <path
       d="m 190,370 c 0,-5 5,-10 11,-10 5,0 7,5 4,10 -3,6 -8,10 -11,10 -2,0 -4,-4 -4,-10 z"
       id="path494" />
    <path
       d="m 1210,370 c 13,-9 13,-10 0,-11 -8,-1 -2,-4 14,-8 35,-8 196,-2 196,7 0,4 -41,6 -91,4 -56,-2 -96,1 -102,7 -6,6 -16,11 -21,11 -6,0 -4,-5 4,-10 z"
       id="path496" />
    <path
       d="m 1960,376 c 0,-2 11,-6 25,-8 13,-3 22,-1 19,3 -5,9 -44,13 -44,5 z"
       id="path498" />
    <path
       d="m 1001,354 c 0,-11 3,-14 6,-6 3,7 2,16 -1,19 -3,4 -6,-2 -5,-13 z"
       id="path500" />
    <path
       d="m 1439,357 c 5,-5 26,-7 47,-5 l 39,3 -47,5 c -26,3 -43,1 -39,-3 z"
       id="path502" />
    <path
       d="m 1707,359 c 17,-15 51,-19 56,-7 3,9 -6,13 -30,14 -18,0 -30,-3 -26,-7 z"
       id="path504" />
    <path
       d="m 648,353 c 7,-3 16,-2 19,1 4,3 -2,6 -13,5 -11,0 -14,-3 -6,-6 z"
       id="path506" />
    <path
       d="m 688,353 c 6,-2 18,-2 25,0 6,3 1,5 -13,5 -14,0 -19,-2 -12,-5 z"
       id="path508" />
    <path
       d="m 1063,353 c 9,-2 23,-2 30,0 6,3 -1,5 -18,5 -16,0 -22,-2 -12,-5 z"
       id="path510" />
    <path
       d="m 1600,350 c 0,-13 11,-13 30,0 12,8 11,10 -7,10 -13,0 -23,-4 -23,-10 z"
       id="path512" />
    <path
       d="m 1840,352 c 0,-4 19,-9 43,-10 31,-2 38,0 27,8 -18,12 -70,13 -70,2 z"
       id="path514" />
    <path
       d="m 2140,350 c -13,-9 -13,-10 0,-10 8,0 22,5 30,10 13,9 13,10 0,10 -8,0 -22,-5 -30,-10 z"
       id="path516" />
    <path
       d="m 2218,353 c 7,-3 16,-2 19,1 4,3 -2,6 -13,5 -11,0 -14,-3 -6,-6 z"
       id="path518" />
    <path
       d="m 2405,350 c -3,-5 1,-10 9,-10 9,0 16,5 16,10 0,6 -4,10 -9,10 -6,0 -13,-4 -16,-10 z"
       id="path520" />
    <path
       d="m 2538,353 c 6,-2 18,-2 25,0 6,3 1,5 -13,5 -14,0 -19,-2 -12,-5 z"
       id="path522" />
    <path
       d="m 2660,349 c 0,-5 11,-9 25,-9 14,0 25,2 25,4 0,2 -11,6 -25,8 -14,3 -25,1 -25,-3 z"
       id="path524" />
    <path
       d="m 2815,350 c 3,-5 13,-10 21,-10 8,0 12,5 9,10 -3,6 -13,10 -21,10 -8,0 -12,-4 -9,-10 z"
       id="path526" />
    <path
       d="m 2028,343 c 6,-2 18,-2 25,0 6,3 1,5 -13,5 -14,0 -19,-2 -12,-5 z"
       id="path528" />
    <path
       d="m 798,328 c 6,-6 18,-8 28,-6 14,3 12,5 -9,10 -19,3 -25,2 -19,-4 z"
       id="path530" />
    <path
       d="m 1458,303 c 7,-3 16,-2 19,1 4,3 -2,6 -13,5 -11,0 -14,-3 -6,-6 z"
       id="path532" />
    <path
       d="m 2585,300 c -3,-5 3,-10 15,-10 12,0 18,5 15,10 -3,6 -10,10 -15,10 -5,0 -12,-4 -15,-10 z"
       id="path534" />
    <path
       d="m 2718,303 c 7,-3 16,-2 19,1 4,3 -2,6 -13,5 -11,0 -14,-3 -6,-6 z"
       id="path536" />
    <path
       d="m 227,255 6,-46 -110,7 c -73,4 -112,3 -117,-4 -8,-14 214,-14 232,0 8,7 208,9 628,6 338,-3 611,-2 607,2 -4,3 -26,20 -48,37 l -40,30 -582,7 -583,7 z m 307,3 c 4,7 30,12 62,12 42,0 54,-3 54,-15 0,-13 -4,-14 -20,-5 -11,6 -25,8 -31,4 -14,-8 -89,-13 -106,-6 -19,6 -16,20 5,24 9,2 20,-3 23,-11 4,-11 8,-11 13,-3 z m 433,-3 c -7,-16 -37,-21 -37,-5 0,10 32,31 39,25 2,-2 1,-11 -2,-20 z m 156,18 c -7,-2 -13,-10 -13,-17 0,-8 -13,-13 -30,-14 -42,-1 -40,26 3,31 48,6 53,6 40,0 z m 32,-3 c -4,-6 3,-9 16,-7 12,1 24,-4 27,-12 3,-10 -2,-12 -21,-7 -14,3 -27,2 -29,-4 -2,-5 -9,-6 -17,-1 -12,8 -12,11 0,25 15,17 34,22 24,6 z m 160,-4 c 27,2 35,-1 35,-14 1,-16 2,-16 13,0 10,13 17,14 32,5 19,-11 18,-12 -10,-17 -16,-3 -46,-2 -65,3 -23,6 -35,6 -38,-1 -2,-7 -12,-7 -33,0 -31,11 -30,33 2,23 12,-4 19,-2 20,7 0,8 2,9 5,2 3,-6 20,-10 39,-8 z m -975,-6 c 0,-5 -22,-10 -50,-10 -27,0 -50,5 -50,10 0,6 23,10 50,10 28,0 50,-4 50,-10 z m 60,-4 c 0,-9 -8,-12 -25,-8 -14,2 -25,8 -25,13 0,5 11,9 25,9 14,0 25,-6 25,-14 z m 70,4 c 0,-5 -13,-10 -30,-10 -16,0 -30,5 -30,10 0,6 14,10 30,10 17,0 30,-4 30,-10 z m 314,-1 c -4,-6 -19,-9 -36,-5 -16,3 -27,2 -24,-2 3,-5 -9,-8 -26,-7 -18,1 -34,7 -36,13 -2,8 16,12 63,12 46,0 64,-3 59,-11 z m 41,-1 c -11,-6 -23,-16 -27,-22 -9,-13 -10,-3 -2,18 3,9 16,16 28,16 21,-1 21,-1 1,-12 z m 92,-1 c -5,-15 -59,-15 -64,0 -3,7 9,11 32,11 23,0 35,-4 32,-11 z m 121,1 c -5,-14 -58,-22 -58,-8 0,10 18,18 43,19 11,1 17,-4 15,-11 z"
       id="path538" />
    <path
       d="m 1528,283 c 6,-2 18,-2 25,0 6,3 1,5 -13,5 -14,0 -19,-2 -12,-5 z"
       id="path540" />
    <path
       d="m 1818,283 c 7,-3 16,-2 19,1 4,3 -2,6 -13,5 -11,0 -14,-3 -6,-6 z"
       id="path542" />
    <path
       d="m 1938,283 c 7,-3 16,-2 19,1 4,3 -2,6 -13,5 -11,0 -14,-3 -6,-6 z"
       id="path544" />
    <path
       d="m 2185,280 c -3,-5 3,-10 15,-10 12,0 18,5 15,10 -3,6 -10,10 -15,10 -5,0 -12,-4 -15,-10 z"
       id="path546" />
    <path
       d="m 170,270 c 0,-16 28,-32 35,-20 4,6 4,14 1,18 -10,9 -36,11 -36,2 z"
       id="path548" />
    <path
       d="m 1478,245 c 17,-14 33,-25 37,-25 3,0 -7,11 -23,25 -17,14 -33,25 -37,25 -3,0 7,-11 23,-25 z"
       id="path550" />
    <path
       d="m 1810,250 c 0,-5 7,-10 15,-10 8,0 15,5 15,10 0,6 -7,10 -15,10 -8,0 -15,-4 -15,-10 z"
       id="path552" />
    <path
       d="m 1880,250 c 0,-6 7,-10 15,-10 8,0 15,2 15,4 0,2 -7,6 -15,10 -8,3 -15,1 -15,-4 z"
       id="path554" />
    <path
       d="m 120,246 c 0,-2 11,-6 25,-8 13,-3 22,-1 19,3 -5,9 -44,13 -44,5 z"
       id="path556" />
    <path
       d="m 2228,233 c 6,-2 18,-2 25,0 6,3 1,5 -13,5 -14,0 -19,-2 -12,-5 z"
       id="path558" />
    <path
       d="m 1990,220 c -9,-6 -10,-10 -3,-10 6,0 15,5 18,10 8,12 4,12 -15,0 z"
       id="path560" />
    <path
       d="m 2080,210 c 0,-5 -51,-11 -117,-13 l -118,-3 126,-2 c 106,-2 126,0 126,13 0,8 -4,15 -9,15 -4,0 -8,-4 -8,-10 z"
       id="path562" />
    <path
       d="m 2299,205 c 37,-17 60,-20 46,-6 -6,5 -26,12 -45,15 l -35,7 z"
       id="path564" />
    <path
       d="m 1510,199 c -25,-3 38,-7 139,-7 101,-1 181,1 177,5 -8,9 -254,10 -316,2 z"
       id="path566" />
    <path
       d="m 888,193 c 7,-3 16,-2 19,1 4,3 -2,6 -13,5 -11,0 -14,-3 -6,-6 z"
       id="path568" />
    <path
       d="m 2470,190 c -9,-6 -10,-10 -3,-10 6,0 15,5 18,10 8,12 4,12 -15,0 z"
       id="path570" />
    <path
       d="m 1426,183 c -3,-3 16,-19 42,-36 26,-16 50,-35 54,-41 5,-7 8,-7 8,0 0,21 -91,89 -104,77 z"
       id="path572" />
    <path
       d="m 2578,183 c 12,-2 32,-2 45,0 12,2 2,4 -23,4 -25,0 -35,-2 -22,-4 z"
       id="path574" />
    <path
       d="m 2758,183 c 23,-2 59,-2 80,0 20,2 1,4 -43,4 -44,0 -61,-2 -37,-4 z"
       id="path576" />
    <path
       d="m 80,161 c 0,-5 5,-13 10,-16 6,-3 10,-2 10,4 0,5 -4,13 -10,16 -5,3 -10,2 -10,-4 z"
       id="path578" />
    <path
       d="m 878,163 c 7,-3 16,-2 19,1 4,3 -2,6 -13,5 -11,0 -14,-3 -6,-6 z"
       id="path580" />
    <path
       d="m 1020,160 c -20,-6 -21,-8 -5,-8 11,0 29,3 40,8 25,11 -1,11 -35,0 z"
       id="path582" />
    <path
       d="m 1328,163 c 12,-2 30,-2 40,0 9,3 -1,5 -23,4 -22,0 -30,-2 -17,-4 z"
       id="path584" />
    <path
       d="m 1778,163 c 7,-3 16,-2 19,1 4,3 -2,6 -13,5 -11,0 -14,-3 -6,-6 z"
       id="path586" />
    <path
       d="m 1898,163 c 7,-3 16,-2 19,1 4,3 -2,6 -13,5 -11,0 -14,-3 -6,-6 z"
       id="path588" />
    <path
       d="m 2390,160 c 8,-5 20,-10 25,-10 6,0 3,5 -5,10 -8,5 -19,10 -25,10 -5,0 -3,-5 5,-10 z"
       id="path590" />
    <path
       d="m 328,153 c 7,-3 16,-2 19,1 4,3 -2,6 -13,5 -11,0 -14,-3 -6,-6 z"
       id="path592" />
    <path
       d="m 368,153 c 6,-2 18,-2 25,0 6,3 1,5 -13,5 -14,0 -19,-2 -12,-5 z"
       id="path594" />
    <path
       d="m 695,150 c 3,-5 11,-10 16,-10 6,0 7,5 4,10 -3,6 -11,10 -16,10 -6,0 -7,-4 -4,-10 z"
       id="path596" />
    <path
       d="m 2568,153 c 6,-2 18,-2 25,0 6,3 1,5 -13,5 -14,0 -19,-2 -12,-5 z"
       id="path598" />
    <path
       d="m 2793,153 c 15,-2 39,-2 55,0 15,2 2,4 -28,4 -30,0 -43,-2 -27,-4 z"
       id="path600" />
    <path
       d="m 610,140 c -9,-6 -10,-10 -3,-10 6,0 15,5 18,10 8,12 4,12 -15,0 z"
       id="path602" />
    <path
       d="m 928,143 c 6,-2 18,-2 25,0 6,3 1,5 -13,5 -14,0 -19,-2 -12,-5 z"
       id="path604" />
    <path
       d="m 1613,143 c 9,-2 23,-2 30,0 6,3 -1,5 -18,5 -16,0 -22,-2 -12,-5 z"
       id="path606" />
    <path
       d="m 1803,138 c -6,-11 29,-10 46,1 10,7 6,9 -13,8 -16,-1 -30,-5 -33,-9 z"
       id="path608" />
    <path
       d="m 1933,143 c 9,-2 23,-2 30,0 6,3 -1,5 -18,5 -16,0 -22,-2 -12,-5 z"
       id="path610" />
    <path
       d="m 2008,143 c 7,-3 16,-2 19,1 4,3 -2,6 -13,5 -11,0 -14,-3 -6,-6 z"
       id="path612" />
    <path
       d="m 58,133 c 7,-3 16,-2 19,1 4,3 -2,6 -13,5 -11,0 -14,-3 -6,-6 z"
       id="path614" />
    <path
       d="m 158,133 c 7,-3 16,-2 19,1 4,3 -2,6 -13,5 -11,0 -14,-3 -6,-6 z"
       id="path616" />
    <path
       d="m 198,123 c 7,-3 16,-2 19,1 4,3 -2,6 -13,5 -11,0 -14,-3 -6,-6 z"
       id="path618" />
    <path
       d="m 1648,123 c 7,-3 16,-2 19,1 4,3 -2,6 -13,5 -11,0 -14,-3 -6,-6 z"
       id="path620" />
    <path
       d="m 2488,110 c 18,-11 37,-20 42,-20 5,0 15,-7 24,-15 8,-8 17,-11 20,-7 3,5 -19,21 -49,36 -64,31 -84,34 -37,6 z"
       id="path622" />
    <path
       d="m 368,113 c 6,-2 18,-2 25,0 6,3 1,5 -13,5 -14,0 -19,-2 -12,-5 z"
       id="path624" />
    <path
       d="m 550,91 c 4,-16 13,-38 20,-48 11,-17 11,-17 5,2 -3,11 -9,32 -12,48 -3,15 -9,27 -14,27 -4,0 -4,-13 1,-29 z"
       id="path626" />
    <path
       d="m 1200,110 c 0,-5 9,-10 20,-10 11,0 20,5 20,10 0,6 -9,10 -20,10 -11,0 -20,-4 -20,-10 z"
       id="path628" />
    <path
       d="m 1775,100 c 3,-5 15,-10 26,-10 11,0 17,5 14,10 -3,6 -15,10 -26,10 -11,0 -17,-4 -14,-10 z"
       id="path630" />
    <path
       d="m 1540,92 c 0,-4 10,-14 21,-22 12,-8 30,-24 40,-34 11,-11 19,-16 19,-10 0,9 -66,74 -75,74 -3,0 -5,-4 -5,-8 z"
       id="path632" />
    <path
       d="m 2428,93 c 7,-3 16,-2 19,1 4,3 -2,6 -13,5 -11,0 -14,-3 -6,-6 z"
       id="path634" />
    <path
       d="m 225,80 c -3,-5 -1,-10 4,-10 6,0 11,5 11,10 0,6 -2,10 -4,10 -3,0 -8,-4 -11,-10 z"
       id="path636" />
    <path
       d="m 1625,60 c -3,-5 1,-10 10,-10 9,0 13,5 10,10 -3,6 -8,10 -10,10 -2,0 -7,-4 -10,-10 z"
       id="path638" />
    <path
       d="m 40,50 c 8,-5 20,-10 25,-10 6,0 3,5 -5,10 -8,5 -19,10 -25,10 -5,0 -3,-5 5,-10 z"
       id="path640" />
    <path
       d="m 1418,53 c 7,-3 16,-2 19,1 4,3 -2,6 -13,5 -11,0 -14,-3 -6,-6 z"
       id="path642" />
    <path
       d="m 2598,53 c 7,-3 16,-2 19,1 4,3 -2,6 -13,5 -11,0 -14,-3 -6,-6 z"
       id="path644" />
    <path
       d="m 1230,40 c 0,-5 5,-10 11,-10 5,0 7,5 4,10 -3,6 -8,10 -11,10 -2,0 -4,-4 -4,-10 z"
       id="path646" />
    <path
       d="M 48,3 C 55,0 64,1 67,4 71,7 65,10 54,9 43,9 40,6 48,3 Z"
       id="path648" />
    <path
       d="m 98,3 c 7,-3 16,-2 19,1 4,3 -2,6 -13,5 C 93,9 90,6 98,3 Z"
       id="path650" />
  </g>
  <path
     style="fill:#ff0000;stroke-width:0.48513"
     d="m 99.353161,120.16086 c 0,-0.42576 -0.382042,-1.42286 -0.848977,-2.21575 l -0.848978,-1.44164 1.960695,-1.78656 c 1.078389,-0.98261 2.824849,-2.49774 3.881039,-3.36696 l 1.92035,-1.5804 -2.24701,0.29277 c -2.7895,0.36345 -2.9761,0.10163 -3.315069,-4.6515 -0.236122,-3.31084 -0.357727,-3.65242 -1.35051,-3.79342 -0.600067,-0.0852 -5.948625,1.0542 -11.885685,2.53207 -12.107626,3.01384 -23.009981,5.29577 -23.589734,4.93746 -0.211331,-0.13061 -0.286704,-0.90201 -0.167496,-1.71423 0.257046,-1.75137 -0.0014,-1.81134 -1.919538,-0.4455 -1.276949,0.90926 -1.590774,0.95495 -2.653374,0.38626 -0.84006,-0.44959 -1.305798,-0.48673 -1.537431,-0.12262 -0.191955,0.30174 -1.766532,0.49716 -3.728208,0.46271 -1.867751,-0.0328 -3.777951,0.12745 -4.244889,0.35611 -0.65767,0.32207 -0.848977,0.20649 -0.848977,-0.51289 0,-1.70107 4.639208,-2.56523 28.137545,-5.24125 8.404882,-0.95716 17.241277,-2.07309 19.63644,-2.479837 3.575055,-0.607125 4.391906,-0.624877 4.561826,-0.09914 0.11385,0.352237 1.17766,1.513657 2.36403,2.580937 1.18637,1.06729 2.80273,3.21436 3.5919,4.77127 l 1.43487,2.83074 -2.12295,2.2696 c -1.16761,1.24828 -2.94539,3.74027 -3.95059,5.53775 -1.910904,3.41703 -2.229279,3.7732 -2.229279,2.49402 z m 3.395909,-12.59884 c 0,-1.03083 -0.89671,-2.63633 -1.47246,-2.63633 -0.52555,0 -0.64657,2.57057 -0.14464,3.0725 0.60187,0.60187 1.6171,0.32804 1.6171,-0.43617 z"
     id="path660" />
  <path
     style="fill:#ff0000;stroke-width:0.48513"
     d="m 198.22916,103.83415 c -0.15006,-1.55641 -0.18394,-1.57645 -2.63663,-1.55932 l -2.48463,0.0174 0.97329,-1.31644 c 1.18446,-1.602062 0.84295,-2.723109 -1.02824,-3.375414 -0.9231,-0.321788 -1.82684,-1.274498 -2.65852,-2.80257 -1.4846,-2.727698 -2.85572,-3.475958 -7.00296,-3.821708 -2.73987,-0.22842 -3.35132,-0.09693 -6.14629,1.321718 -3.80517,1.931407 -9.30831,2.641875 -10.05995,1.29876 -0.57377,-1.025265 -2.88062,-1.032045 -10.59535,-0.03113 -6.44148,0.835717 -9.36879,1.668615 -10.89298,3.09933 -0.54124,0.50805 -2.02686,1.20243 -3.30138,1.543072 -2.14983,0.57459 -2.46733,0.537405 -4.39295,-0.514515 -2.03304,-1.110592 -2.19456,-1.122472 -7.87042,-0.578842 -8.74271,0.837367 -13.80281,1.943332 -15.0504,3.289499 -1.37642,1.48518 -3.599,1.45573 -6.92314,-0.0917 -1.4273,-0.664447 -3.22835,-1.208084 -4.00232,-1.208084 -0.77397,0 -1.40722,-0.21831 -1.40722,-0.48513 0,-0.26682 0.54791,-0.48513 1.21757,-0.48513 0.66967,0 1.59142,-0.436613 2.04834,-0.97026 0.95983,-1.120995 2.07052,-1.27896 2.07052,-0.294465 0,1.378507 3.99505,1.7721 5.60756,0.552457 0.55759,-0.42174 2.03993,-0.71856 3.63417,-0.727695 1.48086,-0.0085 2.89986,-0.216067 3.15335,-0.461302 0.81594,-0.789398 6.04207,-1.503203 16.38632,-2.238128 5.55713,-0.394807 10.48468,-0.921637 10.9501,-1.17072 1.26667,-0.677902 6.18347,-1.407765 14.84564,-2.203725 4.26914,-0.39228 12.56487,-1.297027 18.43494,-2.010532 11.72334,-1.42497 14.44275,-1.338368 16.61378,0.529065 1.03172,0.887452 1.31399,1.558162 1.31399,3.122257 0,2.122455 0.48459,2.621423 0.99231,1.021748 0.16937,-0.53364 0.56612,-0.969443 0.88167,-0.968445 0.85093,0.003 3.72707,1.85067 3.72707,2.39472 0,0.258652 -0.7095,0.572962 -1.57668,0.698452 -7.39045,1.069538 -8.30949,1.71171 -5.95974,4.164315 1.70784,1.782602 2.19999,1.847212 2.19999,0.288848 0,-0.651308 0.25014,-1.338795 0.55588,-1.52775 0.39121,-0.241785 0.46033,0.0372 0.23332,0.941625 -0.3971,1.582199 0.58342,1.746539 1.87901,0.314925 1.29698,-1.433138 1.86896,-1.178243 0.81647,0.363847 -0.5008,0.733757 -1.49282,2.261917 -2.2045,3.395907 -1.5512,2.47172 -2.13773,2.59327 -2.34099,0.48513 z m -84.77533,-3.77683 c 1.27604,-0.682909 1.18285,-1.438317 -0.17744,-1.438317 -1.10346,0 -2.28011,0.80112 -2.28011,1.552417 0,0.54521 1.34204,0.48291 2.45755,-0.1141 z m 31.25899,-4.834227 c -0.1649,-0.26682 -0.92898,-0.48513 -1.69795,-0.48513 -0.76897,0 -1.53305,0.21831 -1.69796,0.48513 -0.18134,0.293423 0.48964,0.48513 1.69796,0.48513 1.20832,0 1.8793,-0.191707 1.69795,-0.48513 z m 53.12176,-0.460807 c 0,-0.817103 -2.8829,-4.761113 -3.71301,-5.07966 -1.07757,-0.413498 -3.07881,1.508445 -3.07881,2.956815 0,1.260165 0.84822,1.52562 1.27995,0.400567 0.40596,-1.057927 1.1457,-0.891217 1.1457,0.258195 0,1.037093 1.38988,1.841048 3.27462,1.89414 0.60035,0.01695 1.09155,-0.17661 1.09155,-0.430057 z"
     id="path662" />
  <path
     style="fill:#ff0000;stroke-width:0.48513"
     d=""
     id="path664" />
  <path
     style="fill:#ff0000;stroke-width:0.48513"
     d="m 202.15882,88.937883 c -1.44029,-0.436477 -3.83945,-1.925107 -3.83841,-2.38164 3.9e-4,-0.169432 1.58312,-0.36804 3.51719,-0.441352 6.49486,-0.246195 16.96281,-1.12512 39.41612,-3.309525 29.76252,-2.895488 28.66322,-2.801033 28.32733,-2.434095 -0.51001,0.55713 -7.80315,1.644937 -27.8422,4.152825 -10.67286,1.335705 -23.40833,2.979555 -28.30105,3.652995 -9.65984,1.3296 -9.44897,1.31538 -11.27898,0.760792 z"
     id="path666" />
  <path
     style="fill:#ff0000;stroke-width:0.48513"
     d=""
     id="path668" />
  <path
     style="fill:#ff0000;stroke-width:0.48513"
     d="m 107.60037,137.9741 c -3.05691,-1.00402 -5.4432,-2.66825 -7.24189,-5.05061 -2.779376,-3.68125 -4.554491,-7.83816 -4.805861,-11.2542 -0.194775,-2.6469 -0.14334,-2.84577 0.58059,-2.24496 0.436867,0.36256 0.794302,0.92057 0.794302,1.24001 0,0.31945 0.545768,1.05535 1.212825,1.63534 0.919515,0.79951 1.212825,1.52852 1.212825,3.0144 0,3.7684 3.234439,8.65994 7.115539,10.76103 4.34327,2.35128 8.89344,2.21717 12.88568,-0.37981 2.08936,-1.35915 2.70176,-1.49982 1.80021,-0.41351 -1.43082,1.72403 -4.51529,2.79789 -8.46035,2.94546 -2.13457,0.0799 -4.42681,-0.0341 -5.09387,-0.25315 z"
     id="path670" />
  <path
     style="fill:#ff0000;stroke-width:0.48513"
     d="m 205.83922,119.78883 c -6.79174,-1.78689 -12.12799,-5.68116 -14.63098,-10.67733 -0.6855,-1.36832 -1.60351,-2.90192 -2.04003,-3.408 -0.76905,-0.89161 -0.7109,-0.91172 1.87455,-0.64825 1.46751,0.14955 3.86614,0.67277 5.33028,1.16272 2.21785,0.74217 2.7311,1.13367 3.07581,2.34621 2.44371,8.5959 8.2896,11.78853 17.79093,9.7162 0.67798,-0.14787 0.30372,0.17323 -0.84867,0.72814 -2.60769,1.25566 -7.39852,1.60994 -10.55189,0.78031 z m -4.61098,-2.85616 c -0.001,-0.0667 -0.54183,-1.43114 -1.20131,-3.03206 -0.65949,-1.60094 -1.20424,-3.40198 -1.21058,-4.00233 -0.0102,-0.96969 -0.25693,-1.09154 -2.20982,-1.09154 -2.61489,0 -3.50625,1.17413 -1.76772,2.32847 0.58038,0.38535 1.05525,0.98294 1.05525,1.32795 0,0.66323 4.20887,4.59079 4.9196,4.59079 0.22925,0 0.41581,-0.0546 0.41458,-0.12128 z"
     id="path672" />
  <path
     style="fill:#ff0000;stroke-width:0.48513"
     d=""
     id="path674" />
  <path
     style="fill:#ff0000;stroke-width:0.48513"
     d="m 269.51255,79.136846 c -0.54584,-0.574335 -1.53494,-0.893303 -2.77005,-0.893303 h -1.92107 l 2.28965,-3.032062 c 1.25931,-1.66764 2.9419,-4.066411 3.73909,-5.330603 2.8543,-4.526385 3.49748,-2.8551 1.44466,3.753923 -0.66301,2.134575 -1.2055,4.359352 -1.20554,4.943955 -9e-5,1.43688 -0.55492,1.63326 -1.57674,0.55809 z"
     id="path676" />
  <path
     style="fill:#ff0000;stroke-width:0.48513"
     d="M 34.891002,73.170386 C 35.4621,72.599283 57.070461,69.07126 64.908923,68.269315 69.915445,67.75711 68.130524,68.37919 60.773564,69.710568 46.658397,72.264985 34.120405,73.940981 34.891002,73.170386 Z"
     id="path678" />
  <path
     style="fill:#ff0000;stroke-width:0.48513"
     d="m 42.592937,98.393508 c 0,-0.853117 3.317223,-1.437442 11.36195,-2.001397 9.739991,-0.682808 16.914451,-1.527953 37.071677,-4.367033 6.760282,-0.952162 12.393306,-1.62933 12.517826,-1.504807 0.34151,0.341512 -7.361479,1.673265 -16.053446,2.775442 -4.256228,0.539715 -9.066405,1.289235 -10.689278,1.6656 -8.131748,1.885883 -34.208729,4.502205 -34.208729,3.432195 z"
     id="path680" />
  <path
     style="fill:#ff0000;stroke-width:0.48513"
     d="m 110.57095,134.9836 c -4.01665,-0.90126 -8.31134,-6.01639 -8.3043,-9.89071 0.0104,-5.73262 4.81299,-10.46459 10.62074,-10.46459 4.59672,0 9.73016,4.93776 10.93662,10.51973 0.28424,1.31514 0.14888,1.66603 -0.91049,2.36016 -0.68441,0.44844 -1.24437,1.19741 -1.24437,1.66438 0,1.3442 -1.65329,3.09731 -4.20041,4.45405 -2.78901,1.48557 -4.67295,1.8562 -6.89779,1.35698 z m 4.72264,-1.88522 c 2.06535,-1.05366 5.13213,-4.23176 5.64605,-5.85098 0.58809,-1.85291 -0.19421,-5.42081 -1.24904,-5.69666 -0.51273,-0.13408 -0.93223,-0.65078 -0.93223,-1.14822 0,-1.14737 -1.73593,-1.65323 -5.63576,-1.64229 -1.85016,0.005 -3.28251,0.26973 -3.80406,0.70259 -0.46008,0.38184 -1.56972,0.64488 -2.46585,0.58452 -1.24788,-0.084 -1.7628,0.13966 -2.19942,0.95551 -0.81898,1.53027 -0.71267,6.74858 0.17214,8.45003 2.16773,4.16838 6.49164,5.67417 10.46817,3.6455 z m -6.3285,-14.71032 c 0.112,-0.5876 -0.14786,-0.84898 -0.84402,-0.84898 -0.5532,0 -1.00583,0.0913 -1.00583,0.20288 0,0.1116 -0.13988,0.56742 -0.31084,1.01295 -0.24511,0.63874 -0.0666,0.77539 0.84402,0.6461 0.63517,-0.0902 1.22768,-0.54602 1.31667,-1.01295 z"
     id="path682" />
  <path
     style="fill:#ff0000;stroke-width:0.48513"
     d=""
     id="path684" />
  <path
     style="fill:#ff0000;stroke-width:0.48513"
     d="m 206.20065,114.41131 c -2.99201,-2.51761 -3.85995,-6.9127 -2.11272,-10.69844 2.15139,-4.661447 7.64888,-6.854589 12.00301,-4.788422 2.31081,1.096552 4.82614,4.194172 5.46457,6.729592 0.75431,2.99566 0.68489,3.54389 -0.6018,4.75253 -0.62555,0.58761 -1.28464,1.66873 -1.46463,2.40249 -0.222,0.905 -0.64127,1.33411 -1.30351,1.33411 -1.43515,0 -1.66723,-1.2445 -0.50709,-2.71938 0.55918,-0.71088 1.01669,-1.92096 1.01669,-2.68906 0,-0.7681 0.26319,-1.81799 0.58488,-2.33309 0.80963,-1.29642 -0.68275,-2.93134 -2.67578,-2.93134 -1.37923,0 -1.41337,-0.0464 -0.65251,-0.88717 1.27515,-1.40902 0.9675,-1.67774 -1.63452,-1.42772 -2.40947,0.23152 -2.42755,0.22304 -1.57668,-0.74004 0.846,-0.957552 0.83245,-0.968764 -0.79098,-0.654724 -2.11203,0.408554 -3.08568,1.224694 -2.79359,2.341664 0.17277,0.66067 -0.044,0.88286 -0.86134,0.88286 -1.36456,0 -2.5863,1.31491 -3.19554,3.43923 -0.57849,2.01705 -0.24892,3.17109 0.99875,3.49737 0.77091,0.2016 0.95419,0.6698 0.95419,2.4376 0,1.31153 0.24293,2.27483 0.60641,2.40465 0.33353,0.11912 0.47009,0.36459 0.30349,0.5455 -0.16662,0.1809 -0.9592,-0.22329 -1.7613,-0.89821 z"
     id="path688" />
  <path
     style="fill:#ff0000;stroke-width:0.48513"
     d="m 53.80436,137.04099 c 0.03082,-2.02441 -0.184249,-3.79339 -0.50871,-4.18434 -0.384968,-0.46386 -0.401798,-0.77636 -0.05341,-0.99168 0.725842,-0.44859 0.62876,-3.8897 -0.161668,-5.73042 -0.368696,-0.85859 -2.354794,-3.51315 -4.413552,-5.89901 -4.28549,-4.96639 -4.749892,-5.88388 -4.109099,-8.1182 0.72192,-2.51719 0.541782,-4.86956 -0.504279,-6.58523 -1.040211,-1.70607 -1.973135,-1.98518 -2.900506,-0.86777 -0.323588,0.3899 -1.059821,0.84907 -1.636074,1.02037 -0.576254,0.17129 -2.521317,1.75663 -4.322362,3.52297 -2.055185,2.01557 -3.274628,2.91498 -3.274628,2.41522 0,-0.43795 -0.122246,-1.11485 -0.271656,-1.50421 -0.193567,-0.50443 0.194459,-0.79537 1.349856,-1.01212 1.200378,-0.2252 1.757783,-0.66522 2.146203,-1.69427 0.401652,-1.0641 1.462158,-1.85928 4.522439,-3.391 2.198762,-1.10051 4.17643,-1.8905 4.39482,-1.75553 0.21839,0.13497 0.538776,0.89058 0.711969,1.67912 0.173193,0.78854 0.858647,2.23498 1.52323,3.21429 0.853227,1.2573 1.056795,1.93212 0.692688,2.29622 -0.283606,0.28361 -0.515645,0.81522 -0.515645,1.18136 0,0.54517 1.000958,0.60408 5.527643,0.32532 3.040204,-0.18721 6.565904,-0.18469 7.834889,0.005 l 2.307244,0.34599 -0.338295,5.9022 c -0.186062,3.24621 -0.61139,7.17835 -0.945173,8.73808 -0.525575,2.45596 -0.692945,2.73218 -1.249304,2.0618 -0.353334,-0.42573 -1.080875,-0.77407 -1.616759,-0.77407 -0.833959,0 -0.9364,0.23376 -0.711037,1.62251 0.247563,1.52555 0.189594,1.60842 -0.970098,1.38673 -0.903227,-0.17266 -1.173658,-0.0551 -1.010236,0.4393 0.122737,0.37128 0.882577,0.78422 1.688532,0.91763 1.463813,0.24231 1.46477,0.24463 0.899051,2.18308 -0.509022,1.74419 -0.603139,1.83009 -0.930215,0.84898 -0.612598,-1.83756 -1.13757,-1.22482 -1.371935,1.6013 -0.133575,1.61075 -0.5476,3.01714 -1.030311,3.49985 -0.752578,0.75258 -0.803399,0.5705 -0.753615,-2.70007 z m 5.176685,-18.6429 c 0.148885,-6.13143 -0.225893,-7.1657 -2.596552,-7.1657 -1.385402,0 -1.380899,-0.0165 -0.472385,1.73462 0.467482,0.90108 0.609019,2.06641 0.419189,3.45137 -0.237016,1.72922 -0.149297,2.09096 0.507038,2.09096 0.647787,0 0.793636,0.54235 0.793636,2.95121 0,2.1449 0.16568,2.89621 0.606413,2.74991 0.42765,-0.14195 0.646577,-1.85536 0.742661,-5.81237 z m -4.363392,0.99933 c 0.164812,-4.89291 -0.365777,-6.70964 -1.959597,-6.70964 -0.614288,0 -1.60208,0.33984 -2.195092,0.75521 -0.97586,0.68351 -1.078205,0.68351 -1.078205,0 0,-0.41537 -0.278888,-0.75521 -0.619751,-0.75521 -0.856839,0 -2.77616,1.39868 -2.77616,2.02309 0,0.29131 0.615547,0.42234 1.425583,0.30345 1.337043,-0.19623 1.408642,-0.12452 1.15282,1.15459 -0.20275,1.01375 0.07338,1.83159 1.075788,3.18623 2.115549,2.85893 3.773642,4.52108 4.327324,4.33791 0.286003,-0.0946 0.569059,-1.97306 0.64729,-4.29563 z"
     id="path690" />
  <path
     style="fill:#ff0000;stroke-width:0.48513"
     d="M 2.205855,93.243716 C 1.5099597,92.838393 1.3568774,92.053773 1.3568774,88.892298 v -3.856935 l 2.0618029,-0.04223 c 1.1339917,-0.02325 4.0045376,-0.190335 6.3789913,-0.371332 l 4.3171884,-0.3291 0.627942,1.50288 c 0.905659,2.167545 1.823398,6.02304 1.508618,6.337822 -0.394726,0.394725 -8.9935417,1.629338 -11.2560668,1.616138 -1.0672862,-0.006 -2.3225604,-0.233843 -2.7894982,-0.505808 z m 1.8239858,-2.401755 c 0.2710022,-0.853853 0.5502776,-0.93498 2.0944947,-0.608483 4.7182305,0.99759 9.8161015,-0.09866 5.8170795,-1.25091 -1.554661,-0.447952 -1.564071,-0.465285 -0.275523,-0.50754 1.457883,-0.04778 1.844177,-1.19961 0.566736,-1.68981 -1.131711,-0.434272 -3.2534321,-0.344625 -4.0703329,0.171998 -0.6287122,0.397605 -0.6287122,0.47913 0,0.681825 2.0431119,0.658702 2.1278979,0.717112 1.094406,0.75393 -0.5912962,0.02107 -1.8687482,-0.34017 -2.8387819,-0.802748 -1.7400619,-0.829777 -1.7760396,-0.825802 -2.6846745,0.29631 -0.9465093,1.16889 -1.2760684,3.94065 -0.4685387,3.94065 0.2488411,0 0.5931518,-0.443347 0.7651348,-0.985222 z"
     id="path692" />
  <path
     style="fill:#ff0000;stroke-width:0.48513"
     d="m 21.097536,93.417491 c -2.427715,-0.364988 -4.186915,-4.57185 -2.497979,-5.97354 1.277067,-1.05987 1.89202,0.135337 0.978525,1.901842 -0.71951,1.391378 -0.719105,1.51113 0.0051,1.51113 0.432601,0 1.419106,0.45042 2.192234,1.000935 1.588062,1.130805 2.574046,0.851745 2.11383,-0.598267 -0.27019,-0.851295 -0.1868,-0.906098 0.676068,-0.444308 0.54135,0.289725 1.10778,0.52677 1.258732,0.52677 0.571914,0 0.238433,-1.105582 -0.689192,-2.284867 -0.530007,-0.6738 -0.842386,-1.421295 -0.694174,-1.661108 0.45855,-0.741945 1.138927,0.02572 2.61578,2.95134 l 1.421372,2.815725 -1.796077,0.29694 c -1.880077,0.31083 -3.305737,0.299955 -5.584228,-0.0426 z"
     id="path694" />
  <path
     transform="translate(0,10)"
     id="path29368"
     d="m 2.2942951,186.68299 -1.77881038,-0.26947 0.007119,-6.26372 c 0.003915,-3.44505 0.21606544,-7.42804 0.4714446,-8.85109 l 0.46432578,-2.58736 0.3371056,2.5368 c 0.185408,1.39523 0.6638916,2.64422 1.0632969,2.77552 0.9754685,0.32066 1.5182253,-1.95139 1.5289167,-6.40025 0.00803,-3.34073 0.1854742,-3.80106 1.9493529,-5.05705 1.0672862,-0.75998 1.9609787,-1.87134 1.9859836,-2.4697 0.036773,-0.87996 0.1517319,-0.84063 0.601377,0.20576 0.3057523,0.71152 0.5763721,4.11574 0.601377,7.56493 l 0.045463,6.27125 3.0724912,0.24227 c 1.689869,0.13324 0.0798,0.29473 -3.5779224,0.35886 -4.6686199,0.0818 -6.7259654,0.35753 -6.9039496,0.92514 -0.1394454,0.4447 -0.4348289,2.8764 -0.6564078,5.40377 l -0.4028707,4.59523 4.0726196,0.65115 c 3.1728339,0.5073 3.5009798,0.64964 1.485259,0.64429 -1.4230484,-0.004 -3.3878253,-0.12812 -4.366171,-0.27633 z m 5.9832715,-18.58031 c 0,-5.30209 -0.6725605,-6.43875 -2.3211044,-3.92275 -0.8065124,1.23089 -0.9807739,2.40978 -0.6802789,4.60213 0.4743476,3.46075 0.8112427,4.13375 2.0692976,4.13375 0.7280451,0 0.9320857,-1.05363 0.9320857,-4.81313 z"
     style="fill:#ff0000;stroke-width:0.64684" />
  <path
     transform="translate(0,10)"
     id="path29370"
     d=""
     style="fill:#ff0000;stroke-width:0.64684" />
  <path
     transform="translate(0,10)"
     id="path29372"
     d=""
     style="fill:#ff0000;stroke-width:0.64684" />
  <path
     transform="translate(0,10)"
     id="path29374"
     d="m 56.467158,138.50183 c -8.125358,-0.5826 -9.797625,-1.12412 -10.68585,-3.46033 -0.657156,-1.72845 -0.900585,-11.93238 -0.284664,-11.93238 0.192054,0 1.501905,0.58807 2.910781,1.30682 2.847249,1.45256 3.216502,2.62044 1.249114,3.95071 -0.916427,0.61965 -1.428463,1.8858 -1.696841,4.1959 -0.406108,3.49562 0.370162,4.86843 1.991853,3.52255 0.657685,-0.54583 0.96555,-0.46062 1.278048,0.35374 0.345863,0.9013 1.107517,1.01879 4.765132,0.73505 2.394407,-0.18575 4.866155,-0.54794 5.492774,-0.80487 0.873681,-0.35823 1.046056,-0.22414 0.739345,0.57514 -0.258921,0.67474 -0.05572,1.04228 0.576228,1.04228 1.292928,0 2.396422,-3.32084 2.396422,-7.21177 0,-3.14293 -0.819586,-3.99987 -2.356039,-2.46342 -0.467778,0.46778 -0.927809,0.36874 -1.50225,-0.32342 -0.561958,-0.67712 -0.594716,-0.99767 -0.101954,-0.99767 0.399323,0 0.726042,-0.58216 0.726042,-1.29368 0,-1.66937 1.314933,-1.64924 3.136715,0.048 1.30612,1.21684 1.422807,1.85717 1.253939,6.88119 -0.226085,6.72634 0.0102,6.58594 -9.888795,5.87616 z m -9.379182,-7.66881 c 0,-2.44809 -0.242799,-3.76915 -0.64684,-3.51944 -1.147194,0.709 -0.757069,7.43866 0.431226,7.43866 0.118588,0 0.215614,-1.76365 0.215614,-3.91922 z"
     style="fill:#ff0000;stroke-width:0.64684" />
  <path
     transform="translate(0,10)"
     id="path30309"
     d=""
     style="fill:#ff0000;stroke-width:0.32342" />
  <path
     transform="translate(0,10)"
     id="path30311"
     d=""
     style="fill:#ff0000;stroke-width:0.32342" />
  <path
     transform="translate(0,10)"
     id="path30313"
     d="m 0.25921158,140.3557 c -0.0271627,-1.62191 1.46216932,-2.48029 4.32374292,-2.49198 1.4758532,-0.006 4.3794119,-0.52853 6.1961345,-1.115 0.857173,-0.27671 2.419822,0.89796 1.899846,1.42815 -0.190044,0.19377 -2.445899,0.50245 -5.0130109,0.68593 -5.0469049,0.36074 -6.5891675,0.69582 -7.08079739,1.53842 -0.28886953,0.49509 -0.31692703,0.49118 -0.32591513,-0.0455 z"
     style="fill:#ff0000;stroke-width:0.32342" />
  <path
     transform="translate(0,10)"
     id="path30315"
     d="m 15.421016,137.89805 c 0.164798,-0.63811 0.23575,-0.75889 0.626573,-1.06667 0.725164,-0.57107 1.559505,-0.92003 3.190669,-1.3345 1.498979,-0.38088 2.434927,-0.50181 2.434444,-0.31455 -3.43e-4,0.13296 -1.024996,0.79266 -1.626679,1.0473 -0.610291,0.25828 -2.060098,0.58085 -2.627678,0.58464 -0.556015,0.004 -1.257305,0.36601 -1.681893,0.86891 -0.244659,0.28978 -0.354021,0.36427 -0.315436,0.21487 z"
     style="fill:#ff0000;stroke-width:0.114346" />
  <path
     transform="translate(0,10)"
     id="path30317"
     d="m 25.377314,132.5341 c -0.08543,-0.22263 0.23122,-0.79901 0.597035,-1.08676 0.589291,-0.46353 2.32189,-0.76486 2.768825,-0.48154 0.217462,0.13786 -0.479896,0.68647 -1.607465,1.2646 -0.939729,0.48182 -1.643406,0.60335 -1.758395,0.3037 z"
     style="fill:#ff0000;stroke-width:0.114346" />
  <path
     transform="translate(0,10)"
     id="path30319"
     d="m 33.336933,120.546 c 3.79e-4,-0.0786 0.407581,-0.64976 0.904891,-1.26921 1.002067,-1.24818 1.705868,-2.51839 1.805028,-3.25768 0.08223,-0.61308 0.373202,-0.84799 0.846131,-0.68313 1.325878,0.46221 -0.516648,4.04575 -2.584798,5.0272 -0.753912,0.35777 -0.972296,0.39888 -0.971252,0.18282 z"
     style="fill:#ff0000;stroke-width:0.114346" />
</svg>
