<?xml version="1.0" encoding="UTF-8" standalone="no"?>
<svg
   xmlns:dc="http://purl.org/dc/elements/1.1/"
   xmlns:cc="http://creativecommons.org/ns#"
   xmlns:rdf="http://www.w3.org/1999/02/22-rdf-syntax-ns#"
   xmlns:svg="http://www.w3.org/2000/svg"
   xmlns="http://www.w3.org/2000/svg"
   xmlns:sodipodi="http://sodipodi.sourceforge.net/DTD/sodipodi-0.dtd"
   xmlns:inkscape="http://www.inkscape.org/namespaces/inkscape"
   inkscape:version="1.0 (4035a4fb49, 2020-05-01)"
   sodipodi:docname="LFwtp2C201.svg"
   id="svg654"
   preserveAspectRatio="xMidYMid meet"
   viewBox="0 -31 287 212.70547"
   height="212.70547pt"
   width="287pt"
   version="1.0">
  <defs
     id="defs658" />
  <sodipodi:namedview
     inkscape:current-layer="svg654"
     inkscape:window-maximized="1"
     inkscape:window-y="-8"
     inkscape:window-x="-8"
     inkscape:cy="109.76578"
     inkscape:cx="191.33333"
     inkscape:zoom="1.545977"
     showgrid="false"
     id="namedview656"
     inkscape:window-height="705"
     inkscape:window-width="1366"
     inkscape:pageshadow="2"
     inkscape:pageopacity="0"
     guidetolerance="10"
     gridtolerance="10"
     objecttolerance="10"
     borderopacity="1"
     bordercolor="#666666"
     pagecolor="#ffffff" />
  <metadata
     id="metadata2">
Created by potrace 1.10, written by Peter Selinger 2001-2011
<rdf:RDF>
  <cc:Work
     rdf:about="">
    <dc:format>image/svg+xml</dc:format>
    <dc:type
       rdf:resource="http://purl.org/dc/dcmitype/StillImage" />
    <dc:title></dc:title>
  </cc:Work>
</rdf:RDF>
</metadata>
  <g
     id="g652"
     stroke="none"
     fill="#000000"
     transform="matrix(0.1,0,0,-0.1,0,212.82433)">
    <path
       id="path4"
       d="m 1,2114 c 0,-11 3,-14 6,-6 3,7 2,16 -1,19 -3,4 -6,-2 -5,-13 z" />
    <path
       id="path6"
       d="m 0,2080 c 0,-5 5,-10 10,-10 6,0 10,5 10,10 0,6 -4,10 -10,10 -5,0 -10,-4 -10,-10 z" />
    <path
       id="path8"
       d="m 72,2050 c 0,-14 2,-19 5,-12 2,6 2,18 0,25 -3,6 -5,1 -5,-13 z" />
    <path
       id="path10"
       d="m 5,1858 c 0,-139 3,-202 11,-205 8,-3 11,22 9,79 -1,46 -3,138 -3,206 -1,67 -5,122 -9,122 -5,0 -8,-91 -8,-202 z" />
    <path
       id="path12"
       d="m 2706,1531 c -9,-16 -28,-43 -43,-62 -26,-30 -26,-32 -7,-27 12,3 28,2 35,-3 12,-7 11,-9 -1,-9 -8,-1 -31,-3 -50,-5 -19,-3 -109,-11 -200,-20 -91,-9 -183,-17 -205,-20 -73,-7 -240,-19 -247,-17 -22,6 -4,-17 21,-28 24,-9 45,-9 103,1 40,6 192,26 338,44 222,26 265,34 262,47 -1,8 5,34 13,58 8,23 15,49 15,56 0,24 -19,15 -34,-15 z" />
    <path
       id="path14"
       d="m 476,1524 c -139,-24 -175,-34 -120,-34 29,0 309,46 329,54 31,13 -89,1 -209,-20 z" />
    <path
       id="path16"
       d="m 698,1523 c 7,-3 16,-2 19,1 4,3 -2,6 -13,5 -11,0 -14,-3 -6,-6 z" />
    <path
       id="path18"
       d="m 260,1500 c 0,-5 5,-10 10,-10 6,0 10,5 10,10 0,6 -4,10 -10,10 -5,0 -10,-4 -10,-10 z" />
    <path
       id="path20"
       d="m 368,1453 c 6,-2 18,-2 25,0 6,3 1,5 -13,5 -14,0 -19,-2 -12,-5 z" />
    <path
       id="path22"
       d="m 1608,1453 c 7,-3 16,-2 19,1 4,3 -2,6 -13,5 -11,0 -14,-3 -6,-6 z" />
    <path
       id="path24"
       d="m 380,1426 c 0,-2 7,-6 15,-10 8,-3 15,-1 15,4 0,6 -7,10 -15,10 -8,0 -15,-2 -15,-4 z" />
    <path
       id="path26"
       d="m 485,1410 c -3,-6 1,-7 9,-4 18,7 21,14 7,14 -6,0 -13,-4 -16,-10 z" />
    <path
       id="path28"
       d="m 157,1393 c 11,-31 13,-33 34,-20 16,10 21,9 29,-3 5,-8 12,-11 16,-7 11,11 -18,39 -36,34 -10,-2 -24,0 -33,5 -13,7 -15,5 -10,-9 z" />
    <path
       id="path30"
       d="m 284,1403 c 4,-6 0,-14 -6,-16 -8,-3 -6,-6 5,-6 20,-1 23,-17 5,-24 -8,-4 -7,-6 3,-6 9,-1 23,7 30,17 7,9 10,14 5,10 -5,-4 -17,3 -28,15 -11,12 -17,17 -14,10 z" />
    <path
       id="path32"
       d="m 1418,1403 c 7,-3 16,-2 19,1 4,3 -2,6 -13,5 -11,0 -14,-3 -6,-6 z" />
    <path
       id="path34"
       d="m 1958,1403 c 7,-3 16,-2 19,1 4,3 -2,6 -13,5 -11,0 -14,-3 -6,-6 z" />
    <path
       id="path36"
       d="m 1995,1390 c -3,-6 1,-7 9,-4 18,7 21,14 7,14 -6,0 -13,-4 -16,-10 z" />
    <path
       id="path38"
       d="m 73,1383 -63,-4 v -44 c 0,-40 2,-44 28,-47 20,-2 114,10 129,17 5,2 -20,85 -26,83 -3,-1 -34,-3 -68,-5 z m 22,-43 c 11,0 27,-4 34,-9 10,-7 0,-9 -32,-8 -26,1 -47,7 -48,12 0,6 -4,1 -9,-10 -8,-19 -9,-19 -9,2 -1,23 18,36 34,22 5,-5 18,-9 30,-9 z m 35,11 c 0,-4 -11,-6 -25,-3 -14,2 -25,6 -25,8 0,2 11,4 25,4 14,0 25,-4 25,-9 z" />
    <path
       id="path40"
       d="m 1585,1380 c -3,-5 -1,-10 4,-10 6,0 11,5 11,10 0,6 -2,10 -4,10 -3,0 -8,-4 -11,-10 z" />
    <path
       id="path42"
       d="m 2618,1373 c 7,-3 16,-2 19,1 4,3 -2,6 -13,5 -11,0 -14,-3 -6,-6 z" />
    <path
       id="path44"
       d="m 183,1354 c -10,-10 -10,-19 -1,-39 10,-22 17,-25 60,-25 28,0 48,3 46,8 -24,48 -32,62 -40,62 -11,0 -10,-17 2,-25 6,-3 10,-11 10,-17 0,-5 -9,0 -21,13 l -20,24 11,-23 c 14,-29 8,-38 -13,-18 -8,8 -18,12 -23,8 -5,-4 -3,0 3,8 16,21 3,43 -14,24 z" />
    <path
       id="path46"
       d="m 435,1360 c 3,-5 8,-10 11,-10 2,0 4,5 4,10 0,6 -5,10 -11,10 -5,0 -7,-4 -4,-10 z" />
    <path
       id="path48"
       d="m 1508,1363 c 12,-2 30,-2 40,0 9,3 -1,5 -23,4 -22,0 -30,-2 -17,-4 z" />
    <path
       id="path50"
       d="m 1618,1363 c 7,-3 16,-2 19,1 4,3 -2,6 -13,5 -11,0 -14,-3 -6,-6 z" />
    <path
       id="path52"
       d="m 2745,1360 c -3,-5 -1,-10 4,-10 6,0 11,5 11,10 0,6 -2,10 -4,10 -3,0 -8,-4 -11,-10 z" />
    <path
       id="path54"
       d="m 1383,1353 c 9,-2 23,-2 30,0 6,3 -1,5 -18,5 -16,0 -22,-2 -12,-5 z" />
    <path
       id="path56"
       d="m 1875,1353 c -16,-2 -61,-7 -100,-13 -38,-5 -101,-12 -140,-15 -92,-7 -147,-15 -159,-23 -5,-3 -32,-7 -60,-8 -123,-6 -216,-17 -216,-27 0,-5 -13,-7 -30,-3 -17,3 -30,1 -30,-4 0,-6 -14,-10 -31,-10 -17,0 -28,4 -24,10 3,6 -1,10 -9,10 -9,0 -16,-4 -16,-10 0,-5 -9,-10 -21,-10 -11,0 -17,-5 -14,-10 4,-6 10,-8 15,-5 5,3 24,-3 42,-13 35,-19 68,-18 68,1 0,18 218,46 225,30 7,-20 63,-15 84,6 19,19 46,25 154,37 42,4 57,3 57,-6 0,-18 88,-5 111,16 14,13 29,15 63,10 36,-6 46,-12 56,-36 7,-18 20,-30 30,-30 21,0 21,-27 -1,-42 -10,-7 -5,-8 19,-4 27,5 32,3 32,-14 0,-31 17,-23 37,17 14,29 28,40 68,54 28,10 42,18 33,18 -26,1 -70,-18 -97,-42 -20,-18 -23,-19 -18,-4 4,9 2,17 -3,17 -6,0 -10,-8 -10,-17 0,-16 -1,-16 -16,-1 -22,22 -12,33 32,36 48,4 54,10 30,28 -26,18 -33,18 -40,-3 -3,-11 -4,-7 -3,7 4,48 -26,61 -118,53 z m 82,-40 c 4,-10 11,-21 17,-25 7,-5 4,-8 -6,-8 -27,0 -33,4 -30,18 2,6 -2,12 -8,12 -5,0 -10,-5 -10,-12 0,-6 -2,-9 -5,-6 -10,9 7,38 21,38 8,0 18,-8 21,-17 z m -514,-40 c -7,-2 -19,-2 -25,0 -7,3 -2,5 12,5 14,0 19,-2 13,-5 z m -303,-37 c 0,-2 -7,-7 -16,-10 -8,-3 -12,-2 -9,4 6,10 25,14 25,6 z" />
    <path
       id="path58"
       d="m 2528,1353 c 7,-3 16,-2 19,1 4,3 -2,6 -13,5 -11,0 -14,-3 -6,-6 z" />
    <path
       id="path60"
       d="m 320,1324 c 0,-8 5,-12 10,-9 6,3 10,10 10,16 0,5 -4,9 -10,9 -5,0 -10,-7 -10,-16 z" />
    <path
       id="path62"
       d="m 865,1304 c -232,-32 -290,-38 -360,-39 -54,0 -88,-11 -80,-26 5,-7 255,18 325,33 71,15 58,13 183,28 59,8 107,17 107,22 0,4 -1,7 -2,7 -2,-1 -79,-12 -173,-25 z" />
    <path
       id="path64"
       d="m 1060,1319 c 0,-5 5,-7 10,-4 6,3 10,8 10,11 0,2 -4,4 -10,4 -5,0 -10,-5 -10,-11 z" />
    <path
       id="path66"
       d="m 1118,1323 c 7,-3 16,-2 19,1 4,3 -2,6 -13,5 -11,0 -14,-3 -6,-6 z" />
    <path
       id="path68"
       d="m 2813,1313 c 9,-2 23,-2 30,0 6,3 -1,5 -18,5 -16,0 -22,-2 -12,-5 z" />
    <path
       id="path70"
       d="m 2118,1303 c 7,-3 16,-2 19,1 4,3 -2,6 -13,5 -11,0 -14,-3 -6,-6 z" />
    <path
       id="path72"
       d="m 2835,1290 c 3,-5 8,-10 11,-10 2,0 4,5 4,10 0,6 -5,10 -11,10 -5,0 -7,-4 -4,-10 z" />
    <path
       id="path74"
       d="m 2154,1268 c -4,-7 -3,-8 5,-4 6,4 18,2 26,-4 9,-7 15,-8 15,-2 0,5 -7,13 -16,16 -21,8 -22,8 -30,-6 z" />
    <path
       id="path76"
       d="m 1810,1266 c 0,-2 7,-7 16,-10 8,-3 12,-2 9,4 -6,10 -25,14 -25,6 z" />
    <path
       id="path78"
       d="m 296,1248 c 3,-4 11,-5 19,-1 21,7 19,12 -4,10 -11,0 -18,-5 -15,-9 z" />
    <path
       id="path80"
       d="m 990,1240 c -8,-5 -85,-16 -170,-25 -233,-25 -314,-37 -327,-47 -7,-6 -13,-4 -17,4 -3,7 -3,2 0,-12 6,-24 6,-24 -10,-5 -8,11 -16,28 -16,38 0,22 -10,22 -63,-5 -24,-13 -42,-28 -40,-35 3,-8 -4,-13 -17,-13 -16,0 -20,-4 -16,-16 3,-9 6,-18 6,-22 0,-3 16,12 35,34 19,21 35,35 35,31 0,-5 8,-1 17,8 16,16 17,16 30,-1 14,-19 15,-35 4,-73 -5,-20 2,-34 44,-78 35,-37 50,-62 51,-83 1,-17 -3,-30 -10,-30 -7,0 -6,-4 2,-9 9,-6 12,-20 8,-45 -5,-28 -3,-37 6,-33 7,2 14,10 14,18 1,8 3,23 4,34 1,20 1,20 10,0 7,-16 9,-17 9,-3 1,9 4,24 7,32 4,12 2,15 -9,10 -8,-3 -18,-1 -22,5 -4,7 0,8 11,4 13,-5 16,-3 11,9 -9,24 4,30 20,10 13,-16 13,-16 12,3 -1,11 1,27 4,35 3,8 7,43 9,77 l 3,61 -43,5 c -24,2 -58,1 -77,-3 -43,-10 -51,-2 -21,21 18,14 30,16 55,9 22,-6 31,-5 31,3 0,8 3,8 12,-1 9,-9 16,-8 31,6 19,16 19,16 13,-5 -8,-25 0,-25 119,2 39,9 88,20 110,25 22,5 56,14 75,20 51,15 70,13 68,-7 -1,-10 0,-30 0,-46 2,-24 5,-27 30,-22 24,5 25,5 8,-7 -43,-30 -70,-59 -59,-66 6,-4 12,-16 15,-27 3,-16 8,-10 26,25 13,25 33,52 44,61 l 20,16 -21,41 c -12,23 -28,42 -36,42 -7,0 -15,8 -17,19 -2,13 -8,16 -18,11 z m 33,-80 c 3,-11 1,-18 -4,-14 -5,3 -9,12 -9,20 0,20 7,17 13,-6 z M 590,1041 c 0,-39 -4,-61 -9,-53 -4,7 -6,25 -3,39 3,18 1,24 -7,19 -8,-6 -10,0 -5,18 3,15 1,32 -5,40 -10,12 -8,13 8,9 19,-5 21,-13 21,-72 z m -100,49 c 0,-5 -8,-10 -17,-10 -15,0 -16,2 -3,10 19,12 20,12 20,0 z m 55,-45 c 0,-30 -2,-55 -5,-55 -3,0 -18,16 -33,36 -28,34 -28,36 -11,55 33,36 49,25 49,-36 z" />
    <path
       id="path82"
       d="m 2090,1243 c -63,-23 -83,-113 -35,-157 32,-30 69,-40 95,-26 29,15 15,31 -16,20 -35,-14 -57,-13 -48,2 4,7 3,8 -5,4 -9,-6 -11,0 -9,21 2,18 -1,27 -9,26 -16,-4 -17,21 -3,47 7,14 19,18 38,16 15,-2 19,-1 10,1 -22,5 -23,19 -2,27 24,9 31,7 14,-5 -11,-7 -6,-9 20,-5 33,5 34,4 15,-11 -20,-15 -20,-15 0,-11 22,5 51,-17 35,-27 -5,-3 -7,-12 -4,-19 3,-7 -2,-21 -12,-30 -12,-12 -14,-20 -6,-28 13,-13 32,-2 32,18 0,8 4,14 9,14 16,0 18,34 5,67 -22,52 -72,75 -124,56 z" />
    <path
       id="path84"
       d="m 2575,1240 c -3,-5 1,-10 10,-10 9,0 13,5 10,10 -3,6 -8,10 -10,10 -2,0 -7,-4 -10,-10 z" />
    <path
       id="path86"
       d="m 1882,1217 c -26,-27 -28,-37 -7,-37 8,0 22,-17 32,-37 19,-42 25,-48 68,-79 72,-50 168,-56 217,-13 l 23,20 -34,-17 c -52,-25 -118,-14 -153,25 -15,17 -28,42 -28,56 0,20 -7,26 -42,36 -24,7 -48,12 -55,10 -21,-3 -23,16 -2,37 11,12 16,22 11,22 -5,0 -18,-10 -30,-23 z m 105,-83 c -3,-4 0,-22 8,-40 l 14,-34 -24,17 c -13,10 -25,24 -25,31 0,6 -4,12 -10,12 -5,0 -10,5 -10,10 0,6 12,10 27,10 14,0 24,-3 20,-6 z" />
    <path
       id="path88"
       d="m 1260,1209 c -52,-5 -53,-6 -15,-9 27,-3 12,-6 -45,-10 l -85,-6 123,-2 c 96,-2 122,1 116,11 -6,10 -4,10 7,0 7,-7 27,-13 44,-12 29,1 29,1 5,8 -24,7 -24,8 8,13 19,3 40,-1 50,-8 23,-18 362,-20 380,-2 7,7 12,14 12,18 0,7 -530,7 -600,-1 z m 73,-16 c -7,-2 -21,-2 -30,0 -10,3 -4,5 12,5 17,0 24,-2 18,-5 z m 380,0 c -23,-2 -64,-2 -90,0 -26,2 -7,3 42,3 50,0 71,-1 48,-3 z m 110,0 c -13,-2 -33,-2 -45,0 -13,2 -3,4 22,4 25,0 35,-2 23,-4 z" />
    <path
       id="path90"
       d="m 1178,1203 c 7,-3 16,-2 19,1 4,3 -2,6 -13,5 -11,0 -14,-3 -6,-6 z" />
    <path
       id="path92"
       d="m 2265,1189 c -18,-4 5,-7 57,-8 48,0 89,3 92,7 6,10 -104,10 -149,1 z" />
    <path
       id="path94"
       d="m 2460,1190 c 0,-5 7,-10 16,-10 8,0 12,5 9,10 -3,6 -10,10 -16,10 -5,0 -9,-4 -9,-10 z" />
    <path
       id="path96"
       d="m 268,1184 c -17,-17 -7,-34 20,-33 15,1 20,3 10,6 -9,2 -18,11 -20,20 -2,8 -6,11 -10,7 z" />
    <path
       id="path98"
       d="m 294,1178 c -3,-4 4,-8 15,-8 12,0 21,4 21,8 0,5 -7,9 -15,9 -9,0 -18,-4 -21,-9 z" />
    <path
       id="path100"
       d="m 1088,1183 c 7,-3 16,-2 19,1 4,3 -2,6 -13,5 -11,0 -14,-3 -6,-6 z" />
    <path
       id="path102"
       d="m 1448,1183 c 7,-3 16,-2 19,1 4,3 -2,6 -13,5 -11,0 -14,-3 -6,-6 z" />
    <path
       id="path104"
       d="m 2573,1183 c 9,-2 23,-2 30,0 6,3 -1,5 -18,5 -16,0 -22,-2 -12,-5 z" />
    <path
       id="path106"
       d="m 2643,1183 c 15,-2 39,-2 55,0 15,2 2,4 -28,4 -30,0 -43,-2 -27,-4 z" />
    <path
       id="path108"
       d="m 2081,1158 c 0,-16 2,-18 6,-8 3,8 11,18 17,22 7,5 4,8 -6,8 -12,0 -18,-7 -17,-22 z" />
    <path
       id="path110"
       d="m 2131,1171 c -10,-6 -11,-16 -5,-34 8,-21 11,-23 22,-11 11,12 10,14 -3,14 -18,0 -19,12 -3,28 14,14 9,15 -11,3 z" />
    <path
       id="path112"
       d="m 2818,1175 c -2,-1 -130,-5 -286,-8 -156,-3 -286,-8 -289,-11 -4,-3 136,-6 310,-6 177,0 317,4 317,9 0,8 -45,22 -52,16 z" />
    <path
       id="path114"
       d="m 885,1159 -50,-6 63,-1 c 34,-1 62,0 62,2 0,9 -28,11 -75,5 z" />
    <path
       id="path116"
       d="m 1107,1158 c 2,-5 177,-8 389,-8 211,0 384,3 384,8 0,4 -175,7 -389,7 -214,0 -387,-3 -384,-7 z" />
    <path
       id="path118"
       d="m 410,1150 c 0,-5 5,-10 10,-10 6,0 10,5 10,10 0,6 -4,10 -10,10 -5,0 -10,-4 -10,-10 z" />
    <path
       id="path120"
       d="m 265,1130 c 3,-5 13,-10 21,-10 8,0 12,5 9,10 -3,6 -13,10 -21,10 -8,0 -12,-4 -9,-10 z" />
    <path
       id="path122"
       d="m 393,1110 c -18,-29 -16,-54 7,-75 19,-18 20,-17 20,3 0,11 -5,24 -11,28 -7,4 -7,9 -2,13 5,3 7,16 4,29 -6,22 -6,22 -18,2 z" />
    <path
       id="path124"
       d="m 712,1121 c -11,-7 -10,-9 3,-14 9,-4 13,-3 10,2 -3,5 3,12 12,14 13,3 14,5 3,6 -8,0 -21,-3 -28,-8 z" />
    <path
       id="path126"
       d="m 841,1125 c 3,-2 33,-9 68,-13 34,-5 58,-6 54,-2 -9,8 -130,23 -122,15 z" />
    <path
       id="path128"
       d="m 1805,1120 c -29,-5 -33,-8 -14,-9 15,0 41,-4 58,-7 24,-5 31,-3 31,10 0,17 -9,18 -75,6 z m 62,-6 c -3,-3 -12,-4 -19,-1 -8,3 -5,6 6,6 11,1 17,-2 13,-5 z" />
    <path
       id="path130"
       d="m 2090,1120 c 0,-5 5,-10 10,-10 6,0 10,5 10,10 0,6 -4,10 -10,10 -5,0 -10,-4 -10,-10 z" />
    <path
       id="path132"
       d="m 240,1116 c 0,-2 7,-7 16,-10 8,-3 12,-2 9,4 -6,10 -25,14 -25,6 z" />
    <path
       id="path134"
       d="m 780,1116 c 0,-2 7,-7 16,-10 8,-3 12,-2 9,4 -6,10 -25,14 -25,6 z" />
    <path
       id="path136"
       d="m 1135,1113 c 22,-3 48,-12 58,-20 21,-20 23,-10 1,11 -10,10 -31,15 -57,14 l -42,-1 z" />
    <path
       id="path138"
       d="m 1478,1113 c 23,-2 61,-2 85,0 23,2 4,4 -43,4 -47,0 -66,-2 -42,-4 z" />
    <path
       id="path140"
       d="m 1728,1113 c 6,-2 18,-2 25,0 6,3 1,5 -13,5 -14,0 -19,-2 -12,-5 z" />
    <path
       id="path142"
       d="m 2273,1113 c 9,-2 25,-2 35,0 9,3 1,5 -18,5 -19,0 -27,-2 -17,-5 z" />
    <path
       id="path144"
       d="m 2400,1109 c 0,-5 5,-7 10,-4 6,3 10,8 10,11 0,2 -4,4 -10,4 -5,0 -10,-5 -10,-11 z" />
    <path
       id="path146"
       d="m 2508,1113 c 12,-2 30,-2 40,0 9,3 -1,5 -23,4 -22,0 -30,-2 -17,-4 z" />
    <path
       id="path148"
       d="m 748,1103 c 7,-3 16,-2 19,1 4,3 -2,6 -13,5 -11,0 -14,-3 -6,-6 z" />
    <path
       id="path150"
       d="m 2708,1103 c 6,-2 18,-2 25,0 6,3 1,5 -13,5 -14,0 -19,-2 -12,-5 z" />
    <path
       id="path152"
       d="m 1093,1079 c -86,-25 -99,-141 -21,-189 23,-15 43,-19 67,-16 36,5 81,40 81,63 0,7 5,13 10,13 24,0 9,61 -22,94 -37,38 -68,48 -115,35 z m -3,-33 c 0,-3 -4,-8 -10,-11 -5,-3 -10,-1 -10,4 0,6 5,11 10,11 6,0 10,-2 10,-4 z m 96,-23 c -3,-7 0,-12 7,-10 7,1 13,-12 15,-31 3,-25 -3,-39 -27,-62 -68,-69 -158,-10 -136,88 4,17 10,22 24,17 11,-3 22,-1 26,5 10,16 97,10 91,-7 z" />
    <path
       id="path154"
       d="m 1110,1026 c 0,-2 9,-6 20,-9 11,-3 20,-1 20,4 0,5 -9,9 -20,9 -11,0 -20,-2 -20,-4 z" />
    <path
       id="path156"
       d="m 1050,992 c 0,-21 30,-52 50,-52 7,0 1,11 -14,25 -15,14 -24,30 -21,35 3,6 1,10 -4,10 -6,0 -11,-8 -11,-18 z" />
    <path
       id="path158"
       d="m 1151,974 c 0,-11 3,-14 6,-6 3,7 2,16 -1,19 -3,4 -6,-2 -5,-13 z" />
    <path
       id="path160"
       d="m 1120,958 c 0,-6 -7,-19 -16,-29 -15,-16 -14,-17 5,-12 11,3 18,10 15,15 -4,6 2,7 15,3 22,-7 22,-6 4,14 -20,24 -23,25 -23,9 z" />
    <path
       id="path162"
       d="m 1060,930 c 0,-5 5,-10 11,-10 5,0 7,5 4,10 -3,6 -8,10 -11,10 -2,0 -4,-4 -4,-10 z" />
    <path
       id="path164"
       d="m 2818,1083 c 12,-2 30,-2 40,0 9,3 -1,5 -23,4 -22,0 -30,-2 -17,-4 z" />
    <path
       id="path166"
       d="m 1240,1052 c 0,-5 7,-15 15,-22 8,-7 15,-8 15,-2 0,5 -7,15 -15,22 -8,7 -15,8 -15,2 z" />
    <path
       id="path168"
       d="m 1520,1052 c 0,-4 38,-8 84,-8 46,1 82,4 79,9 -6,10 -163,9 -163,-1 z" />
    <path
       id="path170"
       d="m 1771,1051 c -10,-6 14,-11 72,-13 48,-2 87,0 87,5 0,4 -6,7 -12,8 -7,0 -40,2 -73,5 -33,2 -66,0 -74,-5 z" />
    <path
       id="path172"
       d="m 2222,1051 c -11,-7 -11,-9 2,-14 10,-4 16,-1 16,8 0,17 -1,17 -18,6 z" />
    <path
       id="path174"
       d="m 2300,1049 c -18,-5 -6,-7 39,-8 35,-1 62,1 60,3 -10,8 -76,12 -99,5 z" />
    <path
       id="path176"
       d="m 808,1043 c 7,-3 16,-2 19,1 4,3 -2,6 -13,5 -11,0 -14,-3 -6,-6 z" />
    <path
       id="path178"
       d="m 950,1019 c 0,-39 34,-110 70,-144 45,-43 143,-46 189,-6 34,30 24,33 -16,5 -65,-44 -147,-18 -185,57 -10,19 -16,42 -14,52 3,10 -2,21 -10,24 -8,3 -12,8 -10,12 2,3 -2,12 -10,19 -12,11 -14,8 -14,-19 z" />
    <path
       id="path180"
       d="m 2563,1043 c 15,-2 39,-2 55,0 15,2 2,4 -28,4 -30,0 -43,-2 -27,-4 z" />
    <path
       id="path182"
       d="m 365,1030 c 3,-5 8,-10 11,-10 2,0 4,5 4,10 0,6 -5,10 -11,10 -5,0 -7,-4 -4,-10 z" />
    <path
       id="path184"
       d="m 860,1010 c -12,-8 -10,-10 8,-10 13,0 20,4 17,10 -7,12 -6,12 -25,0 z" />
    <path
       id="path186"
       d="m 355,1000 c 3,-5 10,-10 16,-10 5,0 9,5 9,10 0,6 -7,10 -16,10 -8,0 -12,-4 -9,-10 z" />
    <path
       id="path188"
       d="m 2510,1001 c 0,-4 -273,-9 -611,-9 -337,-1 -614,-4 -617,-7 -3,-2 355,-4 794,-3 439,2 721,4 627,6 -104,1 -173,6 -173,12 0,6 -4,10 -10,10 -5,0 -10,-4 -10,-9 z" />
    <path
       id="path190"
       d="m 668,993 c 6,-2 18,-2 25,0 6,3 1,5 -13,5 -14,0 -19,-2 -12,-5 z" />
    <path
       id="path192"
       d="m 760,989 c -33,-4 -21,-6 45,-7 89,0 103,3 35,10 -19,2 -55,0 -80,-3 z" />
    <path
       id="path194"
       d="m 428,983 c 12,-2 30,-2 40,0 9,3 -1,5 -23,4 -22,0 -30,-2 -17,-4 z" />
    <path
       id="path196"
       d="m 900,975 c 0,-8 2,-15 4,-15 2,0 6,7 10,15 3,8 1,15 -4,15 -6,0 -10,-7 -10,-15 z" />
    <path
       id="path198"
       d="m 360,969 c 0,-7 -8,-21 -17,-32 -13,-14 -14,-19 -4,-15 22,6 44,45 32,53 -6,3 -11,1 -11,-6 z" />
    <path
       id="path200"
       d="m 2360,950 -45,-7 40,-1 c 22,0 49,3 60,8 23,10 9,10 -55,0 z" />
    <path
       id="path202"
       d="m 2440,946 c 0,-2 7,-6 15,-10 8,-3 15,-1 15,4 0,6 -7,10 -15,10 -8,0 -15,-2 -15,-4 z" />
    <path
       id="path204"
       d="m 2656,938 c 3,-4 33,-8 67,-7 72,1 66,6 -15,12 -31,2 -55,0 -52,-5 z" />
    <path
       id="path206"
       d="m 231,924 c 0,-11 3,-14 6,-6 3,7 2,16 -1,19 -3,4 -6,-2 -5,-13 z" />
    <path
       id="path208"
       d="m 427,925 c 3,-8 9,-12 14,-9 12,7 11,11 -5,17 -10,4 -13,1 -9,-8 z" />
    <path
       id="path210"
       d="m 2498,933 c 12,-2 30,-2 40,0 9,3 -1,5 -23,4 -22,0 -30,-2 -17,-4 z" />
    <path
       id="path212"
       d="m 2578,933 c 12,-2 32,-2 45,0 12,2 2,4 -23,4 -25,0 -35,-2 -22,-4 z" />
    <path
       id="path214"
       d="m 875,920 c 3,-5 12,-7 20,-3 21,7 19,13 -6,13 -11,0 -18,-4 -14,-10 z" />
    <path
       id="path216"
       d="m 2178,923 c 12,-2 32,-2 45,0 12,2 2,4 -23,4 -25,0 -35,-2 -22,-4 z" />
    <path
       id="path218"
       d="m 1262,899 c -7,-10 -8,-19 -3,-19 5,0 12,6 14,13 4,10 6,10 6,0 1,-8 13,-12 29,-12 20,1 22,2 7,6 -11,3 -25,11 -31,18 -8,11 -12,10 -22,-6 z" />
    <path
       id="path220"
       d="m 2065,910 c -3,-5 -1,-10 4,-10 6,0 11,5 11,10 0,6 -2,10 -4,10 -3,0 -8,-4 -11,-10 z" />
    <path
       id="path222"
       d="m 1463,903 c 9,-2 23,-2 30,0 6,3 -1,5 -18,5 -16,0 -22,-2 -12,-5 z" />
    <path
       id="path224"
       d="m 1578,903 c 34,-2 90,-2 125,0 34,2 6,3 -63,3 -69,0 -97,-1 -62,-3 z" />
    <path
       id="path226"
       d="m 449,878 c -5,-124 3,-136 96,-136 42,0 78,-2 81,-5 3,-3 14,-3 25,0 16,5 19,14 19,68 0,61 -1,64 -31,79 -17,9 -35,13 -40,10 -14,-8 -11,-32 5,-41 7,-4 16,-15 19,-23 4,-12 6,-11 6,3 1,9 6,17 12,17 17,0 7,-93 -11,-98 -12,-4 -13,-2 -4,9 19,23 2,44 -34,45 h -33 l 23,-17 c 14,-11 25,-14 29,-7 4,7 9,7 13,-1 7,-10 -3,-14 -71,-25 -37,-6 -58,22 -23,31 25,7 27,26 3,21 -10,-2 -22,-13 -28,-26 -15,-34 -24,-26 -22,18 1,36 15,57 18,28 1,-7 4,1 8,17 6,26 3,32 -22,43 -38,16 -37,16 -38,-10 z m 168,-10 c -3,-8 -6,-5 -6,6 -1,11 2,17 5,13 3,-3 4,-12 1,-19 z M 467,793 c -2,-16 -4,-3 -4,27 0,30 2,43 4,28 2,-16 2,-40 0,-55 z" />
    <path
       id="path228"
       d="m 1345,880 c 3,-5 11,-10 16,-10 6,0 7,5 4,10 -3,6 -11,10 -16,10 -6,0 -7,-4 -4,-10 z" />
    <path
       id="path230"
       d="m 2408,883 c 7,-3 16,-2 19,1 4,3 -2,6 -13,5 -11,0 -14,-3 -6,-6 z" />
    <path
       id="path232"
       d="m 1458,873 c 12,-2 32,-2 45,0 12,2 2,4 -23,4 -25,0 -35,-2 -22,-4 z" />
    <path
       id="path234"
       d="m 1573,873 c 9,-2 25,-2 35,0 9,3 1,5 -18,5 -19,0 -27,-2 -17,-5 z" />
    <path
       id="path236"
       d="m 1648,873 c 7,-3 16,-2 19,1 4,3 -2,6 -13,5 -11,0 -14,-3 -6,-6 z" />
    <path
       id="path238"
       d="m 2150,860 c 8,-5 22,-9 30,-9 10,0 8,3 -5,9 -27,12 -43,12 -25,0 z" />
    <path
       id="path240"
       d="m 180,850 c -9,-6 -10,-10 -3,-10 6,0 15,5 18,10 8,12 4,12 -15,0 z" />
    <path
       id="path242"
       d="m 576,853 c -12,-12 -6,-33 9,-33 8,0 15,6 15,14 0,17 -14,28 -24,19 z" />
    <path
       id="path244"
       d="m 748,853 c 7,-3 16,-2 19,1 4,3 -2,6 -13,5 -11,0 -14,-3 -6,-6 z" />
    <path
       id="path246"
       d="m 913,853 c 15,-2 37,-2 50,0 12,2 0,4 -28,4 -27,0 -38,-2 -22,-4 z" />
    <path
       id="path248"
       d="m 1458,853 c 12,-2 30,-2 40,0 9,3 -1,5 -23,4 -22,0 -30,-2 -17,-4 z" />
    <path
       id="path250"
       d="m 1548,853 c 18,-2 45,-2 60,0 15,2 0,4 -33,4 -33,0 -45,-2 -27,-4 z" />
    <path
       id="path252"
       d="m 1707,853 c 18,-2 50,-2 70,0 21,2 7,4 -32,4 -38,0 -55,-2 -38,-4 z" />
    <path
       id="path254"
       d="m 2568,853 c 7,-3 16,-2 19,1 4,3 -2,6 -13,5 -11,0 -14,-3 -6,-6 z" />
    <path
       id="path256"
       d="m 1350,830 c 8,-5 20,-10 25,-10 6,0 3,5 -5,10 -8,5 -19,10 -25,10 -5,0 -3,-5 5,-10 z" />
    <path
       id="path258"
       d="m 898,823 c 7,-3 16,-2 19,1 4,3 -2,6 -13,5 -11,0 -14,-3 -6,-6 z" />
    <path
       id="path260"
       d="m 1200,820 c 0,-5 19,-10 43,-9 36,1 38,2 17,9 -36,12 -60,12 -60,0 z" />
    <path
       id="path262"
       d="m 255,810 c -8,-13 5,-13 25,0 13,8 13,10 -2,10 -9,0 -20,-4 -23,-10 z" />
    <path
       id="path264"
       d="m 1853,813 c 9,-2 25,-2 35,0 9,3 1,5 -18,5 -19,0 -27,-2 -17,-5 z" />
    <path
       id="path266"
       d="m 2083,813 c 26,-2 67,-2 90,0 23,2 2,3 -48,3 -49,0 -68,-1 -42,-3 z" />
    <path
       id="path268"
       d="m 2638,813 c 7,-3 16,-2 19,1 4,3 -2,6 -13,5 -11,0 -14,-3 -6,-6 z" />
    <path
       id="path270"
       d="m 2778,813 c 7,-3 16,-2 19,1 4,3 -2,6 -13,5 -11,0 -14,-3 -6,-6 z" />
    <path
       id="path272"
       d="m 863,783 c 9,-2 23,-2 30,0 6,3 -1,5 -18,5 -16,0 -22,-2 -12,-5 z" />
    <path
       id="path274"
       d="m 1165,780 c 3,-5 12,-7 20,-3 21,7 19,13 -6,13 -11,0 -18,-4 -14,-10 z" />
    <path
       id="path276"
       d="m 1375,780 c -3,-5 1,-10 9,-10 9,0 16,5 16,10 0,6 -4,10 -9,10 -6,0 -13,-4 -16,-10 z" />
    <path
       id="path278"
       d="m 1528,783 c 7,-3 16,-2 19,1 4,3 -2,6 -13,5 -11,0 -14,-3 -6,-6 z" />
    <path
       id="path280"
       d="m 1560,786 c 0,-2 11,-6 25,-8 13,-3 22,-1 19,3 -5,9 -44,13 -44,5 z" />
    <path
       id="path282"
       d="m 1728,783 c 12,-2 30,-2 40,0 9,3 -1,5 -23,4 -22,0 -30,-2 -17,-4 z" />
    <path
       id="path284"
       d="m 1792,785 c 7,-7 118,-9 125,-1 3,3 -24,6 -62,6 -38,0 -66,-2 -63,-5 z" />
    <path
       id="path286"
       d="m 2008,783 c 6,-2 18,-2 25,0 6,3 1,5 -13,5 -14,0 -19,-2 -12,-5 z" />
    <path
       id="path288"
       d="m 2548,783 c 7,-3 16,-2 19,1 4,3 -2,6 -13,5 -11,0 -14,-3 -6,-6 z" />
    <path
       id="path290"
       d="m 181,771 c -14,-4 -26,-12 -27,-19 -1,-7 0,-8 3,-2 2,5 12,10 21,10 10,0 24,5 32,10 17,11 7,11 -29,1 z" />
    <path
       id="path292"
       d="m 101,761 c -8,-5 -29,-9 -47,-9 -40,0 -54,-8 -53,-30 1,-14 2,-14 5,-2 4,12 19,16 60,17 31,1 59,4 62,7 11,11 -13,25 -27,17 z" />
    <path
       id="path294"
       d="m 353,763 c 9,-2 25,-2 35,0 9,3 1,5 -18,5 -19,0 -27,-2 -17,-5 z" />
    <path
       id="path296"
       d="m 425,760 c 3,-5 8,-10 11,-10 2,0 4,5 4,10 0,6 -5,10 -11,10 -5,0 -7,-4 -4,-10 z" />
    <path
       id="path298"
       d="m 1275,761 c -6,-5 -19,-11 -30,-14 -16,-4 -14,-5 6,-6 16,-1 29,5 33,14 6,17 4,19 -9,6 z" />
    <path
       id="path300"
       d="m 1990,751 c 11,-8 -6,-11 -70,-12 -100,-2 -89,-6 30,-12 51,-2 77,-1 65,4 -28,12 458,0 528,-13 51,-9 79,-7 66,6 -13,13 -171,24 -372,25 -125,1 -235,4 -245,7 -14,5 -15,4 -2,-5 z" />
    <path
       id="path302"
       d="m 958,745 c -3,-3 -67,-6 -142,-7 -75,0 -136,-4 -136,-8 0,-4 60,-7 133,-5 164,4 207,8 207,18 0,8 -54,10 -62,2 z" />
    <path
       id="path304"
       d="m 1175,740 c 3,-5 10,-10 16,-10 5,0 9,5 9,10 0,6 -7,10 -16,10 -8,0 -12,-4 -9,-10 z" />
    <path
       id="path306"
       d="m 1385,740 c 3,-5 13,-10 21,-10 8,0 12,5 9,10 -3,6 -13,10 -21,10 -8,0 -12,-4 -9,-10 z" />
    <path
       id="path308"
       d="m 1503,736 c 53,-12 113,-13 125,-1 3,3 -12,5 -34,5 -21,0 -64,2 -94,5 l -55,5 z" />
    <path
       id="path310"
       d="m 1660,739 c -18,-5 -6,-7 39,-8 35,-1 62,1 60,3 -10,8 -76,12 -99,5 z" />
    <path
       id="path312"
       d="m 298,733 c 7,-3 16,-2 19,1 4,3 -2,6 -13,5 -11,0 -14,-3 -6,-6 z" />
    <path
       id="path314"
       d="m 378,723 c 7,-3 16,-2 19,1 4,3 -2,6 -13,5 -11,0 -14,-3 -6,-6 z" />
    <path
       id="path316"
       d="m 1868,713 c 17,-2 47,-2 65,0 17,2 3,4 -33,4 -36,0 -50,-2 -32,-4 z" />
    <path
       id="path318"
       d="m 2088,713 c 6,-2 18,-2 25,0 6,3 1,5 -13,5 -14,0 -19,-2 -12,-5 z" />
    <path
       id="path320"
       d="m 2210,709 c 60,-10 108,-9 55,2 -22,4 -53,8 -70,7 -22,0 -19,-3 15,-9 z" />
    <path
       id="path322"
       d="m 2630,710 c 8,-5 22,-9 30,-9 10,0 8,3 -5,9 -27,12 -43,12 -25,0 z" />
    <path
       id="path324"
       d="m 918,703 c 7,-3 16,-2 19,1 4,3 -2,6 -13,5 -11,0 -14,-3 -6,-6 z" />
    <path
       id="path326"
       d="m 2488,703 c 7,-3 16,-2 19,1 4,3 -2,6 -13,5 -11,0 -14,-3 -6,-6 z" />
    <path
       id="path328"
       d="m 305,690 c 11,-5 29,-8 40,-8 16,0 15,2 -5,8 -34,11 -60,11 -35,0 z" />
    <path
       id="path330"
       d="m 395,690 c 3,-5 8,-10 11,-10 2,0 4,5 4,10 0,6 -5,10 -11,10 -5,0 -7,-4 -4,-10 z" />
    <path
       id="path332"
       d="m 703,685 c 0,-8 4,-15 9,-15 4,0 8,4 8,9 0,6 -4,12 -8,15 -5,3 -9,-1 -9,-9 z" />
    <path
       id="path334"
       d="m 998,693 c 7,-3 16,-2 19,1 4,3 -2,6 -13,5 -11,0 -14,-3 -6,-6 z" />
    <path
       id="path336"
       d="m 1040,691 c 0,-5 25,-9 56,-8 34,1 49,4 37,8 -27,11 -93,11 -93,0 z" />
    <path
       id="path338"
       d="m 1207,689 c 7,-7 15,-10 18,-7 3,3 -2,9 -12,12 -14,6 -15,5 -6,-5 z" />
    <path
       id="path340"
       d="m 1338,693 c 7,-3 16,-2 19,1 4,3 -2,6 -13,5 -11,0 -14,-3 -6,-6 z" />
    <path
       id="path342"
       d="M 31,673 C 30,660 24,650 15,650 7,650 0,646 0,640 c 0,-5 4,-10 9,-10 16,0 33,29 28,47 -4,14 -5,13 -6,-4 z" />
    <path
       id="path344"
       d="m 808,683 c 6,-2 18,-2 25,0 6,3 1,5 -13,5 -14,0 -19,-2 -12,-5 z" />
    <path
       id="path346"
       d="m 958,683 c 7,-3 16,-2 19,1 4,3 -2,6 -13,5 -11,0 -14,-3 -6,-6 z" />
    <path
       id="path348"
       d="m 1500,680 c -17,-6 -9,-7 25,-3 28,3 52,7 54,9 8,7 -54,2 -79,-6 z" />
    <path
       id="path350"
       d="m 1618,683 c 6,-2 18,-2 25,0 6,3 1,5 -13,5 -14,0 -19,-2 -12,-5 z" />
    <path
       id="path352"
       d="m 1860,680 c -14,-4 29,-7 95,-8 66,-1 127,2 135,8 17,10 -188,10 -230,0 z" />
    <path
       id="path354"
       d="m 2135,680 c 28,-12 45,-12 45,0 0,6 -15,10 -32,9 -28,0 -30,-2 -13,-9 z" />
    <path
       id="path356"
       d="m 2460,680 c 14,-4 34,-8 45,-8 16,0 15,2 -5,8 -14,4 -34,8 -45,8 -16,0 -15,-2 5,-8 z" />
    <path
       id="path358"
       d="m 2698,683 c 7,-3 16,-2 19,1 4,3 -2,6 -13,5 -11,0 -14,-3 -6,-6 z" />
    <path
       id="path360"
       d="m 2790,681 c 11,-8 4,-11 -29,-11 -24,0 -42,-3 -38,-6 3,-4 36,-3 72,1 37,4 65,8 63,10 -2,1 -21,5 -43,9 -29,5 -36,4 -25,-3 z" />
    <path
       id="path362"
       d="m 168,673 c 7,-3 16,-2 19,1 4,3 -2,6 -13,5 -11,0 -14,-3 -6,-6 z" />
    <path
       id="path364"
       d="m 2203,673 c 9,-2 23,-2 30,0 6,3 -1,5 -18,5 -16,0 -22,-2 -12,-5 z" />
    <path
       id="path366"
       d="m 2300,670 c 0,-5 5,-10 10,-10 6,0 10,5 10,10 0,6 -4,10 -10,10 -5,0 -10,-4 -10,-10 z" />
    <path
       id="path368"
       d="m 2573,673 c 9,-2 23,-2 30,0 6,3 -1,5 -18,5 -16,0 -22,-2 -12,-5 z" />
    <path
       id="path370"
       d="m 1098,663 c 6,-2 18,-2 25,0 6,3 1,5 -13,5 -14,0 -19,-2 -12,-5 z" />
    <path
       id="path372"
       d="m 1423,653 c 9,-2 17,-11 17,-19 0,-10 12,-14 43,-13 l 42,2 -40,7 c -22,4 -31,8 -20,10 17,2 17,3 -5,10 -14,4 -32,8 -40,8 -10,0 -9,-2 3,-5 z" />
    <path
       id="path374"
       d="m 1590,651 c 0,-6 4,-13 10,-16 6,-3 7,1 4,9 -7,18 -14,21 -14,7 z" />
    <path
       id="path376"
       d="m 1768,653 c 7,-3 16,-2 19,1 4,3 -2,6 -13,5 -11,0 -14,-3 -6,-6 z" />
    <path
       id="path378"
       d="m 2618,653 c 7,-3 16,-2 19,1 4,3 -2,6 -13,5 -11,0 -14,-3 -6,-6 z" />
    <path
       id="path380"
       d="m 2833,653 c 9,-2 23,-2 30,0 6,3 -1,5 -18,5 -16,0 -22,-2 -12,-5 z" />
    <path
       id="path382"
       d="m 465,630 c -3,-5 -1,-10 4,-10 6,0 11,5 11,10 0,6 -2,10 -4,10 -3,0 -8,-4 -11,-10 z" />
    <path
       id="path384"
       d="m 540,631 c -14,-5 18,-6 70,-4 52,3 100,6 105,8 21,7 -151,3 -175,-4 z" />
    <path
       id="path386"
       d="m 763,633 c 15,-2 37,-2 50,0 12,2 0,4 -28,4 -27,0 -38,-2 -22,-4 z" />
    <path
       id="path388"
       d="m 888,633 c 6,-2 18,-2 25,0 6,3 1,5 -13,5 -14,0 -19,-2 -12,-5 z" />
    <path
       id="path390"
       d="m 1538,633 c 7,-3 16,-2 19,1 4,3 -2,6 -13,5 -11,0 -14,-3 -6,-6 z" />
    <path
       id="path392"
       d="m 1737,628 c -7,-4 18,-8 54,-8 36,0 88,-3 115,-6 27,-4 45,-3 41,2 -10,11 -195,21 -210,12 z" />
    <path
       id="path394"
       d="m 40,612 c 0,-15 4,-20 16,-15 9,3 12,9 7,12 -4,3 -11,10 -15,15 -5,5 -8,0 -8,-12 z" />
    <path
       id="path396"
       d="m 1373,623 c 9,-2 25,-2 35,0 9,3 1,5 -18,5 -19,0 -27,-2 -17,-5 z" />
    <path
       id="path398"
       d="m 2073,620 c 2,-8 14,-16 28,-17 19,-1 20,-1 4,4 -11,3 -24,10 -28,17 -6,7 -7,6 -4,-4 z" />
    <path
       id="path400"
       d="m 2578,623 c 12,-2 32,-2 45,0 12,2 2,4 -23,4 -25,0 -35,-2 -22,-4 z" />
    <path
       id="path402"
       d="m 2818,623 c 12,-2 30,-2 40,0 9,3 -1,5 -23,4 -22,0 -30,-2 -17,-4 z" />
    <path
       id="path404"
       d="m 10,610 c 11,-7 11,-10 2,-10 -7,0 -10,-4 -7,-10 10,-17 25,-11 25,10 0,12 -7,20 -17,20 -15,0 -16,-2 -3,-10 z" />
    <path
       id="path406"
       d="m 2158,613 c 12,-2 32,-2 45,0 12,2 2,4 -23,4 -25,0 -35,-2 -22,-4 z" />
    <path
       id="path408"
       d="m 1195,600 c 3,-5 8,-10 11,-10 2,0 4,5 4,10 0,6 -5,10 -11,10 -5,0 -7,-4 -4,-10 z" />
    <path
       id="path410"
       d="m 938,593 c 7,-3 16,-2 19,1 4,3 -2,6 -13,5 -11,0 -14,-3 -6,-6 z" />
    <path
       id="path412"
       d="m 150,556 c 0,-8 4,-17 9,-20 5,-4 7,3 4,14 -6,23 -13,26 -13,6 z" />
    <path
       id="path414"
       d="m 183,556 c 2,-6 135,-11 313,-13 170,-2 315,-5 322,-8 6,-2 12,0 12,6 0,5 -6,12 -13,15 -25,9 -637,9 -634,0 z" />
    <path
       id="path416"
       d="m 2465,560 c 28,-12 37,-12 30,0 -3,6 -16,10 -28,9 -21,0 -21,-1 -2,-9 z" />
    <path
       id="path418"
       d="m 2605,560 c -3,-5 -1,-10 4,-10 6,0 11,5 11,10 0,6 -2,10 -4,10 -3,0 -8,-4 -11,-10 z" />
    <path
       id="path420"
       d="m 13,545 c 0,-8 4,-15 9,-15 4,0 8,7 8,15 0,8 -4,15 -8,15 -5,0 -9,-7 -9,-15 z" />
    <path
       id="path422"
       d="m 40,535 c 0,-29 3,-30 24,-9 14,13 16,13 16,0 0,-8 -9,-18 -20,-21 -17,-5 -20,-15 -20,-61 0,-30 -4,-54 -10,-54 -5,0 -10,13 -10,29 0,17 -3,32 -7,34 -5,3 -9,-39 -9,-93 l -2,-98 32,-5 c 17,-3 54,-2 81,3 49,7 49,7 -25,9 l -76,1 6,53 5,52 73,1 c 79,0 98,9 77,37 -8,12 -15,14 -20,8 -3,-6 -1,-11 4,-11 6,0 11,-6 11,-13 0,-9 -11,-12 -35,-9 l -35,4 v 65 c 0,73 -12,103 -40,103 -15,0 -20,-7 -20,-25 z m 38,-63 c 0,-15 1,-32 2,-37 4,-19 0,-35 -9,-35 -14,0 -22,72 -9,87 14,18 15,17 16,-15 z" />
    <path
       id="path424"
       d="m 1355,549 c -4,-6 -5,-12 -2,-15 2,-3 7,2 10,11 7,17 1,20 -8,4 z" />
    <path
       id="path426"
       d="m 2091,556 c 11,-10 109,-16 109,-6 0,6 -24,10 -57,10 -31,0 -54,-2 -52,-4 z" />
    <path
       id="path428"
       d="m 2648,553 c 7,-3 16,-2 19,1 4,3 -2,6 -13,5 -11,0 -14,-3 -6,-6 z" />
    <path
       id="path430"
       d="m 1160,540 c 0,-5 7,-10 16,-10 8,0 12,5 9,10 -3,6 -10,10 -16,10 -5,0 -9,-4 -9,-10 z" />
    <path
       id="path432"
       d="m 1670,538 c 0,-12 7,-18 23,-17 15,0 17,2 7,6 -8,3 -18,11 -22,17 -5,7 -8,4 -8,-6 z" />
    <path
       id="path434"
       d="m 848,533 c 7,-3 16,-2 19,1 4,3 -2,6 -13,5 -11,0 -14,-3 -6,-6 z" />
    <path
       id="path436"
       d="m 920,536 c 0,-2 7,-7 16,-10 8,-3 12,-2 9,4 -6,10 -25,14 -25,6 z" />
    <path
       id="path438"
       d="m 1047,504 c 3,-7 14,-16 25,-20 32,-10 32,3 -1,19 -23,12 -28,12 -24,1 z" />
    <path
       id="path440"
       d="m 1155,510 c -3,-5 1,-10 9,-10 9,0 16,5 16,10 0,6 -4,10 -9,10 -6,0 -13,-4 -16,-10 z" />
    <path
       id="path442"
       d="m 2268,513 c 7,-3 16,-2 19,1 4,3 -2,6 -13,5 -11,0 -14,-3 -6,-6 z" />
    <path
       id="path444"
       d="m 2008,503 c 6,-2 18,-2 25,0 6,3 1,5 -13,5 -14,0 -19,-2 -12,-5 z" />
    <path
       id="path446"
       d="m 1730,496 c 0,-2 9,-6 20,-9 11,-3 18,-1 14,4 -5,9 -34,13 -34,5 z" />
    <path
       id="path448"
       d="m 201,469 c -1,-24 1,-25 59,-26 33,0 57,3 54,8 -3,5 2,9 11,9 9,0 13,-4 10,-10 -9,-14 18,-13 33,2 7,7 16,8 24,2 7,-6 25,-11 41,-13 20,-2 27,2 27,16 1,16 2,16 10,2 6,-11 24,-16 55,-17 32,0 43,3 38,11 -4,7 2,5 12,-3 11,-9 16,-10 11,-2 -4,6 -3,12 3,12 5,0 13,-5 16,-10 5,-8 11,-7 21,1 8,6 14,7 14,2 0,-5 20,-10 45,-12 43,-2 45,-1 33,18 -11,17 -22,20 -95,18 -46,-1 -83,-5 -83,-9 0,-5 -9,-3 -20,4 -17,11 -22,10 -30,-2 -6,-10 -10,-11 -10,-3 0,10 -33,12 -135,10 -87,-2 -136,1 -139,8 -2,5 -5,-2 -5,-16 z" />
    <path
       id="path450"
       d="m 1598,483 c 7,-3 16,-2 19,1 4,3 -2,6 -13,5 -11,0 -14,-3 -6,-6 z" />
    <path
       id="path452"
       d="m 164,469 c -3,-6 -1,-16 5,-22 8,-8 11,-5 11,11 0,24 -5,28 -16,11 z" />
    <path
       id="path454"
       d="m 720,471 c 0,-18 26,-31 38,-19 9,9 12,9 12,-2 0,-7 3,-10 7,-7 3,4 12,2 20,-4 7,-7 13,-7 13,-2 0,6 18,9 40,8 26,-2 38,1 34,9 -3,6 0,4 8,-5 7,-9 19,-14 27,-11 8,3 11,0 7,-7 -4,-7 -1,-9 8,-5 12,5 10,10 -12,28 -31,25 -82,32 -94,14 -6,-10 -8,-10 -8,0 0,8 -17,12 -50,12 -27,0 -50,-4 -50,-9 z" />
    <path
       id="path456"
       d="m 946,461 c 5,-5 23,-12 39,-16 30,-6 30,-6 -4,10 -38,17 -49,19 -35,6 z" />
    <path
       id="path458"
       d="m 1105,461 c -3,-5 4,-13 16,-16 28,-9 33,-2 9,13 -11,6 -21,8 -25,3 z" />
    <path
       id="path460"
       d="m 1211,461 c -8,-5 -21,-7 -30,-4 -13,4 -13,3 -2,-5 13,-9 71,2 71,14 0,7 -25,4 -39,-5 z" />
    <path
       id="path462"
       d="m 1290,460 c -14,-4 -18,-9 -10,-10 43,-6 149,-5 175,1 25,6 22,7 -20,8 -27,1 -66,3 -85,6 -19,2 -46,0 -60,-5 z" />
    <path
       id="path464"
       d="m 1640,463 c 0,-4 -24,-6 -54,-5 -30,2 -62,-1 -72,-6 -21,-12 121,-8 150,4 11,4 17,4 14,-2 -6,-9 198,-12 206,-3 3,2 -34,5 -82,7 -48,1 -104,5 -124,8 -21,3 -38,2 -38,-3 z" />
    <path
       id="path466"
       d="m 1014,433 c -26,-26 -21,-39 5,-15 10,10 26,22 37,29 18,11 18,11 -1,10 -11,-1 -30,-12 -41,-24 z" />
    <path
       id="path468"
       d="m 1948,453 c 12,-2 30,-2 40,0 9,3 -1,5 -23,4 -22,0 -30,-2 -17,-4 z" />
    <path
       id="path470"
       d="m 2020,450 c 0,-5 14,-10 30,-10 17,0 30,5 30,10 0,6 -13,10 -30,10 -16,0 -30,-4 -30,-10 z" />
    <path
       id="path472"
       d="m 2258,453 c 7,-3 16,-2 19,1 4,3 -2,6 -13,5 -11,0 -14,-3 -6,-6 z" />
    <path
       id="path474"
       d="m 2338,453 c 12,-2 32,-2 45,0 12,2 2,4 -23,4 -25,0 -35,-2 -22,-4 z" />
    <path
       id="path476"
       d="m 2544,449 c 16,-4 35,-5 43,-1 7,5 -5,8 -30,9 -38,1 -39,0 -13,-8 z" />
    <path
       id="path478"
       d="m 2758,443 c 6,-2 18,-2 25,0 6,3 1,5 -13,5 -14,0 -19,-2 -12,-5 z" />
    <path
       id="path480"
       d="m 1155,420 c 3,-5 11,-10 16,-10 6,0 7,5 4,10 -3,6 -11,10 -16,10 -6,0 -7,-4 -4,-10 z" />
    <path
       id="path482"
       d="m 2847,409 c 7,-7 15,-10 18,-7 3,3 -2,9 -12,12 -14,6 -15,5 -6,-5 z" />
    <path
       id="path484"
       d="m 200,398 c 0,-11 -3,-11 153,-13 109,-2 137,0 137,11 0,10 -29,13 -145,12 -80,-1 -145,-5 -145,-10 z" />
    <path
       id="path486"
       d="m 518,402 c -28,-6 -21,-19 12,-24 17,-3 30,-2 30,2 0,3 18,5 40,3 29,-1 39,1 33,10 -5,9 -4,9 8,0 8,-6 29,-11 47,-11 18,1 35,-2 38,-5 3,-3 17,-2 30,3 13,5 24,6 24,1 0,-4 7,-8 15,-8 8,0 12,3 10,7 -5,9 67,6 81,-3 6,-3 16,-2 23,3 8,4 28,4 45,-1 40,-12 39,-12 27,9 -9,15 -31,17 -228,17 -120,1 -226,-1 -235,-3 z" />
    <path
       id="path488"
       d="m 1315,400 c -3,-5 1,-10 10,-10 9,0 13,5 10,10 -3,6 -8,10 -10,10 -2,0 -7,-4 -10,-10 z" />
    <path
       id="path490"
       d="m 2465,400 c 3,-5 8,-10 11,-10 2,0 4,5 4,10 0,6 -5,10 -11,10 -5,0 -7,-4 -4,-10 z" />
    <path
       id="path492"
       d="m 2040,380 c 0,-5 5,-10 11,-10 5,0 7,5 4,10 -3,6 -8,10 -11,10 -2,0 -4,-4 -4,-10 z" />
    <path
       id="path494"
       d="m 190,370 c 0,-5 5,-10 11,-10 5,0 7,5 4,10 -3,6 -8,10 -11,10 -2,0 -4,-4 -4,-10 z" />
    <path
       id="path496"
       d="m 1210,370 c 13,-9 13,-10 0,-11 -8,-1 -2,-4 14,-8 35,-8 196,-2 196,7 0,4 -41,6 -91,4 -56,-2 -96,1 -102,7 -6,6 -16,11 -21,11 -6,0 -4,-5 4,-10 z" />
    <path
       id="path498"
       d="m 1960,376 c 0,-2 11,-6 25,-8 13,-3 22,-1 19,3 -5,9 -44,13 -44,5 z" />
    <path
       id="path500"
       d="m 1001,354 c 0,-11 3,-14 6,-6 3,7 2,16 -1,19 -3,4 -6,-2 -5,-13 z" />
    <path
       id="path502"
       d="m 1439,357 c 5,-5 26,-7 47,-5 l 39,3 -47,5 c -26,3 -43,1 -39,-3 z" />
    <path
       id="path504"
       d="m 1707,359 c 17,-15 51,-19 56,-7 3,9 -6,13 -30,14 -18,0 -30,-3 -26,-7 z" />
    <path
       id="path506"
       d="m 648,353 c 7,-3 16,-2 19,1 4,3 -2,6 -13,5 -11,0 -14,-3 -6,-6 z" />
    <path
       id="path508"
       d="m 688,353 c 6,-2 18,-2 25,0 6,3 1,5 -13,5 -14,0 -19,-2 -12,-5 z" />
    <path
       id="path510"
       d="m 1063,353 c 9,-2 23,-2 30,0 6,3 -1,5 -18,5 -16,0 -22,-2 -12,-5 z" />
    <path
       id="path512"
       d="m 1600,350 c 0,-13 11,-13 30,0 12,8 11,10 -7,10 -13,0 -23,-4 -23,-10 z" />
    <path
       id="path514"
       d="m 1840,352 c 0,-4 19,-9 43,-10 31,-2 38,0 27,8 -18,12 -70,13 -70,2 z" />
    <path
       id="path516"
       d="m 2140,350 c -13,-9 -13,-10 0,-10 8,0 22,5 30,10 13,9 13,10 0,10 -8,0 -22,-5 -30,-10 z" />
    <path
       id="path518"
       d="m 2218,353 c 7,-3 16,-2 19,1 4,3 -2,6 -13,5 -11,0 -14,-3 -6,-6 z" />
    <path
       id="path520"
       d="m 2405,350 c -3,-5 1,-10 9,-10 9,0 16,5 16,10 0,6 -4,10 -9,10 -6,0 -13,-4 -16,-10 z" />
    <path
       id="path522"
       d="m 2538,353 c 6,-2 18,-2 25,0 6,3 1,5 -13,5 -14,0 -19,-2 -12,-5 z" />
    <path
       id="path524"
       d="m 2660,349 c 0,-5 11,-9 25,-9 14,0 25,2 25,4 0,2 -11,6 -25,8 -14,3 -25,1 -25,-3 z" />
    <path
       id="path526"
       d="m 2815,350 c 3,-5 13,-10 21,-10 8,0 12,5 9,10 -3,6 -13,10 -21,10 -8,0 -12,-4 -9,-10 z" />
    <path
       id="path528"
       d="m 2028,343 c 6,-2 18,-2 25,0 6,3 1,5 -13,5 -14,0 -19,-2 -12,-5 z" />
    <path
       id="path530"
       d="m 798,328 c 6,-6 18,-8 28,-6 14,3 12,5 -9,10 -19,3 -25,2 -19,-4 z" />
    <path
       id="path532"
       d="m 1458,303 c 7,-3 16,-2 19,1 4,3 -2,6 -13,5 -11,0 -14,-3 -6,-6 z" />
    <path
       id="path534"
       d="m 2585,300 c -3,-5 3,-10 15,-10 12,0 18,5 15,10 -3,6 -10,10 -15,10 -5,0 -12,-4 -15,-10 z" />
    <path
       id="path536"
       d="m 2718,303 c 7,-3 16,-2 19,1 4,3 -2,6 -13,5 -11,0 -14,-3 -6,-6 z" />
    <path
       id="path538"
       d="m 227,255 6,-46 -110,7 c -73,4 -112,3 -117,-4 -8,-14 214,-14 232,0 8,7 208,9 628,6 338,-3 611,-2 607,2 -4,3 -26,20 -48,37 l -40,30 -582,7 -583,7 z m 307,3 c 4,7 30,12 62,12 42,0 54,-3 54,-15 0,-13 -4,-14 -20,-5 -11,6 -25,8 -31,4 -14,-8 -89,-13 -106,-6 -19,6 -16,20 5,24 9,2 20,-3 23,-11 4,-11 8,-11 13,-3 z m 433,-3 c -7,-16 -37,-21 -37,-5 0,10 32,31 39,25 2,-2 1,-11 -2,-20 z m 156,18 c -7,-2 -13,-10 -13,-17 0,-8 -13,-13 -30,-14 -42,-1 -40,26 3,31 48,6 53,6 40,0 z m 32,-3 c -4,-6 3,-9 16,-7 12,1 24,-4 27,-12 3,-10 -2,-12 -21,-7 -14,3 -27,2 -29,-4 -2,-5 -9,-6 -17,-1 -12,8 -12,11 0,25 15,17 34,22 24,6 z m 160,-4 c 27,2 35,-1 35,-14 1,-16 2,-16 13,0 10,13 17,14 32,5 19,-11 18,-12 -10,-17 -16,-3 -46,-2 -65,3 -23,6 -35,6 -38,-1 -2,-7 -12,-7 -33,0 -31,11 -30,33 2,23 12,-4 19,-2 20,7 0,8 2,9 5,2 3,-6 20,-10 39,-8 z m -975,-6 c 0,-5 -22,-10 -50,-10 -27,0 -50,5 -50,10 0,6 23,10 50,10 28,0 50,-4 50,-10 z m 60,-4 c 0,-9 -8,-12 -25,-8 -14,2 -25,8 -25,13 0,5 11,9 25,9 14,0 25,-6 25,-14 z m 70,4 c 0,-5 -13,-10 -30,-10 -16,0 -30,5 -30,10 0,6 14,10 30,10 17,0 30,-4 30,-10 z m 314,-1 c -4,-6 -19,-9 -36,-5 -16,3 -27,2 -24,-2 3,-5 -9,-8 -26,-7 -18,1 -34,7 -36,13 -2,8 16,12 63,12 46,0 64,-3 59,-11 z m 41,-1 c -11,-6 -23,-16 -27,-22 -9,-13 -10,-3 -2,18 3,9 16,16 28,16 21,-1 21,-1 1,-12 z m 92,-1 c -5,-15 -59,-15 -64,0 -3,7 9,11 32,11 23,0 35,-4 32,-11 z m 121,1 c -5,-14 -58,-22 -58,-8 0,10 18,18 43,19 11,1 17,-4 15,-11 z" />
    <path
       id="path540"
       d="m 1528,283 c 6,-2 18,-2 25,0 6,3 1,5 -13,5 -14,0 -19,-2 -12,-5 z" />
    <path
       id="path542"
       d="m 1818,283 c 7,-3 16,-2 19,1 4,3 -2,6 -13,5 -11,0 -14,-3 -6,-6 z" />
    <path
       id="path544"
       d="m 1938,283 c 7,-3 16,-2 19,1 4,3 -2,6 -13,5 -11,0 -14,-3 -6,-6 z" />
    <path
       id="path546"
       d="m 2185,280 c -3,-5 3,-10 15,-10 12,0 18,5 15,10 -3,6 -10,10 -15,10 -5,0 -12,-4 -15,-10 z" />
    <path
       id="path548"
       d="m 170,270 c 0,-16 28,-32 35,-20 4,6 4,14 1,18 -10,9 -36,11 -36,2 z" />
    <path
       id="path550"
       d="m 1478,245 c 17,-14 33,-25 37,-25 3,0 -7,11 -23,25 -17,14 -33,25 -37,25 -3,0 7,-11 23,-25 z" />
    <path
       id="path552"
       d="m 1810,250 c 0,-5 7,-10 15,-10 8,0 15,5 15,10 0,6 -7,10 -15,10 -8,0 -15,-4 -15,-10 z" />
    <path
       id="path554"
       d="m 1880,250 c 0,-6 7,-10 15,-10 8,0 15,2 15,4 0,2 -7,6 -15,10 -8,3 -15,1 -15,-4 z" />
    <path
       id="path556"
       d="m 120,246 c 0,-2 11,-6 25,-8 13,-3 22,-1 19,3 -5,9 -44,13 -44,5 z" />
    <path
       id="path558"
       d="m 2228,233 c 6,-2 18,-2 25,0 6,3 1,5 -13,5 -14,0 -19,-2 -12,-5 z" />
    <path
       id="path560"
       d="m 1990,220 c -9,-6 -10,-10 -3,-10 6,0 15,5 18,10 8,12 4,12 -15,0 z" />
    <path
       id="path562"
       d="m 2080,210 c 0,-5 -51,-11 -117,-13 l -118,-3 126,-2 c 106,-2 126,0 126,13 0,8 -4,15 -9,15 -4,0 -8,-4 -8,-10 z" />
    <path
       id="path564"
       d="m 2299,205 c 37,-17 60,-20 46,-6 -6,5 -26,12 -45,15 l -35,7 z" />
    <path
       id="path566"
       d="m 1510,199 c -25,-3 38,-7 139,-7 101,-1 181,1 177,5 -8,9 -254,10 -316,2 z" />
    <path
       id="path568"
       d="m 888,193 c 7,-3 16,-2 19,1 4,3 -2,6 -13,5 -11,0 -14,-3 -6,-6 z" />
    <path
       id="path570"
       d="m 2470,190 c -9,-6 -10,-10 -3,-10 6,0 15,5 18,10 8,12 4,12 -15,0 z" />
    <path
       id="path572"
       d="m 1426,183 c -3,-3 16,-19 42,-36 26,-16 50,-35 54,-41 5,-7 8,-7 8,0 0,21 -91,89 -104,77 z" />
    <path
       id="path574"
       d="m 2578,183 c 12,-2 32,-2 45,0 12,2 2,4 -23,4 -25,0 -35,-2 -22,-4 z" />
    <path
       id="path576"
       d="m 2758,183 c 23,-2 59,-2 80,0 20,2 1,4 -43,4 -44,0 -61,-2 -37,-4 z" />
    <path
       id="path578"
       d="m 80,161 c 0,-5 5,-13 10,-16 6,-3 10,-2 10,4 0,5 -4,13 -10,16 -5,3 -10,2 -10,-4 z" />
    <path
       id="path580"
       d="m 878,163 c 7,-3 16,-2 19,1 4,3 -2,6 -13,5 -11,0 -14,-3 -6,-6 z" />
    <path
       id="path582"
       d="m 1020,160 c -20,-6 -21,-8 -5,-8 11,0 29,3 40,8 25,11 -1,11 -35,0 z" />
    <path
       id="path584"
       d="m 1328,163 c 12,-2 30,-2 40,0 9,3 -1,5 -23,4 -22,0 -30,-2 -17,-4 z" />
    <path
       id="path586"
       d="m 1778,163 c 7,-3 16,-2 19,1 4,3 -2,6 -13,5 -11,0 -14,-3 -6,-6 z" />
    <path
       id="path588"
       d="m 1898,163 c 7,-3 16,-2 19,1 4,3 -2,6 -13,5 -11,0 -14,-3 -6,-6 z" />
    <path
       id="path590"
       d="m 2390,160 c 8,-5 20,-10 25,-10 6,0 3,5 -5,10 -8,5 -19,10 -25,10 -5,0 -3,-5 5,-10 z" />
    <path
       id="path592"
       d="m 328,153 c 7,-3 16,-2 19,1 4,3 -2,6 -13,5 -11,0 -14,-3 -6,-6 z" />
    <path
       id="path594"
       d="m 368,153 c 6,-2 18,-2 25,0 6,3 1,5 -13,5 -14,0 -19,-2 -12,-5 z" />
    <path
       id="path596"
       d="m 695,150 c 3,-5 11,-10 16,-10 6,0 7,5 4,10 -3,6 -11,10 -16,10 -6,0 -7,-4 -4,-10 z" />
    <path
       id="path598"
       d="m 2568,153 c 6,-2 18,-2 25,0 6,3 1,5 -13,5 -14,0 -19,-2 -12,-5 z" />
    <path
       id="path600"
       d="m 2793,153 c 15,-2 39,-2 55,0 15,2 2,4 -28,4 -30,0 -43,-2 -27,-4 z" />
    <path
       id="path602"
       d="m 610,140 c -9,-6 -10,-10 -3,-10 6,0 15,5 18,10 8,12 4,12 -15,0 z" />
    <path
       id="path604"
       d="m 928,143 c 6,-2 18,-2 25,0 6,3 1,5 -13,5 -14,0 -19,-2 -12,-5 z" />
    <path
       id="path606"
       d="m 1613,143 c 9,-2 23,-2 30,0 6,3 -1,5 -18,5 -16,0 -22,-2 -12,-5 z" />
    <path
       id="path608"
       d="m 1803,138 c -6,-11 29,-10 46,1 10,7 6,9 -13,8 -16,-1 -30,-5 -33,-9 z" />
    <path
       id="path610"
       d="m 1933,143 c 9,-2 23,-2 30,0 6,3 -1,5 -18,5 -16,0 -22,-2 -12,-5 z" />
    <path
       id="path612"
       d="m 2008,143 c 7,-3 16,-2 19,1 4,3 -2,6 -13,5 -11,0 -14,-3 -6,-6 z" />
    <path
       id="path614"
       d="m 58,133 c 7,-3 16,-2 19,1 4,3 -2,6 -13,5 -11,0 -14,-3 -6,-6 z" />
    <path
       id="path616"
       d="m 158,133 c 7,-3 16,-2 19,1 4,3 -2,6 -13,5 -11,0 -14,-3 -6,-6 z" />
    <path
       id="path618"
       d="m 198,123 c 7,-3 16,-2 19,1 4,3 -2,6 -13,5 -11,0 -14,-3 -6,-6 z" />
    <path
       id="path620"
       d="m 1648,123 c 7,-3 16,-2 19,1 4,3 -2,6 -13,5 -11,0 -14,-3 -6,-6 z" />
    <path
       id="path622"
       d="m 2488,110 c 18,-11 37,-20 42,-20 5,0 15,-7 24,-15 8,-8 17,-11 20,-7 3,5 -19,21 -49,36 -64,31 -84,34 -37,6 z" />
    <path
       id="path624"
       d="m 368,113 c 6,-2 18,-2 25,0 6,3 1,5 -13,5 -14,0 -19,-2 -12,-5 z" />
    <path
       id="path626"
       d="m 550,91 c 4,-16 13,-38 20,-48 11,-17 11,-17 5,2 -3,11 -9,32 -12,48 -3,15 -9,27 -14,27 -4,0 -4,-13 1,-29 z" />
    <path
       id="path628"
       d="m 1200,110 c 0,-5 9,-10 20,-10 11,0 20,5 20,10 0,6 -9,10 -20,10 -11,0 -20,-4 -20,-10 z" />
    <path
       id="path630"
       d="m 1775,100 c 3,-5 15,-10 26,-10 11,0 17,5 14,10 -3,6 -15,10 -26,10 -11,0 -17,-4 -14,-10 z" />
    <path
       id="path632"
       d="m 1540,92 c 0,-4 10,-14 21,-22 12,-8 30,-24 40,-34 11,-11 19,-16 19,-10 0,9 -66,74 -75,74 -3,0 -5,-4 -5,-8 z" />
    <path
       id="path634"
       d="m 2428,93 c 7,-3 16,-2 19,1 4,3 -2,6 -13,5 -11,0 -14,-3 -6,-6 z" />
    <path
       id="path636"
       d="m 225,80 c -3,-5 -1,-10 4,-10 6,0 11,5 11,10 0,6 -2,10 -4,10 -3,0 -8,-4 -11,-10 z" />
    <path
       id="path638"
       d="m 1625,60 c -3,-5 1,-10 10,-10 9,0 13,5 10,10 -3,6 -8,10 -10,10 -2,0 -7,-4 -10,-10 z" />
    <path
       id="path640"
       d="m 40,50 c 8,-5 20,-10 25,-10 6,0 3,5 -5,10 -8,5 -19,10 -25,10 -5,0 -3,-5 5,-10 z" />
    <path
       id="path642"
       d="m 1418,53 c 7,-3 16,-2 19,1 4,3 -2,6 -13,5 -11,0 -14,-3 -6,-6 z" />
    <path
       id="path644"
       d="m 2598,53 c 7,-3 16,-2 19,1 4,3 -2,6 -13,5 -11,0 -14,-3 -6,-6 z" />
    <path
       id="path646"
       d="m 1230,40 c 0,-5 5,-10 11,-10 5,0 7,5 4,10 -3,6 -8,10 -11,10 -2,0 -4,-4 -4,-10 z" />
    <path
       id="path648"
       d="M 48,3 C 55,0 64,1 67,4 71,7 65,10 54,9 43,9 40,6 48,3 Z" />
    <path
       id="path650"
       d="m 98,3 c 7,-3 16,-2 19,1 4,3 -2,6 -13,5 C 93,9 90,6 98,3 Z" />
  </g>
</svg>
